<svg width="109" height="67" viewBox="0 0 109 67" fill="none" xmlns="http://www.w3.org/2000/svg">
<path d="M39.6193 48.0269L34.7364 54.0217L38.5648 56.0915L43.4476 50.0966L39.6193 48.0269Z" fill="white"/>
<path d="M37.341 53.7682C32.9685 51.4035 27.0719 52.3784 24.1643 55.9407L40.0092 64.5033C42.9134 60.9383 41.7202 56.1315 37.341 53.7682Z" fill="#3CC22E"/>
<path d="M34.3493 45.276L31.343 48.968L45.118 56.4129L48.1243 52.7209L34.3493 45.276Z" fill="#3CC22E"/>
<path opacity="0.5" d="M32.4401 47.6204L31.3423 48.9686L45.1173 56.4135L46.2151 55.0653L32.4401 47.6204Z" fill="black"/>
<path d="M36.7473 22.2223L34.6812 24.7597L71.7813 44.8111L73.8475 42.2736L36.7473 22.2223Z" fill="#3CC22E"/>
<path d="M58.0836 10.4973L30.2941 44.6359L50.7151 55.6694L78.5046 21.5309L58.0836 10.4973Z" fill="white"/>
<path d="M71.365 17.686L43.5805 51.8246L50.7058 55.6737L78.4902 21.5351L71.365 17.686Z" fill="#3CC22E"/>
<path d="M65.6946 14.6378L37.9514 48.7998L40.7769 50.3229L68.5202 16.1609L65.6946 14.6378Z" fill="#3CC22E"/>
<path d="M73.7639 6.36021L68.8797 12.366L72.1992 14.1578L77.0833 8.15197L73.7639 6.36021Z" fill="white"/>
<path d="M82.1837 6.97371C80.5186 9.01481 77.1443 9.56933 74.6423 8.21551C72.1404 6.86446 71.4598 4.11258 73.1181 2.07563C74.7798 0.0372993 78.1508 -0.519996 80.6578 0.833821C83.1597 2.18349 83.8421 4.93676 82.1837 6.97371Z" fill="#3CC22E"/>
<path opacity="0.5" d="M80.6595 0.83244C78.3528 -0.412131 75.3315 -0.0249271 73.5696 1.63174C73.3235 3.24276 74.1637 4.90634 75.9375 5.86604C78.2374 7.11061 81.2604 6.72065 83.0274 5.06675C83.2701 3.45295 82.4333 1.79214 80.6595 0.83244Z" fill="black"/>
<path d="M77.2173 34.1172L64.4455 49.807L96.2214 66.9756L108.993 51.2858L77.2173 34.1172Z" fill="white"/>
<path d="M13.2374 0.0470165L0.464294 15.7337L31.6465 32.5867L44.4197 16.8999L13.2374 0.0470165Z" fill="white"/>
<path d="M59.6143 3.02408L53.4188 10.635L79.8674 24.9252L86.0628 17.3143L59.6143 3.02408Z" fill="#3CC22E"/>
<path opacity="0.5" d="M55.8657 7.62879L53.4191 10.6344L79.8676 24.9247L82.3143 21.919L55.8657 7.62879Z" fill="black"/>
<path d="M51.3129 10.5065L47.1327 15.6402L77.2301 31.9067L81.4102 26.7731L51.3129 10.5065Z" fill="#3CC22E"/>
<path opacity="0.5" d="M49.2215 13.071L47.131 15.6384L77.2283 31.905L79.3189 29.3376L49.2215 13.071Z" fill="black"/>
<path d="M13.8775 2.41613L10.8458 6.15623L15.4394 8.6277L18.4711 4.8876L13.8775 2.41613Z" fill="#3CC22E"/>
<path d="M19.5258 5.45963L16.4893 9.19864L21.0801 11.6732L24.1166 7.93424L19.5258 5.45963Z" fill="#3CC22E"/>
<path d="M25.1804 8.4986L22.1429 12.2372L26.7317 14.7119L29.7693 10.9733L25.1804 8.4986Z" fill="#3CC22E"/>
<path d="M30.8128 11.541L27.7791 15.2814L32.3701 17.753L35.4038 14.0126L30.8128 11.541Z" fill="#3CC22E"/>
<path d="M36.4658 14.5761L33.431 18.316L38.0201 20.7878L41.0549 17.0479L36.4658 14.5761Z" fill="#3CC22E"/>
<path d="M10.1436 7.01546L7.10931 10.7558L11.6975 13.2263L14.7318 9.48599L10.1436 7.01546Z" fill="#3CC22E"/>
<path d="M15.7817 10.0653L12.7474 13.8053L17.3351 16.2758L20.3694 12.5359L15.7817 10.0653Z" fill="#3CC22E"/>
<path d="M21.4306 13.1074L18.3964 16.8473L22.9854 19.3185L26.0197 15.5786L21.4306 13.1074Z" fill="#3CC22E"/>
<path d="M27.0847 16.1405L24.0518 19.8781L28.6409 22.3498L31.6738 18.6122L27.0847 16.1405Z" fill="#3CC22E"/>
<path d="M32.7301 19.1946L29.6941 22.9336L34.2807 25.4055L37.3166 21.6665L32.7301 19.1946Z" fill="#3CC22E"/>
<path d="M6.40368 11.6299L3.37088 15.3691L7.9605 17.8399L10.9933 14.1007L6.40368 11.6299Z" fill="#3CC22E"/>
<path d="M12.0457 14.6628L9.01385 18.4008L13.6049 20.8724L16.6368 17.1344L12.0457 14.6628Z" fill="#3CC22E"/>
<path d="M17.7053 17.7059L14.6697 21.4438L19.2563 23.9161L22.2918 20.1782L17.7053 17.7059Z" fill="#3CC22E"/>
<path d="M23.3498 20.7403L20.315 24.4802L24.9027 26.9512L27.9375 23.2113L23.3498 20.7403Z" fill="#3CC22E"/>
<path d="M29.0096 23.7906L25.973 27.528L30.5618 30.0028L33.5984 26.2654L29.0096 23.7906Z" fill="#3CC22E"/>
<path d="M78.1571 37.0488L75.1233 40.7892L79.7158 43.2616L82.7495 39.5212L78.1571 37.0488Z" fill="#3CC22E"/>
<path d="M83.8019 40.0809L80.7665 43.8203L85.3564 46.2933L88.3918 42.5538L83.8019 40.0809Z" fill="#3CC22E"/>
<path d="M89.4586 43.1182L86.4212 46.8584L91.0078 49.3307L94.0452 45.5905L89.4586 43.1182Z" fill="#3CC22E"/>
<path d="M95.1063 46.1619L92.0708 49.8998L96.6573 52.3721L99.6929 48.6342L95.1063 46.1619Z" fill="#3CC22E"/>
<path d="M100.754 49.2055L97.7222 52.9472L102.312 55.4155L105.344 51.6738L100.754 49.2055Z" fill="#3CC22E"/>
<path d="M74.4179 41.6279L71.3814 45.3669L75.9708 47.8408L79.0073 44.1017L74.4179 41.6279Z" fill="#3CC22E"/>
<path d="M80.0615 44.6801L77.0278 48.4204L81.6188 50.892L84.6526 47.1517L80.0615 44.6801Z" fill="#3CC22E"/>
<path d="M85.7191 47.7384L82.6863 51.4776L87.2773 53.9493L90.3101 50.21L85.7191 47.7384Z" fill="#3CC22E"/>
<path d="M91.3677 50.759L88.3345 54.4998L92.9261 56.9709L95.9593 53.2301L91.3677 50.759Z" fill="#3CC22E"/>
<path d="M97.0077 53.8043L93.9756 57.5455L98.5692 60.0165L101.601 56.2753L97.0077 53.8043Z" fill="#3CC22E"/>
<path d="M70.6831 46.2518L67.6472 49.9908L72.2352 52.4634L75.2711 48.7244L70.6831 46.2518Z" fill="#3CC22E"/>
<path d="M76.3319 49.2742L73.298 53.0129L77.8885 55.4854L80.9224 51.7467L76.3319 49.2742Z" fill="#3CC22E"/>
<path d="M81.9661 52.3313L78.9336 56.0737L83.5257 58.5435L86.5582 54.8011L81.9661 52.3313Z" fill="#3CC22E"/>
<path d="M87.6444 55.3643L84.6084 59.1038L89.1998 61.578L92.2357 57.8385L87.6444 55.3643Z" fill="#3CC22E"/>
<path d="M93.2741 58.4048L90.2387 62.1443L94.8301 64.618L97.8655 60.8785L93.2741 58.4048Z" fill="#3CC22E"/>
<path opacity="0.5" d="M44.4258 16.8999L0.469086 15.7355L13.2401 0.0497742L44.4258 16.8999Z" fill="black"/>
<path opacity="0.5" d="M108.992 51.2971L64.448 49.8174L77.2173 34.1261L108.992 51.2971Z" fill="black"/>
<path opacity="0.5" d="M40.0093 64.5033C40.9717 63.3182 41.4758 61.9948 41.5708 60.6687L27.7441 53.3381C26.3403 53.9231 25.0996 54.7984 24.166 55.9407L40.0093 64.5033Z" fill="black"/>
</svg>
