<svg width="645" height="484" viewBox="0 0 645 484" fill="none" xmlns="http://www.w3.org/2000/svg">
<g clip-path="url(#clip0_1_3)">
<path d="M645.002 0H0.0015564V484H645.002V0Z" fill="url(#paint0_linear_1_3)"/>
<path opacity="0.1" d="M502.353 188.645C489.282 168.366 481.565 143.903 459.678 129.669C439.912 116.814 411.554 114.507 393.565 100.023C371.106 81.9163 372.016 50.7688 350.279 32.085C329.006 13.8134 292.647 13.6045 263.561 22.1382C227.838 32.6174 198.5 53.0561 191.081 84.6322C188.853 94.1048 188.848 104.128 192.972 113.162C200.602 129.897 222.741 137.204 241.474 143.561C252.456 147.283 263.628 151.596 271.246 159.038C280.101 167.695 282.951 179.506 282.693 190.771C282.412 203.017 278.8 215.2 272.188 226.197C266.721 235.29 259.282 243.51 253.65 252.546C246.624 263.81 244.496 277.539 242.809 289.957C241.203 301.774 243.618 314.509 255.238 322.643C262.615 327.79 274.498 331.833 283.669 333.971C300.215 337.824 318.723 335.037 329.495 348.874C334.329 355.073 334.765 361.668 332.83 368.562C330.763 375.927 331.089 383.389 330.564 390.986C329.388 408.207 327.135 426.194 334.996 442.655C345.545 464.774 375.55 479.934 404.41 476.728C419.654 475.028 433.549 468.862 446.676 462.327C464.95 453.237 482.54 443.232 500.656 433.95C505.563 431.436 510.504 428.969 515.515 426.598C518.522 425.175 521.544 423.771 524.601 422.419C546.103 412.907 569.335 405.263 593.738 402.732C610.708 400.965 627.896 399.68 644.997 397.921V230.116C610.761 217.889 562.328 231.75 529.095 214.485C517.063 208.235 509.015 198.982 502.353 188.645Z" fill="white"/>
<path opacity="0.1" d="M21.3156 357.101C20.9948 353.758 20.9167 350.39 21.0949 347.032C22.6616 316.053 47.4771 279.033 87.3313 271.754C104.775 268.563 123.373 271.704 140.649 274.145C153.88 276.021 170.877 280.063 184.005 275.897C201.571 270.321 215.598 265.789 226.179 253.919C243.846 234.098 249.7 222.444 254.721 205.793C259.249 190.778 261.984 175.227 270.017 161.222C281.189 141.718 302.692 126.327 327.872 119.808C339.536 116.788 352.209 115.629 364.058 118.126C375.909 120.631 386.812 127.145 391.578 136.33C396.023 144.892 394.818 154.779 391.179 163.58C387.54 172.379 381.64 180.42 376.578 188.736C364.186 209.098 356.838 233.342 367.139 254.465C372.735 265.935 382.994 275.395 391.916 285.365C400.847 295.34 408.83 306.744 408.66 319.08C408.514 329.615 402.191 339.758 392.761 346.941C386.548 351.681 378.848 355.481 370.78 357.706C363.763 359.644 358.608 358.399 351.574 358.618C337.6 359.042 322.278 365.215 318.172 376.707C315.979 382.825 316.656 389.337 316.783 395.707C316.902 402.08 316.318 408.795 312.044 414.131C308.142 419.003 301.616 422.091 294.886 424.023C270.956 430.89 247.687 423.725 223.798 420.759C199.159 417.704 173.553 416.786 149.445 422.807C133.963 426.676 121.341 433.379 108.679 441.35C98.9345 447.483 86.6609 455.487 74.9388 458.723C57.203 463.619 35.4343 454.923 29.8279 440.37C25.6812 429.6 29.7786 418.023 30.1436 406.738C30.6833 390.313 23.2353 374.407 21.4157 358.054C21.3835 357.735 21.3478 357.419 21.3156 357.101Z" fill="white"/>
<path d="M344.104 128.915L341.066 127.354L341.388 130.267L338.625 132.124L342.115 132.778L343.43 135.495L345.284 132.989L348.855 132.807L346.499 130.605L347.385 127.776L344.104 128.915Z" fill="#FFD438"/>
<path d="M552.135 251.054L563.15 241.898C563.643 241.487 564.317 241.259 565.02 241.259H581.335C582.435 241.259 583.421 241.82 583.795 242.662L589.544 255.56C589.981 256.538 589.488 257.629 588.379 258.142L568.715 267.258C568.08 267.551 567.327 267.617 566.631 267.438L549.369 262.986C547.259 262.441 546.88 260.142 548.737 259.163L551.906 257.492C553.339 256.738 553.517 255.086 552.268 254.14L552.222 254.107C551.146 253.29 551.105 251.91 552.135 251.054Z" fill="#FFD438"/>
<path d="M571.701 260.711C571.701 261.708 570.706 262.517 569.482 262.517C568.255 262.517 567.262 261.708 567.262 260.711C567.262 259.71 568.255 258.903 569.482 258.903C570.706 258.904 571.701 259.712 571.701 260.711Z" fill="#FFB700"/>
<path d="M581.364 245.865C581.364 246.865 580.371 247.675 579.145 247.675C577.92 247.675 576.927 246.865 576.927 245.865C576.927 244.868 577.92 244.06 579.145 244.06C580.371 244.06 581.364 244.868 581.364 245.865Z" fill="#FFB700"/>
<path d="M575.707 245.027C575.707 245.492 575.247 245.865 574.676 245.865C574.108 245.865 573.649 245.492 573.649 245.027C573.649 244.565 574.109 244.188 574.676 244.188C575.248 244.188 575.707 244.565 575.707 245.027Z" fill="#FFB700"/>
<path d="M565.585 262.517C565.585 263.167 564.939 263.69 564.142 263.69C563.345 263.69 562.701 263.167 562.701 262.517C562.701 261.868 563.345 261.342 564.142 261.342C564.94 261.342 565.585 261.868 565.585 262.517Z" fill="#FFB700"/>
<path d="M590.447 269.399L602.313 273.15C602.763 273.291 603.184 273.482 603.569 273.719L609.301 277.25C610.603 278.052 611.367 279.303 611.367 280.632V282.034C611.367 283.385 610.574 284.656 609.236 285.452L604.362 288.359C603.47 288.893 602.394 289.178 601.288 289.178H586.7C585.113 289.178 583.615 288.588 582.627 287.576L575.343 280.113C573.342 278.062 574.082 275.038 576.896 273.768L586.042 269.645C587.395 269.032 589.007 268.942 590.447 269.399Z" fill="#FFD438"/>
<path d="M596.243 266.178C596.243 267.111 595.315 267.868 594.171 267.868C593.025 267.868 592.096 267.111 592.096 266.178C592.096 265.246 593.025 264.489 594.171 264.489C595.315 264.491 596.243 265.247 596.243 266.178Z" fill="#FFD438"/>
<path d="M590.767 273.903C590.767 275.027 589.645 275.942 588.262 275.942C586.879 275.942 585.758 275.027 585.758 273.903C585.758 272.775 586.879 271.863 588.262 271.863C589.645 271.864 590.767 272.775 590.767 273.903Z" fill="#FFB700"/>
<path d="M594.22 277.69C594.22 278.335 593.582 278.856 592.792 278.856C592 278.856 591.358 278.335 591.358 277.69C591.358 277.049 592 276.524 592.792 276.524C593.583 276.524 594.22 277.049 594.22 277.69Z" fill="#FFB700"/>
<path d="M594.342 274.743C594.342 275.092 593.994 275.375 593.566 275.375C593.139 275.375 592.791 275.092 592.791 274.743C592.791 274.393 593.139 274.111 593.566 274.111C593.994 274.111 594.342 274.393 594.342 274.743Z" fill="#FFB700"/>
<path opacity="0.3" d="M575.345 280.112L582.628 287.575C583.615 288.588 585.115 289.176 586.702 289.176H601.289C602.394 289.176 603.47 288.891 604.363 288.358L609.238 285.451C610.576 284.656 611.368 283.383 611.368 282.032V280.63C611.368 279.301 610.605 278.051 609.303 277.249L607.646 276.228C600.113 275.277 600.829 283.634 592.792 284.877C584.244 286.197 584.314 277.685 580.531 277.243C577.482 276.888 578.701 273.855 579.29 272.687L576.9 273.766C574.084 275.036 573.346 278.059 575.345 280.112Z" fill="black"/>
<path d="M596.106 256.88L597.385 262.665C597.676 263.979 598.869 265.041 600.453 265.39L607.105 266.854C607.777 267.002 608.479 267.014 609.155 266.889L624.778 263.979C626.855 263.592 628.259 262.007 628.052 260.279L626.884 250.524C626.78 249.655 626.276 248.851 625.475 248.273L617.954 242.848C616.342 241.685 613.919 241.693 612.319 242.859L597.453 253.688C596.353 254.493 595.848 255.699 596.106 256.88Z" fill="#FFD438"/>
<path d="M595.697 248.678C595.697 249.333 595.046 249.862 594.245 249.862C593.444 249.862 592.789 249.332 592.789 248.678C592.789 248.022 593.446 247.494 594.245 247.494C595.046 247.494 595.697 248.024 595.697 248.678Z" fill="#FFB700"/>
<path d="M618.852 248.678C618.852 249.691 617.842 250.514 616.598 250.514C615.352 250.514 614.344 249.691 614.344 248.678C614.344 247.666 615.352 246.843 616.598 246.843C617.842 246.843 618.852 247.666 618.852 248.678Z" fill="#FFB700"/>
<path d="M612.638 250.514C612.638 251.172 611.979 251.708 611.173 251.708C610.362 251.708 609.707 251.171 609.707 250.514C609.707 249.855 610.364 249.322 611.173 249.322C611.979 249.322 612.638 249.856 612.638 250.514Z" fill="#FFB700"/>
<path d="M615.809 253.403C615.809 253.953 615.26 254.399 614.583 254.399C613.909 254.399 613.363 253.953 613.363 253.403C613.363 252.855 613.908 252.409 614.583 252.409C615.26 252.409 615.809 252.855 615.809 253.403Z" fill="#FFB700"/>
<path opacity="0.3" d="M600.451 265.39L607.103 266.854C607.775 267.002 608.478 267.015 609.153 266.889L624.776 263.979C626.853 263.592 628.257 262.007 628.05 260.279L626.882 250.524C626.779 249.655 626.275 248.851 625.473 248.273L624.781 247.773C621.541 248.754 620.763 252.125 618.852 255.914C616.518 260.541 609.829 262.277 603.54 259.175C600.205 257.529 597.793 257.37 596.262 257.586L597.384 262.665C597.676 263.981 598.869 265.041 600.451 265.39Z" fill="black"/>
<path opacity="0.3" d="M549.37 262.986L566.632 267.438C567.327 267.617 568.082 267.551 568.717 267.258L588.381 258.142C589.488 257.629 589.982 256.538 589.545 255.56L588.741 253.756C585.976 255.448 582.026 256.188 579.149 254.397C574.914 251.762 560.756 250.774 558.584 257.088C557.132 261.317 551.468 261.999 547.875 261.989C548.175 262.437 548.676 262.806 549.37 262.986Z" fill="black"/>
<path d="M280.296 410.716C280.296 434.862 256.288 454.428 226.655 454.428C197.019 454.428 173 434.862 173 410.716C173 386.583 197.018 367.001 226.655 367.001C256.288 367 280.296 386.581 280.296 410.716Z" fill="#077E48"/>
<path opacity="0.2" d="M226.656 454.428C256.288 454.428 280.296 434.862 280.296 410.716C280.296 403.307 278.023 396.337 274.031 390.215C271.663 402.544 255.436 411.905 240.521 411.791C222.701 411.648 221.536 421.024 213.693 430.156C205.868 439.289 190.162 433.055 183.88 430.748C181.487 429.887 179.925 430.071 178.9 430.636C187.794 444.759 205.832 454.428 226.656 454.428Z" fill="#1F0159"/>
<path opacity="0.2" d="M175.611 397.228C183.88 410.716 204.88 399.927 208.609 393.313C219.297 374.339 245.868 387.204 254.759 385.367C261.781 383.911 262.706 380.208 258.882 375.781C249.903 370.266 238.744 367 226.656 367C202.796 367 182.595 379.696 175.611 397.228Z" fill="#FFCCDC"/>
<path opacity="0.3" d="M272.781 433.038C265.165 430.959 255.136 431.75 248.998 438.282C236.843 451.219 225.423 445.325 214.84 444.873C208.991 444.632 205.589 447.558 203.743 450.245C210.692 452.918 218.447 454.428 226.656 454.428C246.265 454.428 263.429 445.848 272.781 433.038Z" fill="#1F0159"/>
<path d="M552.166 367.696C560.052 400.942 533.36 433.102 492.546 439.525C451.735 445.947 412.264 424.202 404.38 390.954C396.497 357.706 423.187 325.548 463.995 319.124C504.805 312.702 544.284 334.445 552.166 367.696Z" fill="#3CC22E"/>
<path d="M547.583 402.718C553.022 392.005 554.823 379.93 551.919 367.696C550.085 359.972 546.54 352.888 541.675 346.618C524.793 357.08 534.049 377.531 516.669 391.799C496.486 408.37 452.325 402.374 430.962 395.468C419.677 391.821 410.752 392.288 404.83 393.539C406.176 398.142 408.133 402.505 410.618 406.586C419.402 408.764 429.627 411.816 441.588 416.007C492.164 433.723 527.867 417.469 547.583 402.718Z" fill="#077E48"/>
<path d="M483.089 378.566C519.26 373.005 530.506 351.451 534.005 338.108C531.783 336.118 529.403 334.264 526.894 332.535C506.521 361.007 473.166 354.481 441.804 350.05C428.158 348.123 418.763 348.529 412.419 349.659C405.568 359.744 402.165 371.442 403.204 383.534C425.794 372.841 438.909 385.362 483.089 378.566Z" fill="#077E48"/>
<path d="M506.382 322.457C501.254 320.774 495.887 319.524 490.35 318.79C479.816 327.883 459.731 339.78 433.483 330.039C429.655 332.353 426.125 334.948 422.934 337.78C428.525 340.102 438.782 342.808 456.25 342.82C486.858 342.833 502.99 331.343 506.382 322.457Z" fill="#077E48"/>
<path d="M492.548 439.527C505.903 437.425 517.732 432.554 527.344 425.802C510.448 434.874 473.33 437.133 460.424 431.574C451.231 427.615 436.917 426.344 429.414 425.943C446.232 437.624 469.162 443.205 492.548 439.527Z" fill="#077E48"/>
<path opacity="0.3" d="M542.972 410.622C532.285 407.714 518.175 408.812 509.559 417.987C492.502 436.146 476.46 427.867 461.573 427.23C453.356 426.874 448.607 430.999 445.994 434.76C455.752 438.52 466.658 440.63 478.175 440.63C505.738 440.63 529.829 428.588 542.972 410.622Z" fill="black"/>
<path d="M377.848 88.6494L338.79 74.5885L358.554 41.848L414.304 68.8469L377.848 88.6494ZM342.831 73.3924L377.556 85.8934L408.714 68.9631L359.801 45.2775L342.831 73.3924Z" fill="#FFD438"/>
<path d="M356.435 42.0209L331.374 26.8233L297.219 22.6664L256.267 21.4509L256.372 19.0253L297.578 20.2561L332.554 24.5111L358.213 40.0738L356.435 42.0209Z" fill="#FFD438"/>
<path d="M376.222 84.7761L379.016 81.8084L380.214 85.4232L384.544 86.6706L380.694 88.713L380.575 92.4537L377.003 90.1028L372.596 91.1676L374.234 87.6704L371.63 84.588L376.222 84.7761Z" fill="#FFB700"/>
<path d="M409.597 66.6841L412.16 63.9613L413.253 67.2746L417.223 68.4182L413.695 70.2892L413.586 73.7215L410.308 71.5642L406.272 72.5405L407.779 69.3351L405.394 66.5085L409.597 66.6841Z" fill="#FFB700"/>
<path d="M339.234 71.9694L342.184 68.8414L343.437 72.647L348 73.9607L343.946 76.1124L343.821 80.055L340.061 77.5741L335.415 78.6956L337.145 75.0145L334.404 71.7675L339.234 71.9694Z" fill="#FFB700"/>
<path d="M330.42 23.6939L333.321 20.6142L334.558 24.3632L339.049 25.6575L335.057 27.7761L334.933 31.6577L331.228 29.217L326.66 30.3178L328.361 26.6947L325.662 23.4947L330.42 23.6939Z" fill="#FFB700"/>
<path d="M295.785 18.7294L298.647 15.6885L299.869 19.3877L304.304 20.6654L300.36 22.7577L300.241 26.5882L296.583 24.1792L292.07 25.2676L293.752 21.6901L291.089 18.5303L295.785 18.7294Z" fill="#FFB700"/>
<path d="M257.345 18.6893L259.633 16.2582L260.609 19.2162L264.151 20.2367L261.004 21.9058L260.908 24.9675L257.985 23.0412L254.381 23.9124L255.722 21.054L253.594 18.5303L257.345 18.6893Z" fill="#FFB700"/>
<path d="M357.211 40.8524L360.793 37.0467L362.32 41.6765L367.862 43.2737L362.935 45.8887L362.784 50.6789L358.208 47.6671L352.571 49.0292L354.672 44.5543L351.342 40.6034L357.211 40.8524Z" fill="#FFB700"/>
<path d="M579.468 92.4163C586.616 122.549 562.421 151.704 525.431 157.524C488.438 163.349 452.668 143.64 445.52 113.497C438.366 83.3697 462.567 54.2135 499.564 48.3931C536.536 42.5685 572.324 62.277 579.468 92.4163Z" fill="#3CC22E"/>
<path d="M445.52 113.497C452.668 143.64 488.438 163.349 525.431 157.524C561.172 151.893 584.861 124.503 579.998 95.4835C574.571 93.1866 567.339 93.9873 559.796 98.9047C541.719 110.678 569.413 133.538 543.331 138.748C517.239 143.954 508.207 119.533 495.11 123.011C482.007 126.49 466.293 126.654 467.167 102.956C467.703 88.2802 458.792 80.958 451.919 77.4967C445.128 88.2014 442.494 100.755 445.52 113.497Z" fill="#3CC22E"/>
<path d="M607.485 64.242C599.83 52.059 574.634 48.5563 543.331 53.399C549.37 55.8951 554.91 59.1075 559.796 62.9269C572.964 62.9947 582.685 65.8752 586.349 71.7191C589.948 77.4248 587.155 85.0084 579.604 93.0441C580.899 98.8826 581.014 104.68 580.103 110.277C603.588 93.8725 615.069 76.2895 607.485 64.242Z" fill="white"/>
<path d="M457.802 136.192C449.523 135.054 443.482 132.355 440.771 128.048C437.653 123.08 439.352 116.695 444.816 109.822C443.836 103.4 444.23 97.0627 445.865 91.0307C421.728 107.622 409.816 125.521 417.502 137.745C424.622 149.079 446.931 152.882 475.199 149.469C468.533 145.919 462.626 141.441 457.802 136.192Z" fill="white"/>
<path d="M579.605 93.0428C569.654 103.623 551.453 114.965 528.62 123.806C501.537 134.275 474.878 138.553 457.802 136.192C462.625 141.441 468.533 145.919 475.199 149.469C493.023 147.314 513.233 142.293 533.529 134.436C551.745 127.393 567.624 119.003 580.103 110.276C581.016 104.678 580.901 98.8812 579.605 93.0428Z" fill="white"/>
<path d="M526.016 110.234C526.016 115.066 521.214 118.977 515.294 118.977C509.374 118.977 504.572 115.065 504.572 110.234C504.572 105.411 509.374 101.502 515.294 101.502C521.214 101.502 526.016 105.412 526.016 110.234Z" fill="#3CC22E"/>
<path d="M546.85 101.502C546.85 104.951 543.418 107.745 539.183 107.745C534.944 107.745 531.512 104.951 531.512 101.502C531.512 98.0487 534.944 95.254 539.183 95.254C543.418 95.254 546.85 98.0487 546.85 101.502Z" fill="#3CC22E"/>
<path d="M511.149 74.6674C511.149 77.6295 508.202 80.0273 504.57 80.0273C500.934 80.0273 497.993 77.6295 497.993 74.6674C497.993 71.7108 500.934 69.3074 504.57 69.3074C508.202 69.306 511.149 71.7108 511.149 74.6674Z" fill="#3CC22E"/>
<path d="M548.308 63.5934C548.308 66.5804 545.342 69.0018 541.678 69.0018C538.015 69.0018 535.048 66.5804 535.048 63.5934C535.048 60.6189 538.015 58.1962 541.678 58.1962C545.342 58.1962 548.308 60.6175 548.308 63.5934Z" fill="#3CC22E"/>
<path d="M266.604 355.616C266.604 355.616 261.583 354.748 255.755 359.76C249.928 364.768 237.331 379.444 236.335 381.522C235.344 383.599 233.767 386.536 234.074 387.684C234.225 388.239 238.431 385.709 239.653 381.873C240.295 379.87 259.564 365.102 262.722 362.08C265.89 359.058 269.057 357.164 266.604 355.616Z" fill="#6053AF"/>
<path d="M238.447 378.533L240.823 381.729C240.823 381.729 268.359 360.416 268.517 357.292C268.673 354.17 263.247 353.953 260.969 355.394C251.841 361.171 238.447 378.533 238.447 378.533Z" fill="#3CC22E"/>
<path d="M307.339 356.515C313.211 353.841 320.502 349.085 324.697 347.774C325.362 347.563 325.639 347.567 326.7 349.102C327.762 350.637 328.643 348.713 327.881 345.818C327.12 342.918 309.388 348.793 301.244 352.222C294.122 355.218 300.521 359.623 307.339 356.515Z" fill="#F9B5A0"/>
<path d="M325.763 344.995C325.763 344.995 327.781 347.21 326.7 349.102C326.7 349.102 327.908 351.84 328.492 349.818C329.066 347.788 329.098 344.126 325.763 344.995Z" fill="#7585F8"/>
<path d="M280.025 342.112C279.565 345.199 284.878 348.012 284.919 351.077C284.927 351.764 284.535 352.675 284.904 353.315C285.353 354.09 286.801 354.795 287.645 355.329C289.685 356.618 291.976 357.712 294.555 358.356C301.214 360.021 307.969 357.624 313.886 354.647C315.621 353.772 317.322 352.856 319.034 351.959C319.034 351.959 320.177 348.445 317.4 345.921C315.544 346.416 313.693 346.911 311.842 347.405C310.208 347.842 308.636 348.455 306.961 348.778C305.09 349.141 303.88 348.863 302.327 348.249C299.273 347.05 296.955 344.927 295.996 342.391C295.68 341.551 295.504 340.672 295.122 339.852C294.742 339.029 294.117 338.248 293.126 337.83C292.896 337.732 292.632 337.653 292.358 337.696C292.056 337.746 292.061 337.906 291.881 338.029C291.664 338.176 291.51 338.309 291.186 338.441C290.491 338.726 289.794 339.006 289.099 339.289L280.025 342.112Z" fill="#3CC22E"/>
<path d="M303.042 358.512C300.243 359.006 297.393 359.065 294.553 358.356C293 357.967 291.556 357.399 290.203 356.738C294.753 354.27 300.365 355.438 303.042 358.512Z" fill="#3CC22E"/>
<path d="M312.109 326.171C312.9 321.196 312.275 314.346 313.497 311.07C313.689 310.551 313.873 310.382 316.24 310.439C318.613 310.495 317.055 309.024 313.368 308.137C309.665 307.248 304.87 321.223 303.474 327.987C302.249 333.903 311.199 331.942 312.109 326.171Z" fill="#F9B5A0"/>
<path d="M311.096 309.087C311.096 309.087 314.847 308.854 316.24 310.439C316.24 310.439 320.042 310.968 318.175 309.643C316.305 308.317 312.269 306.568 311.096 309.087Z" fill="#7585F8"/>
<path d="M284.152 353.646C285.19 353.884 289.901 344.104 296.731 340.991C299.518 339.723 302.772 339.16 305.314 337.609C309.835 334.851 311.192 330.212 312.301 326.188C312.382 325.888 313.165 318.974 313.66 316.078C313.66 316.078 310.104 313.445 305.537 314.01C305.07 314.067 303.374 319.635 303.196 320.096C302.587 321.68 302.096 323.282 301.558 324.852C301.054 326.315 299.375 327.262 297.523 327.829C293.793 328.973 289.249 328.645 285.039 330.63C274.417 335.637 276.619 339.851 276.649 339.986C276.738 340.391 278.448 341.119 278.841 341.366C280.039 342.12 281.239 342.875 282.441 343.628C282.741 343.821 283.851 353.578 284.152 353.646Z" fill="#3CC22E"/>
<path d="M310.7 331.017C309.636 333.535 308.074 335.926 305.318 337.609C303.559 338.679 301.567 339.462 299.514 340.134C301.765 335.933 304.377 332.014 310.7 331.017Z" fill="#3CC22E"/>
<path d="M301.831 324.044C301.831 324.044 307.243 323.556 312.301 326.188C312.301 326.188 315.424 312.762 316.132 312.702C316.846 312.64 325.637 311.423 316.247 307.551C306.852 303.682 302.069 321.359 301.831 324.044Z" fill="#077E48"/>
<path d="M306.811 348.809C306.811 348.809 310.087 351.731 309.597 356.601C309.597 356.601 325.715 350.21 326.117 350.617C326.528 351.025 332.06 355.781 331.848 347.388C331.639 338.993 309.879 347.239 306.811 348.809Z" fill="#077E48"/>
<path d="M248.68 351.727L250.825 358.995L252.302 360.497C252.302 360.497 261.88 362.222 272.097 359.903C282.325 357.591 285.722 354.449 285.722 354.449C285.722 354.449 286.401 352.263 282.953 344.992C281.409 341.746 279.536 339.21 277.267 337.274C277.267 337.274 266.764 343.436 256.573 345.187C256.573 345.187 257.574 349.165 257.713 349.68C259.049 354.66 248.512 350.125 248.512 350.125L248.68 351.727Z" fill="#3CC22E"/>
<path d="M276.661 343.732C275.052 343.924 274.545 344.827 275.371 346.819C276.598 349.771 276.85 355.016 275.984 352.486C275.117 349.958 273.302 346.721 271.062 344.363C268.814 341.997 263.152 343.468 263.152 343.468C267.144 342.56 277.267 337.276 277.267 337.276C279.536 339.212 281.407 341.748 282.953 344.993C286.401 352.264 285.722 354.451 285.722 354.451C281.833 344.558 277.994 343.59 276.661 343.732Z" fill="#3CC22E"/>
<path d="M249.593 356.904C250.809 357.157 254.51 356.858 255.901 354.227C257.776 350.694 256.96 342.89 262.191 339.736C267.441 336.583 271.459 338.022 274.302 338.703C277.164 339.386 277.91 340.751 279.628 340.994C281.334 341.239 281.606 339.568 277.367 337.585C275.324 336.638 265.969 330.957 258.874 333.772C249.583 337.458 242.474 355.424 249.593 356.904Z" fill="#867BC8"/>
<path d="M262.191 339.734C256.96 342.889 257.776 350.694 255.901 354.225C254.51 356.857 250.808 357.156 249.593 356.903C242.476 355.423 249.583 337.455 258.874 333.77C264.18 331.668 270.744 334.308 274.572 336.172C274.103 336.992 273.443 337.732 272.805 338.331C270.104 337.675 266.586 337.097 262.191 339.734Z" fill="#3CC22E"/>
<path d="M252.387 338.88C254.276 336.591 256.501 334.71 258.873 333.771C259.774 333.413 260.718 333.234 261.67 333.124C260.012 336.615 256.921 338.533 252.387 338.88Z" fill="#3CC22E"/>
<path d="M244.204 355.114C245.36 355.307 246.753 355.193 247.748 354.661C248.091 354.481 248.229 354.241 248.498 354.021C248.775 353.792 249.205 353.739 249.585 353.693C251.408 353.476 253.209 354.141 253.945 355.55C254.215 356.062 254.32 356.658 254.059 357.172C253.794 357.703 253.171 358.007 252.487 357.948C251.759 357.884 251.046 357.902 250.316 358.079C250.123 358.125 248.341 358.815 248.41 358.879L244.204 355.114Z" fill="#EEBCA4"/>
<path d="M239.394 360.443C241.818 361.726 250.822 361.838 252.172 359.721C252.755 358.796 250.904 355.839 246.589 354.592C244.815 354.086 241.648 353.635 239.139 355.474C238.004 356.305 236.569 358.946 239.394 360.443Z" fill="#FFDECF"/>
<path d="M240.92 361.936C242.093 362.094 242.301 361.938 242.014 359.235C241.724 356.54 241.393 356.131 242.225 356.244C244.701 356.575 243.703 354.81 246.66 355.233C249.617 355.651 247.337 353.788 244.864 353.263C244.364 353.149 241.892 352.484 238.949 354.411C235.505 356.661 236.617 361.351 240.92 361.936Z" fill="#353A66"/>
<path d="M246.66 355.232C246.66 355.232 247.548 355.457 247.658 356.875C247.76 358.29 246.76 360.683 247.244 361.304C247.723 361.933 252.401 361.072 252.689 359.477C252.974 357.891 249.81 354.713 247.314 354.236C246.784 354.135 246.66 355.232 246.66 355.232Z" fill="#353A66"/>
<path d="M249.33 358.395C249.33 358.395 248.162 359.228 248.364 360.129C248.554 361.025 249.793 360.609 250.182 360.333C250.566 360.057 251.014 358.532 250.369 357.977C249.721 357.421 249.709 358.057 249.33 358.395Z" fill="#FFDECF"/>
<path d="M238.949 354.411C241.614 352.48 244.365 353.149 244.864 353.263C246.703 353.651 248.234 354.17 249.846 355.428C250.033 355.546 248.475 354.778 247.976 355.162C247.375 355.615 246.611 354.001 244.873 354.845C243.135 355.681 242.432 354.751 240.867 355.318C239.297 355.872 239.911 356.813 240.227 359.863C240.363 361.097 239.862 361.44 239.226 361.415C236.401 360.002 236.143 356.443 238.949 354.411Z" fill="#353A66"/>
<path d="M258.927 361.142C257.479 368.036 249.412 372.686 240.943 371.504C232.484 370.325 226.77 363.753 228.227 356.858C229.676 349.962 237.74 345.311 246.204 346.492C254.672 347.675 260.375 354.246 258.927 361.142ZM229.327 357.012C227.981 363.409 233.278 369.507 241.134 370.604C248.992 371.701 256.478 367.387 257.824 360.988C259.166 354.588 253.872 348.488 246.017 347.39C238.161 346.295 230.673 350.611 229.327 357.012Z" fill="white"/>
<path opacity="0.5" d="M230.415 357.346C230.515 356.965 230.651 356.576 230.951 356.276C231.257 355.977 231.761 355.785 232.217 355.894C232.553 355.976 232.806 356.206 232.957 356.466C233.102 356.723 233.156 357.009 233.2 357.291C233.45 358.869 233.475 360.469 233.263 362.048C233.222 362.381 233.161 362.724 232.957 363.013C232.265 363.984 231.221 363.268 230.995 362.491C230.673 361.402 230.233 360.421 230.199 359.282C230.179 358.628 230.252 357.981 230.415 357.346Z" fill="white"/>
<path opacity="0.5" d="M234.765 365.255C234.746 365.032 234.605 364.826 234.41 364.67C234.217 364.514 233.971 364.406 233.723 364.317C233.395 364.204 232.99 364.136 232.715 364.317C232.114 364.716 232.682 365.436 233.103 365.742C233.697 366.176 234.838 366.087 234.765 365.255Z" fill="white"/>
<path d="M298.229 56.9461C298.876 56.2408 299.823 53.7503 297.72 51.9636C294.908 49.5727 287.027 47.4873 285.696 43.0442C284.382 38.59 287.13 36.4715 288.746 34.8563C290.37 33.2342 291.952 33.2052 292.764 32.1805C293.578 31.1558 292.039 30.4187 288.68 32.4999C287.076 33.5066 278.406 37.658 278.772 43.1922C279.258 50.4425 294.397 61.0573 298.229 56.9461Z" fill="#077E48"/>
<path d="M285.696 43.0428C287.027 47.4859 294.908 49.5713 297.72 51.9622C299.823 53.7489 298.876 56.2408 298.229 56.9447C294.397 61.0573 279.258 50.4411 278.772 43.1908C278.497 39.0546 283.272 35.6915 286.373 33.833C287.017 34.4124 287.512 35.0886 287.887 35.7026C286.339 37.2293 284.599 39.3146 285.696 43.0428Z" fill="#3CC22E"/>
<path d="M279.368 40.3338C281.907 42.5782 282.868 45.8929 281.346 48.8052C279.872 46.9079 278.89 44.9498 278.771 43.1908C278.704 42.1896 278.939 41.2326 279.368 40.3338Z" fill="#077E48"/>
<path d="M284.218 75.8732C284.218 75.8732 298.438 65.1243 297.963 74.0354C297.847 76.2355 297.761 78.2241 296.9 80.3454C296.228 81.9993 295.379 83.6131 294.853 85.3057C294.329 86.9969 294.137 88.8085 294.787 90.4693C295.738 92.9017 298.216 93.6167 300.619 94.864C300.945 95.0341 306.105 97.6919 306.097 97.7044C306.097 97.7044 301.648 103.595 301.643 103.604C301.471 103.829 294.108 100.954 293.597 100.726C291.805 99.928 290.073 98.6973 288.548 97.6007C286.944 96.4501 285.484 95.1558 284.386 93.6554C282.782 91.447 282.026 88.8707 281.94 86.3069C281.86 84.057 282.276 81.8112 282.967 79.636C283.253 78.7371 283.508 77.8327 283.824 76.9408C283.898 76.7334 283.999 76.0143 284.218 75.8732Z" fill="#3CC22E"/>
<path d="M282.21 88.5443C287.169 90.172 286.77 92.9045 286.4 95.8638C285.65 95.1779 284.966 94.4464 284.386 93.654C283.25 92.0914 282.559 90.3434 282.21 88.5443Z" fill="#077E48"/>
<path d="M300.419 52.0328C295.082 45.6315 282.169 53.9743 281.286 57.1203C280.599 59.5638 280.266 62.0917 279.859 64.5753C279.631 65.9761 279.411 67.3769 279.195 68.7764C279.047 69.7555 279.192 71.054 278.258 71.6887C273.258 75.0864 269.013 79.6484 268.534 85.09C268.082 90.2038 270.375 94.7478 273.714 98.8508C274.593 99.9294 284.319 99.0278 284.319 99.0278C283.454 97.6505 282.503 96.2911 281.714 94.8861C281.232 94.0232 280.529 93.2378 280.196 92.3168C279.859 91.3668 279.813 90.3517 280.035 89.3837C280.436 87.6441 281.622 86.0732 283.099 84.7788C285.024 83.0862 287.575 82.0076 289.44 80.2901C291.19 78.6846 292.591 76.8149 293.36 74.7116C294.865 74.6286 296.41 74.4198 297.963 74.0368C297.963 74.0368 305.747 58.434 300.419 52.0328Z" fill="#3CC22E"/>
<path d="M280.616 70.4593C282.863 72.2667 285.738 73.0743 288.736 73.7118C292.075 74.4281 294.835 74.0216 298.168 73.6344C298.312 73.6164 298.491 73.7713 298.336 73.8708C296.026 75.3339 292.003 75.1099 289.318 74.6093C285.867 73.9676 282.503 73.0881 279.921 71.0222C279.475 70.6612 280.169 70.0998 280.616 70.4593Z" fill="#077E48"/>
<path d="M269.04 90.3144C268.586 88.6384 268.374 86.9029 268.532 85.09C268.7 83.1982 269.344 81.4213 270.292 79.7535C273.176 84.0445 272.041 87.2721 269.04 90.3144Z" fill="#077E48"/>
<path d="M258.543 62.8744C259.904 63.3832 260.164 64.6527 262.371 65.7286C264.559 66.7975 267.531 68.71 272.754 67.0119C273.258 66.8473 273.714 66.6247 274.152 66.373C274.152 66.373 276.386 71.3914 276.31 71.4024C271.462 72.1962 264.433 70.2063 261.7 67.9771C260.67 67.1405 259.915 66.4324 259.516 66.1172C256.506 63.711 257.18 62.3655 258.543 62.8744Z" fill="#077E48"/>
<path d="M299.63 94.3302C299.63 94.3302 293.984 100.697 294.69 101.162C295.395 101.63 310.179 106.657 310.075 107.2C309.972 107.749 309.261 114.578 316.485 108.184C323.709 101.789 302.921 94.976 299.63 94.3302Z" fill="#077E48"/>
<path d="M295.955 39.3215C292.808 39.7558 288.697 41.6046 289.877 48.0529C290.693 52.5098 297.379 49.7179 297.379 49.7179C297.379 49.7179 303.552 38.2733 295.955 39.3215Z" fill="#FFDECF"/>
<path d="M291.459 48.4539C291.459 48.4539 292.036 50.3208 291.207 51.6497C290.382 52.9828 295.211 53.6023 296.464 53.1238C297.717 52.6495 295.598 51.0495 297.693 48.0723C299.57 45.3909 291.459 48.4539 291.459 48.4539Z" fill="#FFDECF"/>
<path d="M290.907 51.6345C290.937 51.3842 291.355 51.3856 291.389 51.6345C291.513 52.5569 292.956 52.7671 293.825 52.9233C294.959 53.1252 296.255 53.3243 296.875 52.2831C296.916 52.2181 297.043 52.2388 297.063 52.3052C297.46 53.4986 295.198 53.5014 294.327 53.4018C293.136 53.2718 290.741 52.998 290.907 51.6345Z" fill="#077E48"/>
<path d="M291.021 40.2854C291.021 40.2854 288.972 43.7135 291.874 46.2663C294.77 48.8176 292.479 50.2641 293.767 50.7398C295.064 51.2183 299.007 51.8198 301.016 49.5367C303.807 46.37 304.411 37.958 298.689 37.4547C292.969 36.9472 291.554 38.879 291.021 40.2854Z" fill="#353A66"/>
<path d="M296.327 39.4377C295.979 41.3046 297.542 43.0497 299.833 43.3374C302.128 43.6236 304.27 42.3431 304.62 40.4762C304.976 38.6066 303.403 36.8601 301.115 36.5738C298.82 36.2862 296.678 37.5681 296.327 39.4377Z" fill="#353A66"/>
<path d="M281.563 44.286C281.563 37.4588 288.379 31.9039 296.756 31.9039C305.143 31.9039 311.958 37.4588 311.958 44.286C311.958 51.1159 305.143 56.6695 296.756 56.6695C288.379 56.6709 281.563 51.1159 281.563 44.286ZM282.768 44.286C282.768 50.5725 289.043 55.6877 296.756 55.6877C304.476 55.6877 310.754 50.5725 310.754 44.286C310.754 37.9995 304.474 32.8857 296.756 32.8857C289.043 32.8857 282.768 38.0009 282.768 44.286Z" fill="white"/>
<path d="M272.752 67.0133C277.956 65.3068 279.356 58.6511 281.86 56.0389C283.73 54.0891 286.249 53.9591 287.841 54.9146C292.939 57.979 284.104 71.0139 275.367 72.4451C270.381 73.261 264.165 70.0237 261.468 67.7904C262.079 67.1875 262.829 66.6897 263.518 66.2997C265.603 67.3313 268.383 68.4321 272.752 67.0133Z" fill="#3CC22E"/>
<path d="M283.333 68.2094C281.517 69.9657 279.019 71.3997 277.004 72.0482C276.596 70.2284 278.767 67.3106 283.333 68.2094Z" fill="#077E48"/>
<path d="M281.264 94.1601C281.264 94.1601 279.585 97.3614 273.714 98.8508C273.714 98.8508 285.117 108.723 284.742 109.185C284.369 109.645 280.219 115.608 290.06 112.256C299.903 108.903 283.418 96.6437 281.264 94.1601Z" fill="#077E48"/>
<path opacity="0.5" d="M307.11 38.106C306.866 37.7396 306.575 37.3745 306.146 37.1435C305.72 36.9098 305.126 36.8421 304.696 37.073C304.384 37.2417 304.207 37.5432 304.157 37.8474C304.104 38.1503 304.16 38.4573 304.221 38.7587C304.572 40.4472 305.161 42.1039 305.983 43.6789C306.158 44.0094 306.346 44.3468 306.67 44.5902C307.758 45.4186 308.554 44.4132 308.492 43.5531C308.405 42.35 308.483 41.2257 308.079 40.0434C307.847 39.3713 307.522 38.72 307.11 38.106Z" fill="white"/>
<path opacity="0.5" d="M305.667 47.3656C305.599 47.1305 305.667 46.8816 305.805 46.6714C305.946 46.4599 306.154 46.287 306.382 46.1307C306.674 45.9344 307.066 45.7601 307.419 45.8777C308.19 46.1335 307.884 47.0227 307.568 47.4431C307.122 48.0432 305.91 48.2424 305.667 47.3656Z" fill="white"/>
<path d="M0 30.4229C0 30.4229 103.465 31.8057 120.438 88.5029C137.412 145.2 210.399 123.074 237.557 121.691C264.715 120.309 299.925 142.697 315.636 163.177C358.07 218.491 520.848 242 478.593 242C422.338 242 324.123 257.211 263.017 294.549C228.639 315.554 213.953 371.814 144.202 373.371C20.2937 376.137 120.588 450.811 0 484L0 30.4229Z" fill="white"/>
<path d="M432.664 207.521L407.297 179.575L359.579 211.379L377.009 213.04L397.899 204.782L411.198 217.458L432.664 207.521Z" fill="#077E48"/>
<path d="M429.757 254.769L401.095 280.511L357.515 244.984L375.057 244.749L394.833 254.668L409.623 243.139L429.757 254.769Z" fill="#077E48"/>
<path d="M539.607 235.311L540.023 235.318C540.023 235.318 539.948 235.249 539.829 235.127C539.963 235.019 540.045 234.959 540.045 234.959L539.629 234.931C534.374 229.842 476.158 176.742 378.253 220.793L378.057 224.028L377.503 233.006L377.306 236.242C469.316 288.041 533.751 239.949 539.607 235.311Z" fill="white"/>
<path d="M539.607 235.311L540.023 235.318C540.023 235.318 539.948 235.249 539.829 235.127C539.963 235.019 540.045 234.958 540.045 234.958L539.629 234.931C538.317 233.661 533.688 229.388 525.972 224.385C522.621 226.892 520.43 230.385 520.187 234.325C519.948 238.272 521.698 241.921 524.726 244.692C533.016 240.342 538.14 236.47 539.607 235.311Z" fill="#3CC22E"/>
<path d="M483.714 245.264C475.316 244.921 468.844 239.093 469.266 232.248C469.686 225.406 476.838 220.137 485.235 220.48C493.637 220.822 500.106 226.646 499.685 233.489C499.266 240.335 492.115 245.606 483.714 245.264Z" fill="#3CC22E"/>
<path d="M421.805 254.72C431.026 257.187 439.831 258.715 448.17 259.47C442.1 251.473 438.829 241.949 439.452 231.844C440.119 221 445.159 211.18 453.104 203.449C444.699 203.439 435.718 204.155 426.197 205.787C420.058 212.934 416.217 221.52 415.641 230.874C415.12 239.432 417.407 247.563 421.805 254.72Z" fill="#3CC22E"/>
<path d="M405.063 230.439C405.556 222.437 408.441 214.998 413.106 208.538C403.716 210.893 393.852 214.16 383.534 218.502C382.283 222.004 381.487 225.668 381.254 229.469C381.061 232.61 381.258 235.697 381.786 238.696C391.282 243.76 400.472 247.757 409.324 250.863C406.196 244.573 404.619 237.662 405.063 230.439Z" fill="#3CC22E"/>
<path d="M347.862 225.577C347.862 225.577 364.595 216.524 373.289 224.257L372.71 233.675C372.71 233.675 349.395 240.101 332.492 229.968L356.59 228.299L347.862 225.577Z" fill="#FFD438"/>
<path opacity="0.5" d="M378.055 224.03L377.502 233.007L377.305 236.243C437.395 270.069 485.721 261.291 513.647 249.839C513.223 247.159 511.882 244.188 509.508 240.916C497.587 224.493 448.348 248.95 443.307 239.295C438.264 229.643 424.127 222.305 401.312 232.179C385.315 239.1 386.396 225.343 388.467 216.496C385.111 217.815 381.709 219.237 378.253 220.793L378.055 224.03Z" fill="black"/>
<path opacity="0.1" d="M515.516 426.599C510.506 428.972 505.565 431.438 500.657 433.952C505.865 431.865 510.845 429.408 515.516 426.599Z" fill="white"/>
<path d="M438.412 26.2038L436.171 25.0532L436.41 27.198L434.374 28.5671L436.945 29.0497L437.914 31.0521L439.281 29.2059L441.913 29.0704L440.177 27.4497L440.829 25.363L438.412 26.2038Z" fill="#FFD438"/>
<path d="M401.458 91.5769L399.292 90.4637L399.523 92.5394L397.553 93.8642L400.041 94.3288L400.978 96.2662L402.3 94.4809L404.846 94.3496L403.166 92.7814L403.799 90.7638L401.458 91.5769Z" fill="#FFD438"/>
<path d="M472.322 25.5096L470.439 24.543L470.64 26.3462L468.929 27.4967L471.089 27.9019L471.904 29.5849L473.051 28.0333L475.265 27.9199L473.805 26.5564L474.353 24.8043L472.322 25.5096Z" fill="#FFD438"/>
<path d="M384.393 10.9412L381.355 9.37991L381.679 12.2908L378.915 14.148L382.404 14.8021L383.721 17.5194L385.574 15.0137L389.145 14.8311L386.788 12.631L387.676 9.8003L384.393 10.9412Z" fill="#FFD438"/>
<path d="M85.0823 27.0846L83.5496 26.2992L83.7125 27.765L82.3207 28.7012L84.0792 29.0317L84.7428 30.4007L85.6764 29.1382L87.4773 29.0455L86.2891 27.9365L86.7355 26.5094L85.0823 27.0846Z" fill="#FFD438"/>
<path d="M225.127 17.6383L223.596 16.8515L223.759 18.3187L222.367 19.2549L224.126 19.584L224.789 20.9531L225.723 19.6905L227.522 19.5979L226.336 18.4902L226.782 17.0631L225.127 17.6383Z" fill="#FFD438"/>
<path d="M118.923 15.0109L115.884 13.4497L116.209 16.3606L113.445 18.2178L116.935 18.8718L118.251 21.5892L120.104 19.0834L123.675 18.9009L121.319 16.7008L122.205 13.87L118.923 15.0109Z" fill="#FFD438"/>
<path d="M44.0688 13.0735L41.0305 11.5123L41.3547 14.4218L38.5914 16.2804L42.0812 16.9345L43.3966 19.6504L45.2501 17.146L48.8214 16.9621L46.4655 14.762L47.3515 11.9313L44.0688 13.0735Z" fill="#FFD438"/>
<path d="M522.786 23.7893L519.748 22.228L520.07 25.1403L517.307 26.9975L520.797 27.6516L522.112 30.3689L523.966 27.8632L527.537 27.6806L525.181 25.4791L526.067 22.6498L522.786 23.7893Z" fill="#FFD438"/>
<path d="M255.159 52.7947L252.12 51.2335L252.443 54.1444L249.68 56.003L253.169 56.657L254.485 59.3744L256.338 56.8686L259.911 56.6847L257.554 54.4832L258.44 51.6552L255.159 52.7947Z" fill="#FFD438"/>
<path d="M413.674 45.1102L410.636 43.5489L410.96 46.4585L408.197 48.317L411.685 48.9711L413.002 51.687L414.856 49.1827L418.427 48.9988L416.069 46.7986L416.957 43.9679L413.674 45.1102Z" fill="#FFD438"/>
<path d="M336.817 41.0391L333.779 39.4778L334.102 42.3901L331.34 44.2487L334.828 44.9014L336.145 47.6187L337.997 45.1143L341.57 44.9304L339.212 42.7289L340.1 39.8996L336.817 41.0391Z" fill="#FFD438"/>
<path d="M186.619 98.0269L181.736 104.022L185.565 106.091L190.448 100.097L186.619 98.0269Z" fill="white"/>
<path d="M184.341 103.768C179.969 101.404 174.072 102.378 171.164 105.941L187.009 114.503C189.913 110.938 188.72 106.132 184.341 103.768Z" fill="#3CC22E"/>
<path d="M181.349 95.276L178.343 98.968L192.118 106.413L195.124 102.721L181.349 95.276Z" fill="#3CC22E"/>
<path opacity="0.5" d="M179.44 97.6204L178.342 98.9686L192.117 106.414L193.215 105.065L179.44 97.6204Z" fill="black"/>
<path d="M183.747 72.2223L181.681 74.7597L218.781 94.8111L220.848 92.2736L183.747 72.2223Z" fill="#3CC22E"/>
<path d="M205.084 60.4973L177.294 94.6359L197.715 105.669L225.505 71.5309L205.084 60.4973Z" fill="white"/>
<path d="M218.365 67.686L190.581 101.825L197.706 105.674L225.49 71.5351L218.365 67.686Z" fill="#3CC22E"/>
<path d="M212.695 64.6378L184.951 98.7998L187.777 100.323L215.52 66.1609L212.695 64.6378Z" fill="#3CC22E"/>
<path d="M220.764 56.3602L215.88 62.366L219.199 64.1578L224.083 58.152L220.764 56.3602Z" fill="white"/>
<path d="M229.184 56.9737C227.519 59.0148 224.144 59.5693 221.642 58.2155C219.14 56.8645 218.46 54.1126 220.118 52.0756C221.78 50.0373 225.151 49.48 227.658 50.8338C230.16 52.1835 230.842 54.9368 229.184 56.9737Z" fill="#3CC22E"/>
<path opacity="0.5" d="M227.66 50.8324C225.353 49.5879 222.332 49.9751 220.57 51.6317C220.324 53.2428 221.164 54.9063 222.937 55.866C225.237 57.1106 228.26 56.7206 230.027 55.0667C230.27 53.453 229.433 51.7921 227.66 50.8324Z" fill="black"/>
<path d="M224.217 84.1172L211.446 99.807L243.221 116.976L255.993 101.286L224.217 84.1172Z" fill="white"/>
<path d="M160.237 50.047L147.464 65.7337L178.647 82.5867L191.42 66.8999L160.237 50.047Z" fill="white"/>
<path d="M206.614 53.0241L200.419 60.635L226.867 74.9252L233.063 67.3143L206.614 53.0241Z" fill="#3CC22E"/>
<path opacity="0.5" d="M202.866 57.6288L200.419 60.6344L226.868 74.9247L229.314 71.919L202.866 57.6288Z" fill="black"/>
<path d="M198.313 60.5065L194.133 65.6402L224.23 81.9067L228.41 76.7731L198.313 60.5065Z" fill="#3CC22E"/>
<path opacity="0.5" d="M196.221 63.071L194.131 65.6384L224.228 81.905L226.319 79.3376L196.221 63.071Z" fill="black"/>
<path d="M160.877 52.4161L157.846 56.1562L162.439 58.6277L165.471 54.8876L160.877 52.4161Z" fill="#3CC22E"/>
<path d="M166.526 55.4596L163.489 59.1986L168.08 61.6732L171.117 57.9342L166.526 55.4596Z" fill="#3CC22E"/>
<path d="M172.18 58.4986L169.143 62.2372L173.732 64.7119L176.769 60.9733L172.18 58.4986Z" fill="#3CC22E"/>
<path d="M177.813 61.541L174.779 65.2814L179.37 67.753L182.404 64.0126L177.813 61.541Z" fill="#3CC22E"/>
<path d="M183.466 64.5761L180.431 68.316L185.02 70.7878L188.055 67.0479L183.466 64.5761Z" fill="#3CC22E"/>
<path d="M157.144 57.0155L154.109 60.7558L158.698 63.2263L161.732 59.486L157.144 57.0155Z" fill="#3CC22E"/>
<path d="M162.782 60.0653L159.747 63.8053L164.335 66.2758L167.369 62.5359L162.782 60.0653Z" fill="#3CC22E"/>
<path d="M168.431 63.1074L165.396 66.8473L169.985 69.3185L173.02 65.5786L168.431 63.1074Z" fill="#3CC22E"/>
<path d="M174.085 66.1405L171.052 69.8781L175.641 72.3498L178.674 68.6122L174.085 66.1405Z" fill="#3CC22E"/>
<path d="M179.73 69.1946L176.694 72.9336L181.281 75.4055L184.317 71.6665L179.73 69.1946Z" fill="#3CC22E"/>
<path d="M153.404 61.6299L150.371 65.3691L154.961 67.8399L157.993 64.1007L153.404 61.6299Z" fill="#3CC22E"/>
<path d="M159.046 64.6628L156.014 68.4008L160.605 70.8724L163.637 67.1344L159.046 64.6628Z" fill="#3CC22E"/>
<path d="M164.705 67.7059L161.67 71.4438L166.256 73.9161L169.292 70.1782L164.705 67.7059Z" fill="#3CC22E"/>
<path d="M170.35 70.7403L167.315 74.4802L171.903 76.9512L174.938 73.2113L170.35 70.7403Z" fill="#3CC22E"/>
<path d="M176.01 73.7906L172.973 77.528L177.562 80.0028L180.598 76.2654L176.01 73.7906Z" fill="#3CC22E"/>
<path d="M225.157 87.0488L222.123 90.7892L226.716 93.2616L229.75 89.5212L225.157 87.0488Z" fill="#3CC22E"/>
<path d="M230.802 90.0809L227.766 93.8203L232.356 96.2933L235.392 92.5538L230.802 90.0809Z" fill="#3CC22E"/>
<path d="M236.459 93.1182L233.421 96.8584L238.008 99.3307L241.045 95.5905L236.459 93.1182Z" fill="#3CC22E"/>
<path d="M242.106 96.1619L239.071 99.8998L243.657 102.372L246.693 98.6342L242.106 96.1619Z" fill="#3CC22E"/>
<path d="M247.754 99.2055L244.722 102.947L249.312 105.415L252.344 101.674L247.754 99.2055Z" fill="#3CC22E"/>
<path d="M221.418 91.6279L218.381 95.3669L222.971 97.8408L226.007 94.1017L221.418 91.6279Z" fill="#3CC22E"/>
<path d="M227.062 94.6801L224.028 98.4204L228.619 100.892L231.653 97.1517L227.062 94.6801Z" fill="#3CC22E"/>
<path d="M232.719 97.7384L229.686 101.478L234.277 103.949L237.31 100.21L232.719 97.7384Z" fill="#3CC22E"/>
<path d="M238.368 100.759L235.335 104.5L239.926 106.971L242.959 103.23L238.368 100.759Z" fill="#3CC22E"/>
<path d="M244.008 103.804L240.976 107.546L245.569 110.017L248.601 106.275L244.008 103.804Z" fill="#3CC22E"/>
<path d="M217.683 96.2518L214.647 99.9908L219.235 102.463L222.271 98.7244L217.683 96.2518Z" fill="#3CC22E"/>
<path d="M223.332 99.2742L220.298 103.013L224.889 105.485L227.922 101.747L223.332 99.2742Z" fill="#3CC22E"/>
<path d="M228.966 102.331L225.934 106.074L230.526 108.544L233.558 104.801L228.966 102.331Z" fill="#3CC22E"/>
<path d="M234.644 105.364L231.608 109.104L236.2 111.578L239.236 107.839L234.644 105.364Z" fill="#3CC22E"/>
<path d="M240.274 108.405L237.239 112.144L241.83 114.618L244.865 110.879L240.274 108.405Z" fill="#3CC22E"/>
<path opacity="0.5" d="M191.426 66.8999L147.469 65.7355L160.24 50.0498L191.426 66.8999Z" fill="black"/>
<path opacity="0.5" d="M255.992 101.297L211.448 99.8174L224.217 84.1261L255.992 101.297Z" fill="black"/>
<path opacity="0.5" d="M187.009 114.503C187.972 113.318 188.476 111.995 188.571 110.669L174.744 103.338C173.34 103.923 172.1 104.798 171.166 105.941L187.009 114.503Z" fill="black"/>
<path d="M568.882 191.268L566.714 190.155L566.945 192.231L564.976 193.556L567.463 194.022L568.401 195.959L569.723 194.173L572.269 194.041L570.589 192.473L571.222 190.455L568.882 191.268Z" fill="#FFD438"/>
<path d="M625.988 140.7L624.109 139.734L624.307 141.537L622.596 142.687L624.759 143.093L625.572 144.774L626.721 143.223L628.933 143.109L627.473 141.747L628.023 139.994L625.988 140.7Z" fill="#FFD438"/>
<path d="M619.653 34.3723L617.774 33.4057L617.973 35.2075L616.262 36.3595L618.423 36.7632L619.237 38.4462L620.386 36.8946L622.596 36.7812L621.138 35.4191L621.687 33.6656L619.653 34.3723Z" fill="#FFD438"/>
<path d="M608.452 178.83L605.307 177.21L605.64 180.229L602.776 182.155L606.393 182.833L607.756 185.651L609.679 183.053L613.383 182.863L610.939 180.582L611.857 177.647L608.452 178.83Z" fill="#FFD438"/>
<path d="M567.344 160.299L564.304 158.74L564.628 161.649L561.865 163.508L565.354 164.16L566.67 166.878L568.523 164.373L572.095 164.189L569.739 161.989L570.625 159.159L567.344 160.299Z" fill="#FFD438"/>
<path d="M442.051 174.257L439.883 173.143L440.114 175.219L438.145 176.544L440.632 177.008L441.57 178.946L442.893 177.161L445.439 177.029L443.758 175.461L444.391 173.443L442.051 174.257Z" fill="#FFD438"/>
<path d="M490.076 178.693L486.931 177.073L487.264 180.091L484.398 182.019L488.017 182.696L489.38 185.513L491.303 182.915L495.005 182.725L492.563 180.445L493.481 177.51L490.076 178.693Z" fill="#FFD438"/>
<path d="M377.666 160.741L374.63 159.179L374.952 162.09L372.189 163.949L375.679 164.601L376.994 167.319L378.848 164.814L382.419 164.631L380.063 162.43L380.949 159.6L377.666 160.741Z" fill="#FFD438"/>
<path d="M561.143 293.885C560.583 293.055 557.993 291.205 554.926 292.101C550.81 293.3 544.847 298.681 538.916 297.794C532.981 296.888 531.636 293.767 530.401 291.768C529.163 289.757 529.818 288.483 528.941 287.387C528.065 286.289 526.508 287.195 527.535 290.789C528.046 292.51 529.239 301.255 536.058 303.392C544.996 306.183 564.409 298.741 561.143 293.885Z" fill="#3CC22E"/>
<path d="M538.916 297.794C544.847 298.681 550.81 293.3 554.926 292.101C557.993 291.205 560.583 293.055 561.143 293.885C564.409 298.743 544.994 306.184 536.058 303.392C530.962 301.798 529.01 296.505 528.133 293.218C529.112 292.957 530.144 292.856 531.042 292.83C532.203 294.731 533.951 297.034 538.916 297.794Z" fill="#3CC22E"/>
<path d="M532.884 301.659C536.696 300.615 541.106 301.304 543.945 303.794C541.016 304.139 538.227 304.067 536.059 303.392C534.82 303.005 533.778 302.402 532.884 301.659Z" fill="#3CC22E"/>
<path d="M563.582 317.728C563.582 317.728 566.514 300.926 573.517 308.618C575.248 310.514 576.827 312.221 577.867 314.464C578.687 316.218 579.319 318.031 580.29 319.732C581.25 321.433 582.6 323.045 584.521 324.074C587.335 325.579 589.993 324.811 593.035 324.522C593.451 324.485 599.959 323.86 599.962 323.872C599.955 323.871 601.142 331.239 601.143 331.25C601.189 331.529 592.663 333.19 592.044 333.285C589.886 333.607 587.42 333.534 585.237 333.464C582.948 333.388 580.651 333.114 578.494 332.467C575.318 331.511 572.551 329.777 570.345 327.689C568.413 325.856 566.894 323.75 565.662 321.559C565.154 320.649 564.616 319.755 564.139 318.833C564.029 318.624 563.516 317.967 563.582 317.728Z" fill="#3CC22E"/>
<path d="M572.434 329.402C577.922 328.023 579.852 330.526 582.009 333.195C580.811 333.042 579.638 332.804 578.495 332.465C576.246 331.786 574.21 330.709 572.434 329.402Z" fill="#3CC22E"/>
<path d="M557.288 288.913C547.524 286.516 543.686 300.594 545.561 303.703C547.016 306.119 548.842 308.412 550.562 310.707C551.536 312 552.515 313.29 553.498 314.576C554.187 315.474 555.384 316.479 555.133 317.525C553.782 323.116 554.038 329.257 558.151 334.061C562.028 338.573 567.714 341.101 573.901 342.68C575.535 343.097 582.895 336.979 582.895 336.979C581.026 336.309 579.106 335.7 577.278 334.963C576.16 334.509 574.926 334.243 573.882 333.654C572.809 333.051 571.93 332.226 571.312 331.298C570.199 329.626 569.885 327.662 570.039 325.768C570.241 323.297 571.472 320.987 571.602 318.526C571.728 316.226 571.343 313.896 570.234 311.717C571.417 310.816 572.536 309.792 573.515 308.618C573.515 308.618 567.048 291.314 557.288 288.913Z" fill="#077E48"/>
<path d="M556.08 315.199C559.451 315.468 562.521 314.556 565.555 313.437C568.931 312.19 570.896 310.333 573.359 308.17C573.461 308.076 573.738 308.106 573.694 308.273C572.977 310.767 569.44 312.8 566.787 313.86C563.374 315.226 559.829 316.349 555.968 316.046C555.297 315.995 555.404 315.148 556.08 315.199Z" fill="#3CC22E"/>
<path d="M562.919 338.138C561.145 336.988 559.531 335.662 558.151 334.062C556.725 332.395 555.781 330.558 555.191 328.642C561.158 330.63 562.897 333.948 562.919 338.138Z" fill="#3CC22E"/>
<path d="M531.37 321.044C532.928 320.715 534.197 321.629 536.932 321.311C539.646 320.997 543.713 320.953 546.656 316.66C546.938 316.244 547.136 315.803 547.296 315.354C547.296 315.354 553.329 318.31 553.276 318.361C549.89 321.695 542.374 323.911 538.246 323.558C536.687 323.425 535.469 323.255 534.883 323.211C530.368 322.865 529.813 321.368 531.37 321.044Z" fill="#3CC22E"/>
<path d="M591.767 324.622C591.767 324.622 592.343 333.045 593.319 333.043C594.296 333.047 610.803 329.087 611.171 329.597C611.54 330.112 616.615 336.2 617.326 326.885C618.039 317.57 595.043 323.349 591.767 324.622Z" fill="#3CC22E"/>
<path d="M543.01 280.775C540.744 282.873 538.857 286.676 545.196 291.404C549.577 294.674 552.835 288.659 552.835 288.659C552.835 288.659 548.472 275.71 543.01 280.775Z" fill="#FFDECF"/>
<path d="M546.846 290.872C546.846 290.872 548.876 292.105 549.287 293.67C549.71 295.239 554.247 293.092 554.9 292.004C555.552 290.917 552.456 290.747 551.728 287.109C551.066 283.841 546.846 290.872 546.846 290.872Z" fill="#FFDECF"/>
<path d="M549.026 293.825C548.844 293.599 549.195 293.372 549.43 293.564C550.299 294.261 551.68 293.643 552.534 293.297C553.646 292.837 554.887 292.289 554.542 291.078C554.524 291 554.644 290.949 554.717 290.992C556.043 291.769 554.159 293.018 553.346 293.416C552.246 293.961 550.022 295.052 549.026 293.825Z" fill="#3CC22E"/>
<path d="M539.692 284.296C539.692 284.296 540.834 288.287 545.373 288.814C549.912 289.345 549.204 291.816 550.67 291.501C552.145 291.187 555.939 289.511 555.717 286.499C555.411 282.321 548.931 274.976 543.737 277.707C538.548 280.439 538.969 282.826 539.692 284.296Z" fill="#291C6A"/>
<path d="M543.413 280.665C544.672 282.415 547.43 283.007 549.579 281.987C551.735 280.959 552.453 278.709 551.197 276.956C549.935 275.202 547.176 274.613 545.034 275.635C542.873 276.661 542.156 278.908 543.413 280.665Z" fill="#291C6A"/>
<path d="M546.656 316.66C549.581 312.367 545.222 306.041 545.142 302.483C545.079 299.827 547.072 298.331 549.199 298.249C555.992 297.992 559.453 313.736 553.352 319.744C549.873 323.174 542 323.901 537.898 323.526C537.903 322.691 538.117 321.86 538.37 321.153C540.961 320.867 544.193 320.253 546.656 316.66Z" fill="#3CC22E"/>
<path d="M556.477 311.823C556.426 314.289 555.528 316.864 554.386 318.515C552.534 317.222 551.925 313.592 556.477 311.823Z" fill="#3CC22E"/>
<path d="M576.308 334.611C576.308 334.611 577.57 338.205 573.902 342.682C573.902 342.682 591.613 344.629 591.686 345.218C591.76 345.81 593.251 353.071 598.672 344.849C604.092 336.628 580.164 335.489 576.308 334.611Z" fill="#3CC22E"/>
<path d="M538.31 292.906C533.216 287.789 534.177 280.251 540.461 276.1C546.741 271.944 555.992 272.731 561.092 277.848C566.188 282.964 565.229 290.506 558.943 294.661C552.667 298.811 543.411 298.024 538.31 292.906ZM539.215 292.31C543.903 297.022 552.427 297.747 558.21 293.925C563.993 290.103 564.883 283.158 560.189 278.444C555.494 273.731 546.972 273.011 541.191 276.833C535.408 280.656 534.525 287.598 539.215 292.31Z" fill="#291C6A"/>
<path opacity="0.5" d="M552.847 275.617C552.388 275.464 551.894 275.334 551.407 275.372C550.91 275.411 550.411 275.653 550.263 276.038C550.156 276.32 550.25 276.632 550.433 276.885C550.625 277.14 550.895 277.34 551.168 277.538C552.692 278.632 554.364 279.578 556.158 280.351C556.535 280.511 556.932 280.669 557.356 280.696C558.789 280.775 558.635 279.626 557.949 279.011C556.988 278.156 556.206 277.275 555.021 276.589C554.337 276.199 553.614 275.873 552.847 275.617Z" fill="white"/>
<path opacity="0.5" d="M558.67 283.27C558.45 283.132 558.317 282.906 558.264 282.682C558.208 282.454 558.231 282.222 558.293 281.992C558.361 281.702 558.529 281.377 558.877 281.287C559.646 281.1 560.077 281.915 560.159 282.386C560.272 283.058 559.51 283.809 558.67 283.27Z" fill="white"/>
<path d="M115.104 448.147L112.938 447.035L113.167 449.109L111.198 450.434L113.685 450.9L114.623 452.836L115.946 451.051L118.492 450.919L116.811 449.351L117.444 447.334L115.104 448.147Z" fill="#FFD438"/>
<path d="M619.687 213.089L617.521 211.977L617.752 214.051L615.783 215.376L618.268 215.842L619.207 217.778L620.529 215.993L623.075 215.861L621.395 214.293L622.028 212.275L619.687 213.089Z" fill="#FFD438"/>
<path d="M495.265 275.285L493.097 274.174L493.328 276.248L491.359 277.573L493.846 278.039L494.783 279.975L496.107 278.189L498.653 278.058L496.973 276.49L497.606 274.472L495.265 275.285Z" fill="#FFD438"/>
<path d="M606.134 310.998L603.968 309.884L604.197 311.959L602.228 313.284L604.715 313.75L605.653 315.686L606.976 313.9L609.522 313.769L607.841 312.202L608.474 310.185L606.134 310.998Z" fill="#FFD438"/>
<path d="M606.134 249.073L603.968 247.962L604.197 250.036L602.228 251.361L604.715 251.827L605.653 253.763L606.976 251.977L609.522 251.846L607.841 250.278L608.474 248.26L606.134 249.073Z" fill="#FFD438"/>
<path d="M589.858 278.238L587.982 277.275L588.181 279.072L586.475 280.219L588.629 280.622L589.442 282.299L590.587 280.752L592.792 280.638L591.336 279.282L591.884 277.534L589.858 278.238Z" fill="#FFD438"/>
<path d="M172.212 397.578L170.331 396.612L170.53 398.414L168.82 399.564L170.981 399.969L171.794 401.652L172.943 400.101L175.155 399.987L173.697 398.625L174.245 396.872L172.212 397.578Z" fill="#FFD438"/>
<path d="M154.676 435.708L151.529 434.089L151.862 437.107L148.998 439.034L152.617 439.713L153.979 442.529L155.902 439.931L159.605 439.742L157.161 437.46L158.079 434.527L154.676 435.708Z" fill="#FFD438"/>
<path d="M113.566 417.179L110.528 415.618L110.85 418.526L108.087 420.384L111.577 421.039L112.892 423.756L114.746 421.251L118.318 421.068L115.961 418.866L116.847 416.037L113.566 417.179Z" fill="#FFD438"/>
<path d="M328.538 463.408L326.372 462.296L326.603 464.37L324.632 465.695L327.119 466.161L328.057 468.097L329.379 466.312L331.925 466.181L330.245 464.612L330.878 462.596L328.538 463.408Z" fill="#FFD438"/>
<path d="M385.645 412.84L383.765 411.873L383.965 413.676L382.254 414.827L384.415 415.232L385.23 416.913L386.377 415.362L388.589 415.248L387.131 413.886L387.679 412.133L385.645 412.84Z" fill="#FFD438"/>
<path d="M368.11 450.969L364.963 449.35L365.296 452.369L362.432 454.296L366.051 454.974L367.412 457.791L369.335 455.192L373.039 455.003L370.595 452.721L371.513 449.788L368.11 450.969Z" fill="#FFD438"/>
<path d="M327 432.44L323.961 430.879L324.284 433.788L321.521 435.646L325.01 436.3L326.326 439.017L328.179 436.513L331.752 436.329L329.395 434.129L330.282 431.298L327 432.44Z" fill="#FFD438"/>
<path d="M182.985 450.611L182.941 448.526L180.938 449.817L178.499 449.202L179.381 451.152L177.906 452.853L180.464 452.775L181.994 454.439L182.684 452.435L185.101 451.76L182.985 450.611Z" fill="#FFD438"/>
<path d="M266.197 461.84L266.159 460.028L264.416 461.151L262.298 460.615L263.065 462.31L261.783 463.787L264.007 463.72L265.334 465.166L265.933 463.424L268.035 462.838L266.197 461.84Z" fill="#FFD438"/>
<path d="M217.435 470.772L217.373 467.739L214.456 469.621L210.908 468.722L212.195 471.561L210.048 474.032L213.768 473.92L215.992 476.34L216.997 473.425L220.512 472.445L217.435 470.772Z" fill="#FFD438"/>
<path d="M595.124 426.926L595.061 424L592.252 425.813L588.83 424.947L590.069 427.684L588 430.069L591.587 429.96L593.732 432.296L594.701 429.483L598.094 428.537L595.124 426.926Z" fill="#FFD438"/>
<path d="M392.702 341.057C385.407 344.587 371.159 353.191 373.817 355.391C376.47 357.594 378.867 358.117 377.763 356.503C376.662 354.889 376.781 354.701 377.307 354.374C380.595 352.29 388.876 350.119 394.352 347.689C400.7 344.875 399.079 337.976 392.702 341.057Z" fill="#F9B5A0"/>
<path d="M373.934 353.479C373.934 353.479 375.304 356.137 377.762 356.505C377.762 356.505 380.043 358.918 377.675 358.135C375.311 357.347 371.505 355.235 373.934 353.479Z" fill="#7585F8"/>
<path d="M389.149 324.346C392.556 325.829 395.861 327.514 399.025 329.327C399.733 329.73 400.856 329.997 401.35 330.615C401.948 331.371 402.004 332.765 402.172 333.649C402.572 335.78 402.654 337.969 402.134 340.091C400.797 345.573 395.207 348.763 389.401 351.042C387.696 351.709 385.969 352.331 384.246 352.97C384.246 352.97 380.079 351.701 378.745 348.344C380.111 347.379 381.472 346.411 382.835 345.444C384.042 344.587 385.398 343.88 386.505 342.933C387.739 341.873 388.009 340.891 388.085 339.48C388.25 336.714 387.114 333.907 384.93 331.782C384.202 331.075 383.373 330.446 382.698 329.712C382.024 328.973 381.496 328.099 381.523 327.18C381.525 326.969 381.564 326.745 381.737 326.585C381.925 326.409 382.09 326.503 382.299 326.456C382.55 326.397 382.762 326.362 383.052 326.221C383.662 325.917 384.276 325.607 384.887 325.299L389.149 324.346Z" fill="#077E48"/>
<path d="M398.393 345.938C400.194 344.33 401.566 342.427 402.134 340.093C402.447 338.808 402.523 337.504 402.462 336.201C397.808 337.853 396.436 342.334 398.393 345.938Z" fill="#3CC22E"/>
<path d="M386.608 342.845C386.608 342.845 388.124 346.771 393.4 349.269C393.4 349.269 379.366 356.48 379.6 356.989C379.838 357.504 382.217 364.026 373.622 358.996C365.016 353.974 383.567 344.016 386.608 342.845Z" fill="#077E48"/>
<path d="M366.065 334.046C358.413 331.053 341.728 326.18 340.949 329.204C340.168 332.22 340.975 334.134 342.007 332.49C343.042 330.853 343.297 330.828 343.928 331.001C347.886 332.074 354.691 336.486 360.214 338.843C366.612 341.581 372.756 336.651 366.065 334.046Z" fill="#F9B5A0"/>
<path d="M342.973 328.215C342.973 328.215 341.014 330.624 342.007 332.49C342.007 332.49 340.808 335.376 340.296 333.34C339.78 331.301 339.824 327.548 342.973 328.215Z" fill="#7585F8"/>
<path d="M391.928 329.712C391.699 330.554 390.792 331.039 389.8 331.818C387.494 333.635 385.106 335.374 382.635 337.037C380.359 338.573 377.967 340.065 375.185 340.888C370.251 342.347 364.814 340.57 360.138 338.982C359.792 338.862 352.267 335.369 349.042 334.019C349.042 334.019 347.946 330.078 350.633 327.308C350.909 327.022 357.451 329.113 358.016 329.262C359.939 329.768 361.822 330.369 363.697 330.918C365.447 331.429 367.197 330.84 368.64 329.915C371.543 328.051 373.291 324.776 377.28 323.08C387.357 318.786 390.713 322.734 390.838 322.833C391.217 323.125 391.183 324.71 391.256 325.121C391.487 326.371 391.716 327.622 391.947 328.875C392.004 329.199 391.994 329.468 391.928 329.712Z" fill="#3CC22E"/>
<path d="M365.879 340.705C368.98 341.449 372.174 341.78 375.182 340.887C377.1 340.321 378.833 339.425 380.472 338.426C375.087 337.51 369.822 336.997 365.879 340.705Z" fill="#3CC22E"/>
<path d="M362.735 330.637C362.735 330.637 359.739 334.021 360.136 338.984C360.136 338.984 344.795 333.288 344.398 333.736C344.008 334.177 338.709 339.435 339.013 330.814C339.323 322.194 359.841 329.235 362.735 330.637Z" fill="#3CC22E"/>
<path d="M406.851 312.761C407.218 311.952 409.236 309.992 412.154 310.457C416.07 311.076 422.35 315.261 427.552 313.794C432.748 312.315 433.432 309.348 434.204 307.409C434.989 305.458 434.172 304.383 434.781 303.292C435.393 302.207 436.947 302.847 436.623 306.202C436.458 307.816 436.859 315.835 431.069 318.52C423.484 322.037 404.723 317.511 406.851 312.761Z" fill="#077E48"/>
<path d="M427.552 313.794C422.352 315.261 416.07 311.076 412.154 310.457C409.236 309.992 407.218 311.952 406.851 312.761C404.723 317.511 423.484 322.037 431.071 318.52C435.398 316.51 436.263 311.523 436.499 308.459C435.571 308.338 434.624 308.36 433.806 308.435C433.082 310.281 431.901 312.556 427.552 313.794Z" fill="#3CC22E"/>
<path d="M402.53 329.647C407.269 326.585 411.113 321.099 412.692 316.554C414.875 310.237 408.503 307.164 404.236 305.911C399.968 304.663 393.031 302.482 390.832 310.461C389.292 316.024 385.94 318.399 381.028 322.349C380.895 322.452 380.773 322.535 380.639 322.637C380.635 322.629 380.63 322.618 380.63 322.618C380.63 322.623 380.635 322.629 380.639 322.637C374.275 326.479 397.159 333.129 402.53 329.647Z" fill="#3CC22E"/>
<path d="M408.99 302.839C408.99 302.839 408.698 306.039 405.573 306.379C402.375 306.727 408.464 314.5 409.273 312.929C410.321 310.894 409.905 309.209 412.57 307.549L408.99 302.839Z" fill="#EEBCA4"/>
<path d="M417.254 300.318C418.186 302.767 415.661 310.475 412.539 310.993C411.18 311.216 407.931 308.76 407.618 304.715C407.484 303.057 407.854 300.226 410.954 298.633C412.352 297.91 416.175 297.477 417.254 300.318Z" fill="#FFDECF"/>
<path d="M418.726 302.066C418.577 303.115 418.312 303.248 414.931 302.2C411.545 301.149 411.134 300.742 411.025 301.486C410.721 303.693 408.747 302.32 408.408 304.964C408.07 307.611 406.362 305.118 406.412 302.852C406.43 302.396 406.308 300.095 409.652 298.16C413.556 295.894 419.239 298.224 418.726 302.066Z" fill="#332385"/>
<path d="M380.539 321.556C376.193 323.883 387.703 330.688 396.715 330.599C398.437 329.344 392.542 327.693 390.772 325.755C386.695 321.283 405.118 324.807 402.348 322.909C399.364 320.859 394.118 320.335 397.633 316.728C401.136 313.123 402.236 311.545 401.316 308.477C399.435 302.222 392.882 305.376 391.577 308.499C391.295 309.079 391.027 309.71 390.828 310.461C389.29 316.024 385.447 317.608 380.539 321.556Z" fill="#077E48"/>
<path d="M405.6 312.602C398.689 308.725 396.935 300.997 401.691 295.364C406.446 289.735 415.937 288.305 422.847 292.181C429.756 296.052 431.507 303.785 426.753 309.414C421.999 315.046 412.507 316.474 405.6 312.602ZM422.162 292.991C415.8 289.424 407.063 290.737 402.686 295.92C398.305 301.105 399.918 308.222 406.284 311.791C412.646 315.358 421.379 314.044 425.76 308.857C430.137 303.675 428.525 296.559 422.162 292.991Z" fill="white"/>
<path opacity="0.5" d="M409.995 292.51C410.451 292.319 410.947 292.155 411.46 292.16C411.972 292.169 412.512 292.383 412.704 292.776C412.845 293.054 412.779 293.387 412.61 293.661C412.444 293.934 412.183 294.163 411.923 294.381C410.458 295.613 408.819 296.704 407.048 297.624C406.671 297.817 406.279 298.008 405.838 298.062C404.371 298.241 404.412 297.04 405.062 296.363C405.972 295.411 406.687 294.446 407.849 293.661C408.506 293.214 409.226 292.824 409.995 292.51Z" fill="white"/>
<path opacity="0.5" d="M404.735 300.811C404.952 300.65 405.069 300.412 405.101 300.175C405.127 299.936 405.083 299.695 405.001 299.464C404.901 299.166 404.696 298.842 404.327 298.773C403.509 298.632 403.144 299.505 403.114 299.997C403.063 300.695 403.92 301.423 404.735 300.811Z" fill="white"/>
<path d="M381.343 320.925C381.343 320.925 384.222 329.478 403.604 328.897L401.348 330.616C401.348 330.616 383.355 332.907 379.254 322.315L381.343 320.925Z" fill="#3CC22E"/>
<path d="M399.916 305.494C400.6 306.151 401.701 308.546 399.772 310.389C397.185 312.86 389.62 315.261 388.628 319.664C387.652 324.079 390.487 326.028 392.176 327.53C393.873 329.041 395.426 328.997 396.29 329.962C397.156 330.926 395.703 331.717 392.276 329.839C390.635 328.929 381.871 325.267 381.844 319.841C381.815 312.726 395.886 301.645 399.916 305.494Z" fill="#077E48"/>
<path d="M388.628 319.664C389.62 315.261 397.183 312.86 399.772 310.389C401.701 308.546 400.6 306.151 399.916 305.494C395.888 301.647 381.815 312.726 381.846 319.839C381.861 323.898 386.77 326.965 389.929 328.639C390.514 328.043 390.955 327.358 391.278 326.741C389.66 325.316 387.815 323.359 388.628 319.664Z" fill="#3CC22E"/>
</g>
<defs>
<linearGradient id="paint0_linear_1_3" x1="0.000707712" y1="242" x2="645.001" y2="242" gradientUnits="userSpaceOnUse">
<stop stop-color="#020B26"/>
<stop offset="1" stop-color="#020B26"/>
</linearGradient>
<clipPath id="clip0_1_3">
<rect width="645" height="484" fill="white"/>
</clipPath>
</defs>
</svg>
