<svg width="403" height="329" viewBox="0 0 403 329" fill="none" xmlns="http://www.w3.org/2000/svg">
<path d="M53.318 14.698C77.652 1.88399 101.77 4.54399 112.32 5.70799C137.086 8.43999 137.853 14.207 158.712 16.907C177.008 19.275 194.693 10.742 212.303 5.17899C229.912 -0.383008 251.378 -2.21001 264.683 10.736C277.595 23.3 277.347 44.388 286.781 59.805C298.086 78.282 321.304 85.451 342.735 86.409C354.056 86.915 365.839 86.19 376.237 90.754C389.602 96.621 398.294 110.589 401.039 125.086C403.784 139.582 401.348 154.591 397.529 168.835C393.92 182.296 388.993 195.58 381.034 206.96C369.3 223.737 351.534 235.622 340.719 253.022C328.083 273.349 325.437 300.332 307.552 316.101C288.194 333.169 258.413 330.129 234.575 320.509C210.737 310.889 188.824 295.715 163.64 290.74C138.252 285.725 112.146 291.579 86.2861 292.148C60.4271 292.717 31.4701 285.976 17.5671 263.87C12.6381 256.033 10.0741 246.935 7.9041 237.906C2.1741 214.065 -1.257 189.381 1.174 164.966C4.565 130.911 24.811 129.76 24.007 103.038C23.349 81.179 11.71 77.384 14.471 59.431C18.532 33.016 47.325 17.854 53.318 14.698Z" fill="#020B26"/>
<path d="M72.8769 37.568C72.8429 37.465 72.7859 37.375 72.7049 37.3C72.6299 37.219 72.54 37.161 72.437 37.128C72.338 37.076 72.2309 37.052 72.1159 37.056C72.0419 37.066 71.968 37.076 71.895 37.086C71.754 37.126 71.6309 37.197 71.5279 37.3C71.4849 37.356 71.4409 37.413 71.3979 37.469C71.3229 37.599 71.285 37.739 71.284 37.889V38.453C71.28 38.568 71.3039 38.675 71.3559 38.774C71.3899 38.877 71.4469 38.967 71.5279 39.042C71.6029 39.123 71.693 39.181 71.796 39.214C71.895 39.266 72.0019 39.29 72.1169 39.286C72.1909 39.276 72.265 39.266 72.338 39.256C72.479 39.216 72.6019 39.145 72.7049 39.042C72.7479 38.986 72.7919 38.93 72.8349 38.873C72.9099 38.743 72.9479 38.603 72.9489 38.453V37.889C72.9529 37.774 72.9289 37.667 72.8769 37.568Z" fill="#FEF3ED"/>
<path d="M52.939 94.588C51.867 94.588 51.866 96.254 52.939 96.254C54.011 96.254 54.012 94.588 52.939 94.588Z" fill="#FEF3ED"/>
<path d="M192.256 34.8C191.184 34.8 191.182 36.466 192.256 36.466C193.328 36.466 193.33 34.8 192.256 34.8Z" fill="#FEF3ED"/>
<path d="M141.493 245.186C140.421 245.186 140.419 246.852 141.493 246.852C142.565 246.852 142.567 245.186 141.493 245.186Z" fill="#FEF3ED"/>
<path d="M272.914 306.102C271.842 306.102 271.84 307.768 272.914 307.768C273.985 307.768 273.987 306.102 272.914 306.102Z" fill="#FEF3ED"/>
<path d="M371.62 121.662C370.548 121.662 370.546 123.328 371.62 123.328C372.692 123.327 372.694 121.662 371.62 121.662Z" fill="#FEF3ED"/>
<path d="M52.3749 236.726C51.3029 236.726 51.3009 238.392 52.3749 238.392C53.4469 238.391 53.4479 236.726 52.3749 236.726Z" fill="#FEF3ED"/>
<path d="M33.762 195.551C32.69 195.551 32.689 197.217 33.762 197.217C34.833 197.217 34.835 195.551 33.762 195.551Z" fill="#FEF3ED"/>
<path d="M277.99 80.487C276.918 80.487 276.916 82.153 277.99 82.153C279.062 82.153 279.064 80.487 277.99 80.487Z" fill="#FEF3ED"/>
<path d="M133.596 31.919C131.72 31.919 131.717 34.834 133.596 34.834C135.472 34.834 135.475 31.919 133.596 31.919Z" fill="#FEF3ED"/>
<path d="M39.1319 59.042C38.8769 58.253 38.14 57.855 37.339 58.024C36.493 58.202 35.895 59.083 35.912 59.925C35.93 60.785 36.4499 61.627 37.3249 61.836C37.7009 61.926 38.111 61.887 38.448 61.689C38.75 61.512 39.039 61.165 39.118 60.818C39.183 60.533 39.165 60.232 39.074 59.959C39.194 59.662 39.2279 59.336 39.1319 59.042Z" fill="#FEF3ED"/>
<path d="M89.504 76.905C89.226 76.65 88.862 76.461 88.473 76.478C88.086 76.495 87.721 76.626 87.442 76.905C87.254 77.093 87.0661 77.281 86.8781 77.469C86.6141 77.733 86.451 78.126 86.451 78.5C86.451 78.857 86.6101 79.285 86.8781 79.531C87.1561 79.786 87.5201 79.975 87.9091 79.958C88.2961 79.941 88.6609 79.81 88.9399 79.531C89.1279 79.343 89.316 79.155 89.504 78.967C89.768 78.703 89.931 78.31 89.931 77.937C89.931 77.578 89.772 77.151 89.504 76.905Z" fill="#FEF3ED"/>
<path d="M17.969 173.493C16.093 173.493 16.09 176.408 17.969 176.408C19.844 176.408 19.847 173.493 17.969 173.493Z" fill="#FEF3ED"/>
<path d="M24.173 228.769C22.297 228.769 22.294 231.684 24.173 231.684C26.049 231.684 26.052 228.769 24.173 228.769Z" fill="#FEF3ED"/>
<path d="M101.913 264.166C101.635 263.911 101.271 263.722 100.882 263.739C100.495 263.756 100.13 263.887 99.851 264.166C99.663 264.354 99.475 264.542 99.287 264.73C99.023 264.994 98.86 265.387 98.86 265.761C98.86 266.118 99.019 266.545 99.287 266.792C99.565 267.047 99.929 267.236 100.318 267.219C100.705 267.202 101.07 267.071 101.349 266.792L101.913 266.228C102.177 265.964 102.34 265.571 102.34 265.197C102.34 264.839 102.181 264.412 101.913 264.166Z" fill="#FEF3ED"/>
<path d="M172.719 268.583C172.66 268.402 172.56 268.246 172.418 268.114C172.286 267.972 172.13 267.871 171.949 267.813C171.775 267.722 171.588 267.68 171.387 267.687C171.258 267.704 171.129 267.722 171 267.739C170.753 267.808 170.539 267.933 170.357 268.114C170.281 268.212 170.205 268.311 170.129 268.409C169.997 268.636 169.931 268.882 169.93 269.145V269.494C169.922 269.695 169.964 269.882 170.055 270.055C170.114 270.236 170.214 270.392 170.356 270.524C170.488 270.666 170.644 270.766 170.825 270.825C170.999 270.916 171.186 270.958 171.387 270.951C171.516 270.934 171.645 270.916 171.775 270.899C172.022 270.83 172.236 270.705 172.418 270.524C172.494 270.426 172.57 270.327 172.646 270.229C172.778 270.002 172.844 269.756 172.845 269.493V269.144C172.852 268.944 172.81 268.757 172.719 268.583Z" fill="#FEF3ED"/>
<path d="M227.129 292.932C226.876 292.679 226.461 292.489 226.098 292.505C225.721 292.522 225.33 292.646 225.067 292.932C224.805 293.217 224.64 293.568 224.64 293.963V294.527C224.64 294.901 224.803 295.293 225.067 295.557C225.32 295.81 225.734 296 226.098 295.984C226.475 295.967 226.866 295.843 227.129 295.557C227.391 295.272 227.556 294.921 227.556 294.527V293.963C227.556 293.589 227.394 293.196 227.129 292.932Z" fill="#FEF3ED"/>
<path d="M288.911 165.928C288.852 165.747 288.752 165.591 288.61 165.459C288.478 165.317 288.322 165.216 288.141 165.158C287.967 165.067 287.78 165.025 287.579 165.032C287.45 165.049 287.321 165.067 287.192 165.084C286.945 165.153 286.731 165.278 286.549 165.459C286.473 165.557 286.397 165.656 286.321 165.754C286.189 165.981 286.123 166.227 286.122 166.49V166.839C286.114 167.04 286.156 167.227 286.247 167.4C286.306 167.581 286.406 167.737 286.548 167.869C286.68 168.011 286.836 168.112 287.017 168.17C287.191 168.261 287.378 168.303 287.579 168.296C287.708 168.279 287.837 168.261 287.966 168.244C288.213 168.175 288.427 168.05 288.609 167.869C288.685 167.771 288.761 167.672 288.837 167.574C288.969 167.347 289.035 167.101 289.036 166.838V166.489C289.044 166.289 289.002 166.102 288.911 165.928Z" fill="#FEF3ED"/>
<path d="M377.727 156.435C377.449 156.18 377.085 155.991 376.696 156.008C376.309 156.025 375.944 156.156 375.665 156.435C375.477 156.623 375.289 156.811 375.101 156.999C374.837 157.263 374.674 157.656 374.674 158.03C374.674 158.387 374.833 158.814 375.101 159.061C375.379 159.316 375.743 159.505 376.132 159.488C376.519 159.471 376.884 159.34 377.163 159.061C377.351 158.873 377.539 158.685 377.727 158.497C377.991 158.233 378.154 157.84 378.154 157.466C378.154 157.108 377.995 156.681 377.727 156.435Z" fill="#FEF3ED"/>
<path d="M253.172 41.89C248.885 41.89 248.878 48.553 253.172 48.553C257.46 48.553 257.467 41.89 253.172 41.89Z" fill="#FEF3ED"/>
<path d="M60.271 206.589C55.984 206.589 55.977 213.252 60.271 213.252C64.559 213.252 64.566 206.589 60.271 206.589Z" fill="#FEF3ED"/>
<path d="M64.22 67.836C59.933 67.836 59.926 74.499 64.22 74.499C68.507 74.499 68.514 67.836 64.22 67.836Z" fill="#FEF3ED"/>
<path d="M308.276 101.868C308.118 101.304 307.832 100.814 307.419 100.398C307.194 100.224 306.97 100.051 306.745 99.877C306.225 99.575 305.665 99.424 305.064 99.422H304.5C304.042 99.405 303.614 99.5 303.217 99.709C302.804 99.843 302.447 100.073 302.145 100.398C301.82 100.7 301.591 101.057 301.456 101.47C301.247 101.867 301.152 102.295 301.169 102.754C301.209 103.049 301.248 103.344 301.288 103.64C301.446 104.204 301.732 104.694 302.145 105.11C302.37 105.284 302.595 105.457 302.819 105.631C303.339 105.932 303.899 106.084 304.5 106.086H305.064C305.523 106.103 305.951 106.008 306.348 105.799C306.761 105.665 307.118 105.435 307.42 105.11C307.745 104.808 307.974 104.451 308.109 104.038C308.318 103.641 308.413 103.213 308.396 102.754C308.356 102.458 308.316 102.163 308.276 101.868Z" fill="#FEF3ED"/>
<path d="M268.933 224.669C269.017 223.315 269.254 219.488 266.838 217.785C265.037 216.516 262.714 217.099 260.776 217.586C259.548 217.894 254.946 219.05 254.065 222.478C253.795 223.529 253.956 224.476 254.116 225.073C253.477 225.446 251.892 226.492 251.025 228.53C249.661 231.737 251.239 234.668 251.48 235.098C251.874 235.801 252.743 237.352 254.471 237.985C256.605 238.766 258.721 237.661 260.264 236.827C261.141 236.352 268.465 232.243 268.933 224.669Z" fill="#FEF3ED"/>
<path d="M267.288 233.277L276.564 238.509L280.456 229.579L268.138 225.697L267.288 233.277Z" fill="#FD9E8A"/>
<path d="M273.161 227.28L268.138 225.697L267.288 233.277L268.859 234.163C271.238 232.657 272.524 230.029 273.161 227.28Z" fill="#020B26"/>
<path d="M264.523 248.625C262.678 248.625 260.804 248.348 258.953 247.764C249.189 244.686 243.748 234.238 246.825 224.473C249.903 214.708 260.351 209.269 270.116 212.345C274.846 213.836 278.713 217.08 281.003 221.479C283.293 225.878 283.734 230.906 282.243 235.636C279.749 243.551 272.413 248.625 264.523 248.625ZM264.546 212.319C257.009 212.319 250.003 217.164 247.62 224.724C244.68 234.05 249.877 244.03 259.204 246.97C268.532 249.911 278.51 244.713 281.45 235.387C282.874 230.869 282.454 226.067 280.266 221.865C278.078 217.663 274.385 214.565 269.867 213.141C268.099 212.584 266.308 212.319 264.546 212.319Z" fill="#FEF3ED"/>
<path d="M352.81 184.096C345.28 193.497 323.051 217.793 321.492 219.078C319.617 220.62 307.396 239.108 301.61 241.207C295.824 243.306 291.647 244.354 291.647 244.354C291.647 244.354 297.442 253.767 300.602 260.398C301.803 262.91 302.622 265.02 302.608 266.071C302.601 266.622 302.418 267.229 302.095 267.862C300.189 271.622 293.509 276.399 290.966 277.425C287.992 278.619 282.261 280.616 282.261 280.616L279.07 277.061L288.501 265.524C288.501 265.524 277.85 254.008 276.83 251.647C275.815 249.288 275.201 237.76 275.201 237.76L276.331 227.858C276.291 227.411 279.081 215.867 279.671 215.055C280.262 214.24 275.717 208.045 274.774 204.97C273.829 201.89 274.165 196.107 274.165 196.107C274.165 196.107 265.443 193.873 263.041 192.549C260.642 191.23 257.977 188.062 257.977 188.062L258.646 183.737C258.646 183.737 268.231 183.889 270.594 184.761C271.974 185.272 274.826 186.35 277.15 187.346C278.806 188.058 280.19 188.724 280.572 189.109C280.73 189.268 281.074 189.859 281.53 190.725C283.746 194.881 288.667 205.408 288.667 205.408C288.667 205.408 293.71 201.746 294.578 200.167C295.447 198.584 301.115 182.661 302.979 178.797C304.846 174.933 312.49 165.243 312.49 165.243C312.49 165.243 308.03 158.16 307.424 154.225C306.818 150.289 307.899 138.021 307.899 138.021L314.653 135.56C314.653 135.56 321.003 149.484 324.665 158.103C326.05 161.364 327.048 163.865 327.179 164.57C327.25 164.961 327.044 166.008 326.637 167.507C324.391 175.84 316.053 198.075 316.053 198.075C316.053 198.075 328.241 185.736 331.161 183.225C334.085 180.715 340.684 177.14 340.684 177.14C340.684 177.14 338.767 169.396 338.9 165.869C339.039 162.34 342.375 149.253 342.375 149.253L348.244 148.877C348.244 148.877 352.122 164.676 354.12 173.992C354.853 177.397 355.334 179.938 355.283 180.53C355.254 180.906 354.332 182.193 352.81 184.096Z" fill="#FEF3ED"/>
<path d="M281.27 274.371C279.334 276.318 277.397 278.264 275.461 280.211C275.461 280.211 268.67 282.545 268.466 283.641C268.262 284.737 272.618 283.604 272.524 284.312C272.43 285.019 266.188 289.5 266.37 289.971C266.552 290.442 266.958 291.166 267.54 291.182C268.121 291.198 272.376 287.258 272.376 287.258C272.376 287.258 268.532 291.785 268.617 292.228C268.702 292.671 270.002 293.824 270.625 293.475C271.248 293.126 273.789 288.756 273.789 288.756C273.789 288.756 271.5 293.721 272.125 294.106C272.75 294.492 273.881 294.758 274.17 294.105C274.459 293.452 275.64 288.7 276.118 288.677C276.596 288.654 274.964 293.04 275.599 293.444C276.234 293.848 277.572 293.753 277.444 293.088C277.317 292.423 278.022 288.428 278.229 288.067C278.436 287.706 280.308 286.084 280.305 285.349C280.302 284.614 280.493 283.92 280.493 283.92C282.46 282.329 284.427 280.737 286.394 279.146C284.686 277.554 282.978 275.963 281.27 274.371Z" fill="#3CC22E"/>
<path d="M260.171 190.352C257.84 189.263 255.508 188.174 253.177 187.085C253.177 187.085 246.024 186.458 245.562 185.443C245.1 184.429 249.6 184.477 249.338 183.813C249.076 183.149 241.937 180.306 242 179.806C242.063 179.305 242.283 178.504 242.843 178.348C243.404 178.192 248.483 180.989 248.483 180.989C248.483 180.989 243.661 177.523 243.636 177.072C243.611 176.621 244.596 175.189 245.284 175.378C245.972 175.566 249.492 179.194 249.492 179.194C249.492 179.194 246.073 174.928 246.587 174.403C247.101 173.878 248.134 173.347 248.572 173.911C249.01 174.475 251.302 178.802 251.771 178.709C252.241 178.616 249.599 174.753 250.118 174.208C250.637 173.663 251.958 173.433 251.995 174.109C252.032 174.785 253.68 178.492 253.968 178.793C254.256 179.094 256.464 180.216 256.638 180.93C256.813 181.644 257.165 182.271 257.165 182.271C259.458 182.685 261.751 183.099 264.045 183.514C262.754 185.793 261.463 188.073 260.171 190.352Z" fill="#3CC22E"/>
<path d="M307.678 140.835L304.869 130.936C304.869 130.936 302.592 129.493 302.342 128.204C302.091 126.915 301.907 125.854 301.907 125.854C301.907 125.854 319.141 115.795 319.18 117.12C319.219 118.445 319.682 119.698 318.172 121.747C316.662 123.795 312.813 129.402 312.813 129.402L315.695 137.847L307.678 140.835Z" fill="#3CC22E"/>
<path d="M341.354 151.528L341.526 141.239C341.526 141.239 339.764 139.199 339.896 137.893C340.029 136.586 340.159 135.518 340.159 135.518C340.159 135.518 359.565 130.871 359.219 132.15C358.873 133.429 358.954 134.763 356.917 136.288C354.88 137.812 349.574 142.067 349.574 142.067L349.891 150.984L341.354 151.528Z" fill="#3CC22E"/>
<path d="M269.031 224.104C271.896 227.661 271.335 232.868 267.778 235.733C264.221 238.598 259.014 238.038 256.149 234.48C253.284 230.923 253.844 225.716 257.402 222.851C260.959 219.986 266.166 220.547 269.031 224.104Z" fill="#FD9E8A"/>
<path d="M260.495 233.461C260.758 233.533 260.912 233.805 260.84 234.067C260.768 234.33 260.496 234.484 260.233 234.412C259.97 234.34 259.816 234.068 259.888 233.805C259.961 233.544 260.233 233.389 260.495 233.461Z" fill="#020B26"/>
<path d="M261.666 229.206C261.929 229.278 262.083 229.55 262.011 229.813C261.939 230.076 261.667 230.23 261.404 230.158C261.141 230.086 260.987 229.814 261.059 229.551C261.131 229.288 261.403 229.134 261.666 229.206Z" fill="#020B26"/>
<path d="M266.289 220.067C267.495 220.399 268.205 221.646 267.873 222.852C267.541 224.059 266.294 224.768 265.088 224.436C263.881 224.104 263.172 222.857 263.504 221.651C263.836 220.444 265.083 219.735 266.289 220.067Z" fill="#FD9E8A"/>
<path d="M265.276 221.034C265.014 221.699 265.152 222.469 265.588 223.026C265.682 223.146 265.911 223.083 265.938 222.936C265.99 222.643 266.146 222.375 266.4 222.206C266.493 222.143 266.537 222.025 266.478 221.922C266.425 221.83 266.288 221.781 266.194 221.844C265.982 221.986 265.812 222.181 265.693 222.403C265.525 222.009 265.52 221.548 265.678 221.145C265.719 221.04 265.633 220.917 265.532 220.889C265.413 220.856 265.317 220.929 265.276 221.034Z" fill="#020B26"/>
<path d="M258.756 233.179C258.64 233.184 258.552 233.271 258.548 233.387C258.531 233.897 258.646 234.403 258.871 234.86C258.919 234.958 259.064 234.995 259.155 234.938C259.255 234.875 259.285 234.759 259.233 234.654C259.208 234.604 259.185 234.554 259.163 234.503C259.162 234.499 259.16 234.495 259.158 234.491C259.152 234.476 259.146 234.461 259.141 234.446C259.131 234.42 259.122 234.394 259.113 234.368C259.076 234.26 259.045 234.149 259.021 234.037C259.009 233.983 258.999 233.928 258.991 233.873C258.989 233.861 258.987 233.848 258.986 233.836C258.986 233.832 258.985 233.827 258.984 233.823C258.981 233.795 258.978 233.768 258.975 233.74C258.965 233.622 258.962 233.504 258.966 233.386C258.968 233.278 258.866 233.174 258.756 233.179Z" fill="#020B26"/>
<path d="M260.777 227.565C260.135 227.784 259.626 228.307 259.435 228.96C259.404 229.068 259.473 229.186 259.581 229.216C259.691 229.246 259.805 229.179 259.837 229.07C259.983 228.569 260.386 228.136 260.884 227.966C260.99 227.93 261.062 227.825 261.031 227.711C261.005 227.609 260.884 227.528 260.777 227.565Z" fill="#020B26"/>
<path d="M264.452 232.387C264.163 232.664 263.875 232.943 263.585 233.219C263.379 233.415 263.109 233.678 262.8 233.655C262.453 233.63 262.234 233.25 262.058 232.995C261.818 232.649 261.578 232.302 261.338 231.956C261.186 231.737 260.823 231.941 260.976 232.162C261.252 232.56 261.524 232.961 261.803 233.356C262.037 233.688 262.32 234.025 262.752 234.068C263.126 234.105 263.458 233.888 263.727 233.653C264.079 233.347 264.407 233.008 264.743 232.685C264.937 232.499 264.646 232.201 264.452 232.387Z" fill="#020B26"/>
<path d="M267.171 230.263C267.087 230.345 267.093 230.473 267.167 230.557C267.339 230.752 267.462 230.996 267.526 231.257C267.589 231.514 267.588 231.788 267.526 232.04C267.499 232.149 267.561 232.266 267.672 232.296C267.779 232.325 267.901 232.26 267.928 232.15C268.092 231.489 267.916 230.777 267.466 230.266C267.391 230.182 267.248 230.188 267.171 230.263Z" fill="#020B26"/>
<path d="M252.987 221.214L252.288 220.763C253.14 219.442 255.071 217.032 258.419 215.742C260.338 215.002 262.449 214.744 264.521 214.997L264.42 215.823C263.069 215.659 260.984 215.646 258.719 216.519C255.59 217.725 253.784 219.979 252.987 221.214Z" fill="#FEF3ED"/>
<path d="M263.162 245.849C260.567 245.849 258.53 244.924 257.446 244.295L257.864 243.574C259.082 244.281 261.601 245.389 264.754 244.89C267.007 244.531 268.666 243.49 269.661 242.68L270.187 243.326C269.112 244.201 267.32 245.325 264.885 245.713C264.289 245.808 263.713 245.849 263.162 245.849Z" fill="#FEF3ED"/>
<path d="M291.582 244.55C291.468 244.512 280.026 240.758 275.826 244.533L275.548 244.223C277.396 242.563 280.685 242.049 285.324 242.696C288.751 243.175 291.685 244.145 291.714 244.155L291.582 244.55Z" fill="#020B26"/>
<path d="M277.007 251.759L276.657 251.533C278.024 249.424 281.199 247.921 286.095 247.067C289.715 246.435 292.984 246.412 293.017 246.412L293.019 246.828C292.89 246.829 280.125 246.948 277.007 251.759Z" fill="#020B26"/>
<path d="M288.631 265.685L288.372 265.359C288.7 265.098 296.46 258.976 300.156 259.24L300.126 259.656C296.6 259.387 288.71 265.622 288.631 265.685Z" fill="#020B26"/>
<path d="M300.961 269.55C297.776 266.526 288.11 267.253 288.011 267.26L287.979 266.845C288.384 266.812 297.928 266.096 301.248 269.247L300.961 269.55Z" fill="#020B26"/>
<path d="M279.179 217.105L278.786 216.967C278.818 216.876 282.047 207.874 288.591 205.217L288.756 205.15L290.922 208.726L290.566 208.942L288.585 205.671C282.324 208.34 279.21 217.016 279.179 217.105Z" fill="#020B26"/>
<path d="M278.914 212.597L278.546 212.401C278.578 212.341 281.817 206.35 287.348 204.061L287.507 204.446C282.113 206.678 278.945 212.538 278.914 212.597Z" fill="#020B26"/>
<path d="M273.96 196.137C273.92 195.862 273.013 189.369 275.875 186.824L276.151 187.135C273.457 189.531 274.363 196.012 274.372 196.077L273.96 196.137Z" fill="#020B26"/>
<path d="M274.285 198.2L273.935 197.975C274.129 197.674 278.72 190.607 281.998 191.32L281.909 191.727C278.914 191.066 274.331 198.129 274.285 198.2Z" fill="#020B26"/>
<path d="M282.533 236.733L281.762 219.66L285.914 216.618L286.462 232.994L282.533 236.733Z" fill="#3CC22E"/>
<path d="M305.228 238.532C305.215 238.382 303.975 223.509 302.149 217.673C300.33 211.859 292.215 202.786 292.133 202.695L292.443 202.417C292.525 202.508 300.7 211.649 302.547 217.549C304.386 223.429 305.631 238.348 305.643 238.498L305.228 238.532Z" fill="#020B26"/>
<path d="M307.638 236.079C307.633 235.95 307.083 223.115 304.613 216.453C302.147 209.8 293.895 201.204 293.812 201.118L294.111 200.828C294.195 200.915 302.507 209.574 305.003 216.308C307.496 223.032 308.049 235.932 308.054 236.062L307.638 236.079Z" fill="#020B26"/>
<path d="M295.463 198.48L295.296 198.099C295.426 198.042 308.405 192.456 316.443 196.709L316.248 197.077C308.39 192.917 295.591 198.424 295.463 198.48Z" fill="#020B26"/>
<path d="M317.04 195.258C307.827 188.389 297.433 193.583 297.329 193.637L297.139 193.267C297.246 193.212 307.865 187.896 317.289 194.925L317.04 195.258Z" fill="#020B26"/>
<path d="M319.807 221.363L319.398 221.283C322.518 205.263 317.434 196.752 317.382 196.668L317.737 196.45C317.789 196.535 322.96 205.169 319.807 221.363Z" fill="#020B26"/>
<path d="M324.82 215.884L324.406 215.842C325.526 204.798 318.656 195.575 318.587 195.483L318.919 195.232C318.99 195.325 325.957 204.673 324.82 215.884Z" fill="#020B26"/>
<path d="M311.668 163.769L311.371 163.477C311.391 163.457 313.358 161.467 315.933 159.736C319.425 157.388 322.316 156.605 324.523 157.41L324.381 157.801C319.4 155.986 311.745 163.691 311.668 163.769Z" fill="#020B26"/>
<path d="M325.592 170.543C323.489 166.266 312.022 166.199 311.907 166.198L311.908 165.782C312.39 165.783 323.75 165.851 325.966 170.359L325.592 170.543Z" fill="#020B26"/>
<path d="M340.479 176.011L340.276 175.647C340.71 175.405 350.94 169.763 353.859 172.026L353.604 172.355C350.899 170.259 340.583 175.953 340.479 176.011Z" fill="#020B26"/>
<path d="M350.821 186.335C349.471 181.45 339.977 177.773 339.881 177.737L340.03 177.348C340.429 177.5 349.817 181.138 351.223 186.224L350.821 186.335Z" fill="#020B26"/>
<path d="M357.301 131.812L340.897 136.05L341.001 136.452L357.405 132.215L357.301 131.812Z" fill="#020B26"/>
<path d="M317.228 117.396L303.254 126.856L303.487 127.201L317.461 117.741L317.228 117.396Z" fill="#020B26"/>
<path d="M302.094 267.861C300.054 266.776 298.166 264.773 298.454 263.008C298.617 262.015 299.476 261.047 300.601 260.397C301.802 262.909 302.621 265.019 302.607 266.07C302.601 266.622 302.417 267.229 302.094 267.861Z" fill="#3CC22E"/>
<path d="M281.531 190.726C279.75 191.36 277.631 191.431 276.972 190.57C276.495 189.947 276.588 188.589 277.151 187.347C278.807 188.059 280.191 188.725 280.573 189.11C280.731 189.269 281.075 189.859 281.531 190.726Z" fill="#3CC22E"/>
<path d="M352.81 184.096C350.517 181.787 348.67 178.348 349.708 176.271C350.358 174.969 352.191 174.107 354.123 173.994C354.856 177.399 355.337 179.94 355.286 180.532C355.254 180.906 354.332 182.193 352.81 184.096Z" fill="#3CC22E"/>
<path d="M326.638 167.508C323.805 166.125 320.818 163.221 321.27 161.051C321.528 159.811 322.943 158.641 324.666 158.104C326.051 161.365 327.049 163.866 327.18 164.571C327.251 164.961 327.045 166.009 326.638 167.508Z" fill="#3CC22E"/>
<path d="M280.566 255.472L287.281 251.675L290.45 257.066L284.067 259.881L280.566 255.472Z" fill="#020B26"/>
<path d="M257.347 221.735C258.111 221.995 257.826 224.673 257.493 227.796C257.235 230.218 256.592 236.241 255.317 236.299C254.296 236.345 252.773 232.575 253.16 228.969C253.59 224.939 256.376 221.405 257.347 221.735Z" fill="#FEF3ED"/>
<path d="M256.239 232.064L255.91 231.808C255.944 231.765 259.282 227.478 259.738 225.929C260.172 224.454 257.994 221.994 257.972 221.969L258.283 221.692C258.379 221.8 260.636 224.35 260.137 226.047C259.66 227.671 256.378 231.885 256.239 232.064Z" fill="#FEF3ED"/>
<path d="M261.338 222.634C259.665 222.634 257.081 221.899 256.721 221.794L256.837 221.394C258.035 221.743 261.342 222.545 262.239 222.077C263.347 221.498 264.833 219.31 264.848 219.288L265.193 219.521C265.13 219.614 263.633 221.818 262.432 222.446C262.176 222.58 261.79 222.634 261.338 222.634Z" fill="#FEF3ED"/>
<path d="M254.261 234.857C253.787 234.857 252.074 234.782 250.969 233.752C249.699 232.567 249.376 228.826 250.383 226.966C251.366 225.151 254.318 224.617 254.443 224.596L254.515 225.006C254.487 225.011 251.635 225.528 250.749 227.165C249.831 228.862 250.113 232.385 251.253 233.448C252.394 234.511 254.349 234.443 254.366 234.439L254.384 234.855C254.373 234.855 254.33 234.857 254.261 234.857Z" fill="#FEF3ED"/>
<path d="M130.253 65.659L116.303 72.74L112.006 64.274C111.243 62.771 111.843 60.934 113.346 60.171L121.853 55.853C123.356 55.09 125.193 55.69 125.956 57.193L130.253 65.659Z" fill="#24841A"/>
<path d="M103.666 97.4C103.666 97.4 101.9 76.178 120.287 66.239C138.675 56.3 154.839 71.426 154.839 71.426L103.666 97.4Z" fill="#3CC22E"/>
<path d="M193.671 194.141L182.706 199.707L188.272 210.672L199.237 205.106L193.671 194.141Z" fill="#3CC22E"/>
<path d="M207.309 192.621L172.636 210.22C166.509 213.33 159.021 210.884 155.911 204.757L100.999 96.57L157.861 67.709L212.773 175.896C215.882 182.023 213.437 189.512 207.309 192.621Z" fill="#24841A"/>
<path d="M166.293 248.516C164.866 231.044 174.788 213.825 191.209 205.227C208.022 196.423 228.382 198.366 241.966 210.107C216.741 222.91 191.517 235.713 166.293 248.516Z" fill="#3CC22E"/>
<path d="M206.889 227.892L204.11 229.302L211.922 244.693L214.701 243.282L206.889 227.892Z" fill="#24841A"/>
<path d="M220.498 245.564C221.845 248.219 220.669 251.522 217.871 252.943C215.073 254.363 211.712 253.363 210.364 250.708C209.016 248.053 210.193 244.75 212.991 243.329C215.79 241.909 219.151 242.909 220.498 245.564Z" fill="#F5D778"/>
<path d="M110.831 115.971L101.426 120.745L103.695 125.216L113.1 120.441L110.831 115.971Z" fill="#FEF3ED"/>
<path d="M150.531 194.193L141.125 198.968L143.725 204.089L153.13 199.314L150.531 194.193Z" fill="#FEF3ED"/>
<path d="M176.209 80.9914L166.803 85.7654L169.073 90.2364L178.478 85.4624L176.209 80.9914Z" fill="#FEF3ED"/>
<path d="M215.912 159.22L206.506 163.994L209.105 169.115L218.511 164.341L215.912 159.22Z" fill="#FEF3ED"/>
<path d="M93.9682 106.054L37.8276 134.549L93.803 244.83L149.943 216.335L93.9682 106.054Z" fill="#FEF3ED"/>
<path d="M57.05 131.432L45.8726 137.106L51.5459 148.283L62.7234 142.61L57.05 131.432Z" fill="#3CC22E"/>
<path d="M74.1658 122.745L62.9884 128.418L68.6617 139.596L79.8391 133.922L74.1658 122.745Z" fill="#3CC22E"/>
<path d="M90.9958 114.203L79.8184 119.876L85.4917 131.054L96.6692 125.38L90.9958 114.203Z" fill="#3CC22E"/>
<path d="M66.1716 149.047L54.9941 154.721L60.6675 165.898L71.845 160.225L66.1716 149.047Z" fill="#3CC22E"/>
<path d="M83.2877 140.36L72.1102 146.034L77.7836 157.211L88.9611 151.538L83.2877 140.36Z" fill="#3CC22E"/>
<path d="M100.119 131.826L88.9419 137.499L94.6152 148.676L105.793 143.003L100.119 131.826Z" fill="#3CC22E"/>
<path d="M75.2925 166.663L64.115 172.336L69.7883 183.514L80.9658 177.841L75.2925 166.663Z" fill="#3CC22E"/>
<path d="M92.4087 157.976L81.2312 163.65L86.9045 174.827L98.082 169.154L92.4087 157.976Z" fill="#3CC22E"/>
<path d="M109.238 149.434L98.0607 155.107L103.734 166.284L114.911 160.611L109.238 149.434Z" fill="#3CC22E"/>
<path d="M84.4135 184.279L73.236 189.953L78.9093 201.13L90.0868 195.457L84.4135 184.279Z" fill="#3CC22E"/>
<path d="M101.53 175.591L90.3527 181.264L96.026 192.442L107.203 186.769L101.53 175.591Z" fill="#3CC22E"/>
<path d="M118.359 167.049L107.182 172.723L112.855 183.9L124.032 178.227L118.359 167.049Z" fill="#3CC22E"/>
<path d="M93.5352 201.895L82.3578 207.568L88.0311 218.746L99.2085 213.072L93.5352 201.895Z" fill="#3CC22E"/>
<path d="M110.651 193.207L99.4735 198.88L105.147 210.058L116.324 204.385L110.651 193.207Z" fill="#3CC22E"/>
<path d="M127.481 184.665L116.303 190.339L121.977 201.516L133.154 195.843L127.481 184.665Z" fill="#3CC22E"/>
<path d="M102.656 219.511L91.4786 225.184L97.152 236.362L108.329 230.688L102.656 219.511Z" fill="#3CC22E"/>
<path d="M119.773 210.823L108.595 216.496L114.269 227.674L125.446 222L119.773 210.823Z" fill="#3CC22E"/>
<path d="M136.602 202.281L125.424 207.955L131.098 219.132L142.275 213.459L136.602 202.281Z" fill="#3CC22E"/>
<path d="M225.512 39.0269L169.371 67.5222L225.347 177.803L281.487 149.308L225.512 39.0269Z" fill="#FEF3ED"/>
<path d="M188.595 64.4047L177.417 70.078L183.091 81.2555L194.268 75.5821L188.595 64.4047Z" fill="#3CC22E"/>
<path d="M205.71 55.7171L194.533 61.3904L200.206 72.5679L211.384 66.8946L205.71 55.7171Z" fill="#3CC22E"/>
<path d="M222.541 47.175L211.363 52.8484L217.036 64.0258L228.214 58.3525L222.541 47.175Z" fill="#3CC22E"/>
<path d="M197.716 82.0208L186.538 87.6941L192.212 98.8716L203.389 93.1983L197.716 82.0208Z" fill="#3CC22E"/>
<path d="M214.83 73.3287L203.653 79.002L209.326 90.1795L220.503 84.5061L214.83 73.3287Z" fill="#3CC22E"/>
<path d="M231.661 64.7911L220.484 70.4645L226.157 81.6419L237.335 75.9686L231.661 64.7911Z" fill="#3CC22E"/>
<path d="M206.837 99.6355L195.66 105.309L201.333 116.486L212.511 110.813L206.837 99.6355Z" fill="#3CC22E"/>
<path d="M223.953 90.9487L212.776 96.622L218.449 107.799L229.627 102.126L223.953 90.9487Z" fill="#3CC22E"/>
<path d="M240.783 82.4067L229.606 88.08L235.279 99.2575L246.457 93.5842L240.783 82.4067Z" fill="#3CC22E"/>
<path d="M215.958 117.251L204.781 122.925L210.454 134.102L221.631 128.429L215.958 117.251Z" fill="#3CC22E"/>
<path d="M233.074 108.565L221.897 114.238L227.57 125.416L238.748 119.742L233.074 108.565Z" fill="#3CC22E"/>
<path d="M249.904 100.022L238.726 105.695L244.4 116.873L255.577 111.199L249.904 100.022Z" fill="#3CC22E"/>
<path d="M225.079 134.867L213.902 140.541L219.575 151.718L230.752 146.045L225.079 134.867Z" fill="#3CC22E"/>
<path d="M242.196 126.179L231.018 131.853L236.692 143.03L247.869 137.357L242.196 126.179Z" fill="#3CC22E"/>
<path d="M259.025 117.638L247.847 123.311L253.521 134.489L264.698 128.815L259.025 117.638Z" fill="#3CC22E"/>
<path d="M234.201 152.483L223.023 158.156L228.697 169.334L239.874 163.66L234.201 152.483Z" fill="#3CC22E"/>
<path d="M251.317 143.795L240.139 149.469L245.812 160.646L256.99 154.973L251.317 143.795Z" fill="#3CC22E"/>
<path d="M268.146 135.253L256.969 140.927L262.642 152.104L273.82 146.431L268.146 135.253Z" fill="#3CC22E"/>
<path d="M174.461 100.853L117.763 129.631L125.417 144.71L182.114 115.932L174.461 100.853Z" fill="#3CC22E"/>
<path d="M184.336 120.307L127.638 149.085L131.256 156.213L187.954 127.435L184.336 120.307Z" fill="#3CC22E"/>
<path d="M150.542 77.0845L145.412 79.6883L182.213 152.192L187.342 149.588L150.542 77.0845Z" fill="#3CC22E"/>
<path d="M193.233 161.194L188.103 163.798L198.716 184.708L203.846 182.105L193.233 161.194Z" fill="#3CC22E"/>
<path d="M216.267 273.566C208.762 273.566 203.156 269.194 202.858 268.957L203.636 267.979C203.995 268.264 212.549 274.931 222.524 271.173C229.857 268.41 232.837 261.938 233.576 260.02L234.742 260.469C233.956 262.509 230.785 269.396 222.965 272.342C220.633 273.221 218.374 273.566 216.267 273.566Z" fill="#CBC3E0"/>
<path d="M216.018 264.016C210.921 264.016 207.205 261.135 206.716 260.738L207.505 259.769C208.053 260.215 213.043 264.077 219.336 262.307C224.383 260.889 226.789 256.833 227.407 255.624L228.52 256.192C227.844 257.516 225.209 261.955 219.675 263.51C218.399 263.868 217.173 264.016 216.018 264.016Z" fill="#CBC3E0"/>
</svg>
