<svg width="556" height="500" viewBox="0 0 556 500" fill="none" xmlns="http://www.w3.org/2000/svg">
<g clip-path="url(#clip0_1_248)">
<rect width="556" height="500" fill="#020B26"/>
<path d="M556 382.398H0V382.648H556V382.398Z" fill="#EBEBEB"/>
<path d="M500.29 398.494H463.458V398.744H500.29V398.494Z" fill="#EBEBEB"/>
<path d="M368.317 401.208H358.65V401.458H368.317V401.208Z" fill="#EBEBEB"/>
<path d="M462.345 389.208H441.004V389.458H462.345V389.208Z" fill="#EBEBEB"/>
<path d="M106.365 390.888H58.3344V391.138H106.365V390.888Z" fill="#EBEBEB"/>
<path d="M123.309 390.888H116.266V391.138H123.309V390.888Z" fill="#EBEBEB"/>
<path d="M250.363 395.111H146.196V395.361H250.363V395.111Z" fill="#EBEBEB"/>
<path d="M146.864 382.396H501.948C501.948 382.396 490.995 367.226 481.865 355.066C476.083 347.376 471.045 340.886 469.956 340.186C467.153 338.386 459.959 337.306 456.756 330.636C453.565 323.956 453.565 321.126 448.983 313.576C444.413 306.026 426.766 285.526 424.909 285.576C423.04 285.626 407.172 263.236 401.078 261.436C394.974 259.636 394.384 254.246 387.857 246.156C381.34 238.066 359.59 212.166 350.393 211.566C341.197 210.956 318.679 249.906 309.972 252.806C301.254 255.696 291.613 243.096 288.533 246.156C285.453 249.216 279.214 260.716 272.865 270.066C266.504 279.416 260.11 283.726 259.543 287.266C258.976 290.806 246.032 297.036 239.583 297.036C237.403 297.036 232.677 301.396 227.362 307.176C227.34 307.196 227.328 307.206 227.328 307.206C216.953 318.496 204.377 335.156 204.377 335.156C202.653 337.406 199.64 334.076 194.447 335.866C189.242 337.666 146.864 382.396 146.864 382.396Z" fill="#F0F0F0"/>
<path d="M146.864 382.396H501.948C501.948 382.396 490.995 367.226 481.865 355.066C476.572 349.816 472.324 345.886 470.712 345.056C464.918 342.096 460.426 335.246 456.934 334.376C453.431 333.506 449.295 330.636 449.295 330.636C449.295 330.636 443.879 315.386 442.567 312.696C441.255 310.006 424.964 293.236 421.306 292.046C417.647 290.856 415.279 294.816 413.099 296.976C410.908 299.136 394.206 326.066 394.206 326.066L383.609 319.736C383.609 319.736 377.448 312.616 375.102 309.056C372.756 305.496 370.487 306.286 370.487 306.286C370.487 306.286 359.412 294.816 358.833 291.726C358.255 288.636 351.494 290.066 351.005 290.066C350.505 290.066 339.529 294.816 339.529 294.816C339.529 294.816 351.061 281.766 355.931 285.286C360.802 288.816 388.446 312.696 388.446 312.696L404.203 294.816L396.808 285.286C396.808 285.286 386.689 273.846 385.811 272.266C384.932 270.686 367.774 248.926 367.507 247.736C367.251 246.556 352.818 236.266 351.005 237.046C349.192 237.816 345.334 240.226 341.008 245.386C336.671 250.556 334.781 253.676 330.266 260.326C325.752 266.976 322.026 268.706 320.536 270.376C319.068 272.026 302.577 287.976 302.066 288.476L314.576 270.376C314.576 270.376 308.382 265.146 304.379 261.586C300.365 258.026 299.141 262.776 293.893 266.336C288.633 269.896 287.71 272.266 283.751 277.746C279.793 283.216 261.044 302.726 261.044 302.726C261.044 302.726 263.958 307.076 267.116 311.486C270.263 315.886 272.398 323.026 272.398 323.026L266.882 320.136C266.882 320.136 255.151 309.846 253.105 307.206C251.047 304.566 245.476 299.566 240.606 299.956C235.913 300.346 227.929 306.726 227.362 307.176C227.34 307.196 227.328 307.206 227.328 307.206C216.953 318.496 204.377 335.156 204.377 335.156C202.653 337.406 199.64 334.076 194.447 335.866C189.242 337.666 146.864 382.396 146.864 382.396Z" fill="#E6E6E6"/>
<path d="M377.584 135.125C377.584 130.256 373.195 126.308 367.78 126.308C366.801 126.308 365.857 126.441 364.964 126.681C365.106 125.797 365.184 124.894 365.184 123.974C365.184 113.662 355.889 105.303 344.422 105.303C343.115 105.303 341.838 105.417 340.598 105.625C337.406 100.928 331.67 97.783 325.102 97.783C315.161 97.783 307.097 104.966 306.949 113.875C306.847 113.873 306.749 113.861 306.646 113.861C297.409 113.861 289.922 120.595 289.922 128.902C289.922 137.209 297.41 143.943 306.646 143.943H368.068L368.055 143.931C373.342 143.797 377.584 139.911 377.584 135.125Z" fill="#EBEBEB"/>
<path d="M470.753 95.18C470.753 92.071 467.951 89.551 464.494 89.551C463.869 89.551 463.266 89.636 462.697 89.789C462.788 89.225 462.837 88.648 462.837 88.061C462.837 81.477 456.902 76.14 449.581 76.14C448.747 76.14 447.93 76.213 447.139 76.345C445.101 73.346 441.438 71.338 437.245 71.338C430.898 71.338 425.749 75.924 425.655 81.612C425.59 81.611 425.527 81.603 425.462 81.603C419.564 81.603 414.784 85.902 414.784 91.206C414.784 96.51 419.564 100.809 425.462 100.809H464.678L464.67 100.801C468.044 100.717 470.753 98.236 470.753 95.18Z" fill="#EBEBEB"/>
<path d="M152.61 164.343C152.61 162.438 150.893 160.895 148.776 160.895C148.393 160.895 148.024 160.947 147.675 161.041C147.73 160.695 147.76 160.342 147.76 159.982C147.76 155.949 144.125 152.679 139.639 152.679C139.128 152.679 138.629 152.724 138.144 152.805C136.896 150.968 134.652 149.738 132.083 149.738C128.195 149.738 125.041 152.548 124.983 156.032C124.943 156.031 124.905 156.027 124.865 156.027C121.252 156.027 118.323 158.661 118.323 161.91C118.323 165.159 121.252 167.793 124.865 167.793H148.889L148.885 167.788C150.951 167.735 152.61 166.215 152.61 164.343Z" fill="#EBEBEB"/>
<path d="M116.287 83.605C116.287 81.7 114.57 80.157 112.452 80.157C112.07 80.157 111.7 80.209 111.351 80.303C111.407 79.957 111.437 79.604 111.437 79.244C111.437 75.211 107.801 71.941 103.316 71.941C102.804 71.941 102.305 71.986 101.82 72.067C100.573 70.23 98.3286 69 95.7599 69C91.8712 69 88.7176 71.81 88.6598 75.294C88.6197 75.293 88.5819 75.289 88.5419 75.289C84.929 75.289 82 77.923 82 81.172C82 84.421 84.929 87.055 88.5419 87.055H112.566L112.561 87.05C114.627 86.997 116.287 85.477 116.287 83.605Z" fill="#EBEBEB"/>
<path d="M53.823 382.387H424.904C424.904 382.387 413.179 358.881 407.184 361.144C401.201 363.407 382.248 349.291 379.519 343.61C376.79 337.92 367.319 345.464 354.522 343.065C341.725 340.665 323.067 303.751 317.305 305.66C311.543 307.578 294.815 342.101 290.842 343.383C286.87 344.665 283.08 333.475 277.551 332.512C272.012 331.558 267.625 340.184 266.553 342.584C265.492 344.984 260.115 352.656 260.115 352.656C260.115 352.656 251.623 350.256 248.936 348.338C246.247 346.42 232.965 322.45 230.165 319.041C227.365 315.632 221.765 312.86 213.315 314.296C204.865 315.732 201.509 302.306 192.159 294.126C182.819 285.945 178.048 288.881 174.804 288.49C171.549 288.099 154.053 261.557 149.788 263.802C145.522 266.047 126.338 298.471 122.88 302.307C119.413 306.143 111.408 299.916 110.458 302.307C109.509 304.707 94.639 323.405 94.639 323.405C94.639 323.405 87.947 322.923 83.9249 325.805C83.2477 326.287 81.9433 328.214 80.2453 331.086L79.9016 331.668C71.3715 346.246 53.823 382.387 53.823 382.387Z" fill="#EBEBEB"/>
<path d="M53.823 382.387H231.469C236.786 375.406 245.51 363.762 245.226 362.944C244.831 361.762 228.437 332.639 220.633 328.675C212.84 324.721 206.998 327.957 206.998 327.957L213.305 343.373C212.84 342.828 197.982 325.611 194.04 323.03C190.047 320.403 191.482 318.249 192.159 317.167C192.826 316.122 201.56 318.885 202.025 319.031C201.348 318.404 183.983 302.597 180.849 301.088C177.655 299.552 171.327 299.552 171.327 299.552C171.327 299.552 159.662 285.699 155.66 280.573C151.657 275.456 141.469 283.045 139.568 288.963C137.658 294.881 130.866 300.989 130.866 300.989L126.064 313.215C126.064 313.215 140.66 303.507 143.359 304.225C146.058 304.943 152.365 305.307 152.365 305.307C152.365 305.307 155.256 297.753 158.855 296.672C162.453 295.599 170.054 300.635 175.654 307.462C182.699 316.07 166.052 297.754 158.056 307.462C150.061 317.17 148.717 313.934 144.592 311.416C140.458 308.907 126.084 329.041 122.88 331.914C119.666 334.795 113.47 325.087 113.47 325.087C113.47 325.087 119.666 330.123 118.867 326.523C118.069 322.923 117.725 310.179 111.752 309.625C105.768 309.07 99.713 324.723 99.713 324.723L106.071 332.449L88.8777 326.159L80.2453 331.086L79.9016 331.668C71.3715 346.246 53.823 382.387 53.823 382.387Z" fill="#E0E0E0"/>
<path d="M419.244 382.387C416.939 378.878 414.917 375.442 415.393 374.833C416.414 373.515 405.174 369.315 402.687 367.97C400.191 366.634 397.583 365.716 391.134 366.052C384.685 366.379 386.788 366.797 385.069 367.97C383.351 369.152 383.037 377.542 383.037 377.542C383.037 377.542 379.59 371.834 379.519 367.97C379.448 364.116 385.068 361.144 385.068 361.144C385.068 361.144 383.582 358.881 382.278 357.272C380.973 355.654 374.787 347.382 370.785 346.301C366.793 345.219 359.595 348.101 356.392 349.891C353.198 351.691 353.198 351.691 350.398 353.127C347.598 354.572 348.396 356.009 347.193 361.144C345.99 366.28 343.999 360.68 340.522 362.944C337.045 365.198 333.365 370.28 333.365 370.28C333.365 370.28 334.396 363.917 336.903 361.145C339.399 358.363 340.521 350.973 340.521 350.973L336.903 343.383C336.903 343.383 328.796 330.839 323.954 325.085C319.103 319.331 319.204 321.849 313.523 326.885C307.852 331.912 308.408 331.194 305.133 337.084C301.858 342.965 291.325 357.272 291.325 357.272L291.649 351.691C291.649 351.691 284.412 344.865 281.217 347.019C278.013 349.173 275.618 353.855 275.618 353.855L279.237 357.273C279.237 357.273 283.613 364.999 285.474 366.054C287.323 367.099 280.813 364.636 275.618 362.945C270.423 361.245 266.42 355.291 263.216 357.273C260.891 358.718 246.983 374.117 239.584 382.388H419.244V382.387Z" fill="#E0E0E0"/>
<path d="M278 427.561C397.075 427.561 493.605 422.492 493.605 416.238C493.605 409.984 397.075 404.915 278 404.915C158.925 404.915 62.3954 409.984 62.3954 416.238C62.3954 422.492 158.925 427.561 278 427.561Z" fill="#F5F5F5"/>
<path d="M417.137 176.536C438.822 176.536 456.402 160.727 456.402 141.226C456.402 121.725 438.822 105.916 417.137 105.916C395.452 105.916 377.872 121.725 377.872 141.226C377.872 160.727 395.452 176.536 417.137 176.536Z" fill="#3CC22E" fill-opacity="0.61"/>
<path opacity="0.3" d="M456.398 141.226C456.398 160.726 438.817 176.536 417.133 176.536C400.876 176.536 386.931 167.656 380.96 154.996C378.969 150.766 377.869 146.106 377.869 141.226C377.869 121.726 395.449 105.916 417.133 105.916C429.499 105.916 440.53 111.056 447.736 119.096C447.724 119.106 447.724 119.106 447.736 119.106C453.162 125.156 456.398 132.856 456.398 141.226Z" fill="white"/>
<path opacity="0.3" d="M450.493 128.854C449.563 128.854 448.808 128.176 448.808 127.339C448.808 126.642 449.334 126.061 450.045 125.884C449.523 123.533 448.744 121.265 447.735 119.106C447.723 119.106 447.723 119.106 447.735 119.096C446.449 117.661 445.037 116.324 443.521 115.087C442.892 115.4 442.179 115.594 441.408 115.594C438.979 115.594 437.009 113.823 437.009 111.638C437.009 111.362 437.042 111.093 437.102 110.833C431.248 107.716 424.426 105.917 417.132 105.917C401.597 105.917 388.169 114.034 381.803 125.808C381.935 126.141 382.021 126.495 382.021 126.869C382.021 128.128 381.197 129.206 380.014 129.716C378.629 133.325 377.868 137.195 377.868 141.227C377.868 146.107 378.968 150.767 380.959 154.997C386.638 161.325 394.691 165.846 403.9 167.483C404.124 166.433 405.148 165.638 406.381 165.638C407.778 165.638 408.911 166.656 408.911 167.913C408.911 167.97 408.897 168.023 408.892 168.079C409.772 168.132 410.657 168.167 411.551 168.167C416.02 168.167 420.309 167.486 424.311 166.249C424.578 165.078 425.731 164.197 427.113 164.197C427.699 164.197 428.242 164.357 428.695 164.628C432.233 163.081 435.471 161.066 438.318 158.678C437.524 158.061 437.01 157.16 437.01 156.143C437.01 154.286 438.685 152.78 440.75 152.78C441.722 152.78 442.598 153.122 443.263 153.668C448.008 147.831 450.816 140.639 450.816 132.856C450.816 131.501 450.723 130.165 450.557 128.848C450.536 128.849 450.516 128.854 450.493 128.854ZM381.032 144.671C380.485 144.671 380.043 144.273 380.043 143.781C380.043 143.289 380.485 142.891 381.032 142.891C381.579 142.891 382.022 143.289 382.022 143.781C382.022 144.272 381.578 144.671 381.032 144.671ZM384.853 150.803C384.018 150.803 383.341 150.194 383.341 149.443C383.341 148.692 384.018 148.083 384.853 148.083C385.688 148.083 386.365 148.692 386.365 149.443C386.365 150.194 385.688 150.803 384.853 150.803ZM388.07 139.132C387.767 139.132 387.521 138.911 387.521 138.637C387.521 138.364 387.768 138.142 388.07 138.142C388.374 138.142 388.621 138.363 388.621 138.637C388.621 138.911 388.374 139.132 388.07 139.132ZM402.968 109.857C404.15 109.857 405.108 110.719 405.108 111.782C405.108 112.845 404.15 113.707 402.968 113.707C401.786 113.707 400.828 112.845 400.828 111.782C400.828 110.719 401.786 109.857 402.968 109.857ZM394.009 159.011C393.462 159.011 393.02 158.612 393.02 158.121C393.02 157.629 393.462 157.231 394.009 157.231C394.555 157.231 394.999 157.629 394.999 158.121C394.999 158.613 394.555 159.011 394.009 159.011ZM393.02 127.264C391.927 127.264 391.04 126.467 391.04 125.484C391.04 124.501 391.927 123.704 393.02 123.704C394.113 123.704 394.999 124.501 394.999 125.484C394.999 126.467 394.113 127.264 393.02 127.264ZM399.178 162.164C398.813 162.164 398.519 161.898 398.519 161.57C398.519 161.242 398.814 160.977 399.178 160.977C399.543 160.977 399.838 161.243 399.838 161.57C399.838 161.898 399.543 162.164 399.178 162.164ZM400.828 144.671C400.281 144.671 399.838 144.273 399.838 143.781C399.838 143.289 400.281 142.891 400.828 142.891C401.374 142.891 401.818 143.289 401.818 143.781C401.818 144.272 401.374 144.671 400.828 144.671ZM403.853 157.231C402.729 157.231 401.818 156.412 401.818 155.401C401.818 154.39 402.729 153.571 403.853 153.571C404.976 153.571 405.888 154.39 405.888 155.401C405.888 156.412 404.976 157.231 403.853 157.231ZM408.911 149.319C408.152 149.319 407.537 148.766 407.537 148.083C407.537 147.4 408.153 146.847 408.911 146.847C409.671 146.847 410.286 147.4 410.286 148.083C410.286 148.766 409.671 149.319 408.911 149.319ZM410.891 159.011C410.557 159.011 410.286 158.768 410.286 158.467C410.286 158.167 410.557 157.923 410.891 157.923C411.225 157.923 411.496 158.166 411.496 158.467C411.496 158.768 411.225 159.011 410.891 159.011ZM424.748 107.682C425.022 107.682 425.243 107.881 425.243 108.127C425.243 108.373 425.022 108.572 424.748 108.572C424.475 108.572 424.254 108.373 424.254 108.127C424.254 107.881 424.475 107.682 424.748 107.682ZM416.691 112.825C417.232 112.825 417.672 113.22 417.672 113.707C417.672 114.194 417.232 114.589 416.691 114.589C416.149 114.589 415.71 114.194 415.71 113.707C415.711 113.219 416.149 112.825 416.691 112.825ZM416.203 165.076C415.932 165.076 415.715 164.879 415.715 164.637C415.715 164.395 415.934 164.198 416.203 164.198C416.473 164.198 416.691 164.395 416.691 164.637C416.691 164.879 416.473 165.076 416.203 165.076ZM416.61 134.286C415.485 134.286 414.575 133.467 414.575 132.456C414.575 131.445 415.485 130.626 416.61 130.626C417.733 130.626 418.645 131.445 418.645 132.456C418.645 133.467 417.733 134.286 416.61 134.286ZM420.954 142C420.954 141.508 421.397 141.11 421.944 141.11C422.49 141.11 422.934 141.508 422.934 142C422.934 142.492 422.49 142.89 421.944 142.89C421.397 142.89 420.954 142.492 420.954 142ZM424.254 157.923C422.917 157.923 421.834 156.949 421.834 155.747C421.834 154.545 422.917 153.571 424.254 153.571C425.59 153.571 426.673 154.545 426.673 155.747C426.672 156.949 425.589 157.923 424.254 157.923ZM430.742 156.143C430.316 156.143 429.973 155.833 429.973 155.451C429.973 155.069 430.317 154.759 430.742 154.759C431.167 154.759 431.512 155.069 431.512 155.451C431.512 155.833 431.167 156.143 430.742 156.143ZM431.127 132.11C430.914 132.11 430.742 131.955 430.742 131.764C430.742 131.573 430.914 131.418 431.127 131.418C431.339 131.418 431.512 131.573 431.512 131.764C431.512 131.955 431.339 132.11 431.127 132.11ZM433.162 120.737C432.372 120.737 431.732 120.161 431.732 119.451C431.732 118.741 432.372 118.165 433.162 118.165C433.951 118.165 434.592 118.741 434.592 119.451C434.592 120.161 433.951 120.737 433.162 120.737ZM435.801 147.835C435.132 147.835 434.591 147.348 434.591 146.747C434.591 146.146 435.132 145.659 435.801 145.659C436.469 145.659 437.01 146.146 437.01 146.747C437.01 147.348 436.469 147.835 435.801 147.835ZM444.709 141.11C444.102 141.11 443.609 140.667 443.609 140.121C443.609 139.575 444.102 139.132 444.709 139.132C445.316 139.132 445.809 139.575 445.809 140.121C445.809 140.667 445.317 141.11 444.709 141.11Z" fill="white"/>
<path d="M225.347 215.046C224.008 214.104 222.238 213.839 220.542 213.737C219.559 212.549 220.501 210.866 221.576 209.744C222.65 208.621 223.961 207.348 223.655 205.892C223.194 203.694 219.822 203.469 217.36 203.785C216.53 202.433 216.635 200.792 216.28 199.281C215.923 197.77 214.688 196.147 212.975 196.259C211.361 196.365 210.293 197.951 208.701 198.216C206.853 198.523 205.35 197.002 203.975 195.849C203.808 195.709 203.625 195.576 203.43 195.45C203.43 195.448 203.432 195.446 203.432 195.444C203.972 190.953 208.715 191.875 212.816 191.442C216.019 191.103 207.994 183.517 214.527 181.467C215.74 181.086 217.06 180.654 217.724 179.664C218.601 178.355 217.883 176.55 216.544 175.608C215.205 174.666 213.435 174.402 211.738 174.299C210.755 173.111 211.697 171.428 212.772 170.306C213.847 169.183 215.156 167.91 214.852 166.454C214.39 164.256 211.018 164.031 208.556 164.347C207.725 162.995 207.832 161.354 207.475 159.843C207.118 158.332 205.883 156.709 204.17 156.821C202.556 156.927 201.488 158.513 199.896 158.778C198.048 159.085 196.545 157.563 195.17 156.411C193.796 155.258 191.326 154.469 190.262 155.861C189.625 156.695 189.914 157.908 189.255 158.728C188.11 160.149 185.635 159.128 184.125 158.019C182.614 156.911 180.168 155.86 178.988 157.255C178.625 157.682 178.522 158.237 178.298 158.735C178.129 159.112 177.888 159.439 177.614 159.745C177.358 158.727 177.324 157.639 177.082 156.609C176.725 155.098 175.49 153.475 173.777 153.587C172.163 153.693 171.095 155.279 169.503 155.543C167.655 155.851 166.152 154.329 164.777 153.176C163.403 152.023 160.933 151.234 159.868 152.627C159.231 153.461 159.52 154.674 158.86 155.494C158.705 155.688 158.522 155.832 158.323 155.941C157.787 155.86 157.245 155.807 156.707 155.775C155.724 154.587 156.666 152.904 157.742 151.781C158.816 150.658 160.127 149.385 159.82 147.929C159.359 145.731 155.987 145.506 153.524 145.822C152.693 144.47 152.8 142.829 152.443 141.318C152.086 139.807 150.852 138.184 149.138 138.296C147.525 138.402 146.456 139.988 144.865 140.253C143.017 140.56 141.513 139.038 140.139 137.886C138.764 136.733 136.295 135.944 135.23 137.337C134.593 138.171 134.882 139.384 134.222 140.204C133.077 141.625 130.603 140.604 129.092 139.495C127.581 138.387 125.136 137.335 123.955 138.731C123.593 139.159 123.489 139.713 123.266 140.211C122.421 142.103 120.056 142.96 118.189 144.116C116.321 145.271 114.762 147.663 116.205 149.235C116.917 150.011 118.223 150.37 118.546 151.333C118.95 152.536 117.547 153.538 116.44 154.305C115.076 155.25 114.429 157.703 115.108 159.407C114.514 159.8 113.91 160.18 113.204 160.297C111.356 160.605 109.852 159.083 108.478 157.93C107.103 156.777 104.634 155.988 103.569 157.381C102.932 158.215 103.221 159.428 102.562 160.248C101.418 161.668 98.9435 160.648 97.4323 159.539C95.9211 158.431 93.4747 157.38 92.2949 158.775C91.9335 159.203 91.829 159.757 91.6066 160.255C90.7614 162.147 88.3962 163.004 86.5292 164.159C84.661 165.314 83.102 167.706 84.5443 169.278C85.2281 170.023 86.4513 170.389 86.8339 171.269C85.5951 170.767 84.2207 170.692 83.4956 171.641C82.8585 172.475 83.1476 173.688 82.4871 174.508C81.3439 175.928 78.8686 174.908 77.3574 173.799C75.8462 172.691 73.4009 171.64 72.22 173.035C71.8586 173.462 71.754 174.017 71.5316 174.515C70.6865 176.407 68.3224 177.264 66.4542 178.42C64.5861 179.575 63.0271 181.967 64.4704 183.539C65.1821 184.315 66.4887 184.673 66.8112 185.637C67.2148 186.84 65.8126 187.842 64.7051 188.609C62.8614 189.886 62.322 193.924 64.6028 195.134C65.5602 195.642 66.9936 195.848 67.1826 196.833C67.3505 197.714 66.3308 198.349 65.6414 198.993C63.7465 200.761 64.327 204.117 66.7289 205.284C67.2782 205.551 67.9577 205.779 68.1367 206.317C68.2657 206.702 68.0811 207.107 67.9388 207.488C67.6708 208.209 67.5529 208.975 67.5918 209.734C67.6052 209.994 67.6485 210.277 67.8587 210.455C68.0488 210.617 68.3302 210.653 68.5904 210.675C71.9631 210.958 73.6522 209.953 75.5726 212.688C75.7572 212.951 75.9507 213.222 76.2409 213.391C76.5123 213.549 76.8414 213.603 77.1628 213.641C79.4769 213.915 81.0659 212.677 83.2032 212.526C86.1678 212.317 86.7182 213.711 89.2547 214.921C93.2457 216.826 95.2817 215.848 96.1836 213.38C96.4126 212.752 96.5694 212.026 96.6651 211.224C96.833 209.83 97.4068 208.959 98.2396 208.406C98.263 208.409 98.2863 208.415 98.3097 208.418C100.467 208.673 101.999 207.626 103.926 207.359C104.329 207.343 104.731 207.324 105.133 207.298C107.424 207.375 108.112 208.605 110.402 209.698C111.77 210.351 112.905 210.659 113.847 210.69C114.122 211.84 112.792 212.803 111.722 213.545C109.878 214.822 109.339 218.86 111.619 220.07C112.577 220.578 114.01 220.784 114.198 221.769C114.367 222.65 113.346 223.285 112.657 223.929C110.762 225.696 111.342 229.053 113.744 230.22C114.292 230.487 114.973 230.715 115.153 231.253C115.282 231.638 115.096 232.043 114.955 232.423C114.687 233.144 114.569 233.91 114.608 234.669C114.622 234.929 114.665 235.212 114.875 235.39C115.065 235.552 115.346 235.588 115.607 235.61C118.98 235.893 120.669 234.888 122.589 237.623C122.774 237.886 122.967 238.157 123.257 238.326C123.529 238.485 123.858 238.538 124.179 238.576C126.493 238.85 128.082 237.612 130.22 237.461C133.184 237.252 133.735 238.646 136.271 239.856C140.262 241.761 142.298 240.783 143.2 238.315C143.43 237.687 143.586 236.961 143.683 236.159C144.223 231.668 148.966 232.59 153.067 232.157C153.432 232.118 153.645 231.982 153.756 231.775C153.841 231.789 153.925 231.807 154.01 231.817C156.324 232.091 157.913 230.853 160.05 230.702C163.015 230.493 163.565 231.886 166.102 233.097C170.093 235.002 172.129 234.024 173.031 231.556C173.261 230.928 173.416 230.202 173.513 229.401C173.933 225.909 176.896 225.69 180.121 225.562C180.202 226.933 180.95 228.285 182.304 228.943C182.853 229.21 183.532 229.438 183.711 229.976C183.84 230.36 183.656 230.765 183.513 231.147C183.245 231.868 183.128 232.633 183.166 233.393C183.18 233.653 183.223 233.936 183.433 234.114C183.623 234.276 183.904 234.312 184.165 234.334C187.538 234.617 189.227 233.612 191.147 236.347C191.332 236.61 191.525 236.881 191.816 237.05C192.087 237.208 192.416 237.262 192.737 237.3C195.051 237.574 196.642 236.336 198.778 236.185C201.742 235.976 202.293 237.369 204.829 238.58C208.82 240.484 210.856 239.507 211.758 237.039C211.987 236.411 212.144 235.685 212.24 234.884C212.78 230.393 217.523 231.315 221.624 230.882C224.828 230.543 216.802 222.957 223.335 220.907C224.548 220.526 225.868 220.094 226.532 219.104C227.404 217.792 226.686 215.988 225.347 215.046ZM182.088 219.645C182.426 219.854 182.679 220.115 182.751 220.491C182.805 220.777 182.727 221.035 182.583 221.278C182.382 220.741 182.203 220.19 182.088 219.645ZM140.326 180.262C139.127 180.111 138.073 179.273 137.096 178.438C138.232 178.801 139.011 179.527 140.326 180.262ZM173.34 191.005C173.53 190.518 173.787 190.117 174.111 189.799C174.467 189.98 174.789 190.193 174.902 190.534C174.935 190.634 174.947 190.734 174.944 190.836C174.721 190.787 174.491 190.76 174.247 190.776C173.923 190.797 173.627 190.888 173.34 191.005ZM177.752 194.939C179.654 194.906 180.936 194.908 182.338 196.906C182.523 197.169 182.716 197.44 183.005 197.609C183.277 197.767 183.606 197.821 183.927 197.858C185.251 198.015 186.339 197.676 187.428 197.329C187.314 197.607 187.224 197.897 187.101 198.172C186.676 199.123 185.865 199.813 184.928 200.411V200.409C184.466 198.211 181.095 197.986 178.632 198.302C178.008 197.285 177.912 196.104 177.752 194.939ZM192.926 197.456C192.714 197.3 192.482 197.146 192.238 197C193.196 197.333 193.915 197.926 194.954 198.557C194.223 198.29 193.505 197.88 192.926 197.456Z" fill="#263238"/>
<path d="M103.508 254.859C102.454 254.117 101.06 253.909 99.7242 253.828C98.9502 252.892 99.6919 251.568 100.538 250.683C101.384 249.799 102.416 248.796 102.175 247.65C101.811 245.919 99.1559 245.742 97.2177 245.99C96.5639 244.926 96.6473 243.634 96.367 242.444C96.0857 241.254 95.1138 239.976 93.7649 240.064C92.4939 240.147 91.6533 241.396 90.4 241.605C88.9444 241.847 87.7613 240.649 86.6793 239.741C85.5973 238.833 83.6524 238.212 82.814 239.308C82.3125 239.965 82.5393 240.92 82.02 241.565C81.1193 242.683 79.1711 241.88 77.9812 241.007C76.7914 240.134 74.8654 239.307 73.9358 240.405C73.6511 240.742 73.5688 241.178 73.3931 241.57C72.7281 243.06 70.8655 243.735 69.3944 244.645C67.9232 245.555 66.6955 247.438 67.832 248.676C68.3924 249.287 69.421 249.569 69.6757 250.328C69.9926 251.276 68.8895 252.064 68.0177 252.668C66.5654 253.674 66.1406 256.853 67.9376 257.806C68.6916 258.206 69.8203 258.368 69.9682 259.144C70.1005 259.838 69.2976 260.338 68.755 260.845C67.2627 262.237 67.7197 264.88 69.6112 265.798C70.0438 266.008 70.5786 266.188 70.7199 266.611C70.8211 266.914 70.6754 267.233 70.5642 267.533C70.3529 268.101 70.2606 268.703 70.2906 269.301C70.3017 269.505 70.3362 269.728 70.5008 269.869C70.6509 269.997 70.8711 270.025 71.0768 270.042C73.7323 270.265 75.0622 269.474 76.5745 271.628C76.7202 271.835 76.8726 272.048 77.1005 272.181C77.314 272.306 77.5731 272.348 77.8267 272.378C79.6492 272.594 80.9002 271.619 82.5827 271.5C84.9168 271.336 85.3504 272.433 87.3476 273.386C90.489 274.885 92.0925 274.116 92.8031 272.173C92.9843 271.678 93.1066 271.107 93.1823 270.476C93.6082 266.94 97.3423 267.666 100.572 267.325C103.094 267.058 96.7751 261.084 101.919 259.471C102.874 259.171 103.914 258.831 104.436 258.051C105.127 257.022 104.561 255.6 103.508 254.859Z" fill="#263238"/>
<g opacity="0.3">
<path d="M225.347 215.046C224.008 214.104 222.238 213.839 220.542 213.737C219.559 212.549 220.501 210.866 221.576 209.744C222.65 208.621 223.961 207.348 223.655 205.892C223.194 203.694 219.822 203.469 217.36 203.785C216.53 202.433 216.635 200.792 216.28 199.281C215.923 197.77 214.688 196.147 212.975 196.259C211.361 196.365 210.293 197.951 208.701 198.216C206.853 198.523 205.35 197.002 203.975 195.849C203.808 195.709 203.625 195.576 203.43 195.45C203.43 195.448 203.432 195.446 203.432 195.444C203.972 190.953 208.715 191.875 212.816 191.442C216.019 191.103 207.994 183.517 214.527 181.467C215.74 181.086 217.06 180.654 217.724 179.664C218.601 178.355 217.883 176.55 216.544 175.608C215.205 174.666 213.435 174.402 211.738 174.299C210.755 173.111 211.697 171.428 212.772 170.306C213.847 169.183 215.156 167.91 214.852 166.454C214.39 164.256 211.018 164.031 208.556 164.347C207.725 162.995 207.832 161.354 207.475 159.843C207.118 158.332 205.883 156.709 204.17 156.821C202.556 156.927 201.488 158.513 199.896 158.778C198.048 159.085 196.545 157.563 195.17 156.411C193.796 155.258 191.326 154.469 190.262 155.861C189.625 156.695 189.914 157.908 189.255 158.728C188.11 160.149 185.635 159.128 184.125 158.019C182.614 156.911 180.168 155.86 178.988 157.255C178.625 157.682 178.522 158.237 178.298 158.735C178.129 159.112 177.888 159.439 177.614 159.745C177.358 158.727 177.324 157.639 177.082 156.609C176.725 155.098 175.49 153.475 173.777 153.587C172.163 153.693 171.095 155.279 169.503 155.543C167.655 155.851 166.152 154.329 164.777 153.176C163.403 152.023 160.933 151.234 159.868 152.627C159.231 153.461 159.52 154.674 158.86 155.494C158.705 155.688 158.522 155.832 158.323 155.941C157.787 155.86 157.245 155.807 156.707 155.775C155.724 154.587 156.666 152.904 157.742 151.781C158.816 150.658 160.127 149.385 159.82 147.929C159.359 145.731 155.987 145.506 153.524 145.822C152.693 144.47 152.8 142.829 152.443 141.318C152.086 139.807 150.852 138.184 149.138 138.296C147.525 138.402 146.456 139.988 144.865 140.253C143.017 140.56 141.513 139.038 140.139 137.886C138.764 136.733 136.295 135.944 135.23 137.337C134.593 138.171 134.882 139.384 134.222 140.204C133.077 141.625 130.603 140.604 129.092 139.495C127.581 138.387 125.136 137.335 123.955 138.731C123.593 139.159 123.489 139.713 123.266 140.211C122.421 142.103 120.056 142.96 118.189 144.116C116.321 145.271 114.762 147.663 116.205 149.235C116.917 150.011 118.223 150.37 118.546 151.333C118.95 152.536 117.547 153.538 116.44 154.305C115.076 155.25 114.429 157.703 115.108 159.407C114.514 159.8 113.91 160.18 113.204 160.297C111.356 160.605 109.852 159.083 108.478 157.93C107.103 156.777 104.634 155.988 103.569 157.381C102.932 158.215 103.221 159.428 102.562 160.248C101.418 161.668 98.9435 160.648 97.4323 159.539C95.9211 158.431 93.4747 157.38 92.2949 158.775C91.9335 159.203 91.829 159.757 91.6066 160.255C90.7614 162.147 88.3962 163.004 86.5292 164.159C84.661 165.314 83.102 167.706 84.5443 169.278C85.2281 170.023 86.4513 170.389 86.8339 171.269C85.5951 170.767 84.2207 170.692 83.4956 171.641C82.8585 172.475 83.1476 173.688 82.4871 174.508C81.3439 175.928 78.8686 174.908 77.3574 173.799C75.8462 172.691 73.4009 171.64 72.22 173.035C71.8586 173.462 71.754 174.017 71.5316 174.515C70.6865 176.407 68.3224 177.264 66.4542 178.42C64.5861 179.575 63.0271 181.967 64.4704 183.539C65.1821 184.315 66.4887 184.673 66.8112 185.637C67.2148 186.84 65.8126 187.842 64.7051 188.609C62.8614 189.886 62.322 193.924 64.6028 195.134C65.5602 195.642 66.9936 195.848 67.1826 196.833C67.3505 197.714 66.3308 198.349 65.6414 198.993C63.7465 200.761 64.327 204.117 66.7289 205.284C67.2782 205.551 67.9577 205.779 68.1367 206.317C68.2657 206.702 68.0811 207.107 67.9388 207.488C67.6708 208.209 67.5529 208.975 67.5918 209.734C67.6052 209.994 67.6485 210.277 67.8587 210.455C68.0488 210.617 68.3302 210.653 68.5904 210.675C71.9631 210.958 73.6522 209.953 75.5726 212.688C75.7572 212.951 75.9507 213.222 76.2409 213.391C76.5123 213.549 76.8414 213.603 77.1628 213.641C79.4769 213.915 81.0659 212.677 83.2032 212.526C86.1678 212.317 86.7182 213.711 89.2547 214.921C93.2457 216.826 95.2817 215.848 96.1836 213.38C96.4126 212.752 96.5694 212.026 96.6651 211.224C96.833 209.83 97.4068 208.959 98.2396 208.406C98.263 208.409 98.2863 208.415 98.3097 208.418C100.467 208.673 101.999 207.626 103.926 207.359C104.329 207.343 104.731 207.324 105.133 207.298C107.424 207.375 108.112 208.605 110.402 209.698C111.77 210.351 112.905 210.659 113.847 210.69C114.122 211.84 112.792 212.803 111.722 213.545C109.878 214.822 109.339 218.86 111.619 220.07C112.577 220.578 114.01 220.784 114.198 221.769C114.367 222.65 113.346 223.285 112.657 223.929C110.762 225.696 111.342 229.053 113.744 230.22C114.292 230.487 114.973 230.715 115.153 231.253C115.282 231.638 115.096 232.043 114.955 232.423C114.687 233.144 114.569 233.91 114.608 234.669C114.622 234.929 114.665 235.212 114.875 235.39C115.065 235.552 115.346 235.588 115.607 235.61C118.98 235.893 120.669 234.888 122.589 237.623C122.774 237.886 122.967 238.157 123.257 238.326C123.529 238.485 123.858 238.538 124.179 238.576C126.493 238.85 128.082 237.612 130.22 237.461C133.184 237.252 133.735 238.646 136.271 239.856C140.262 241.761 142.298 240.783 143.2 238.315C143.43 237.687 143.586 236.961 143.683 236.159C144.223 231.668 148.966 232.59 153.067 232.157C153.432 232.118 153.645 231.982 153.756 231.775C153.841 231.789 153.925 231.807 154.01 231.817C156.324 232.091 157.913 230.853 160.05 230.702C163.015 230.493 163.565 231.886 166.102 233.097C170.093 235.002 172.129 234.024 173.031 231.556C173.261 230.928 173.416 230.202 173.513 229.401C173.933 225.909 176.896 225.69 180.121 225.562C180.202 226.933 180.95 228.285 182.304 228.943C182.853 229.21 183.532 229.438 183.711 229.976C183.84 230.36 183.656 230.765 183.513 231.147C183.245 231.868 183.128 232.633 183.166 233.393C183.18 233.653 183.223 233.936 183.433 234.114C183.623 234.276 183.904 234.312 184.165 234.334C187.538 234.617 189.227 233.612 191.147 236.347C191.332 236.61 191.525 236.881 191.816 237.05C192.087 237.208 192.416 237.262 192.737 237.3C195.051 237.574 196.642 236.336 198.778 236.185C201.742 235.976 202.293 237.369 204.829 238.58C208.82 240.484 210.856 239.507 211.758 237.039C211.987 236.411 212.144 235.685 212.24 234.884C212.78 230.393 217.523 231.315 221.624 230.882C224.828 230.543 216.802 222.957 223.335 220.907C224.548 220.526 225.868 220.094 226.532 219.104C227.404 217.792 226.686 215.988 225.347 215.046ZM182.088 219.645C182.426 219.854 182.679 220.115 182.751 220.491C182.805 220.777 182.727 221.035 182.583 221.278C182.382 220.741 182.203 220.19 182.088 219.645ZM140.326 180.262C139.127 180.111 138.073 179.273 137.096 178.438C138.232 178.801 139.011 179.527 140.326 180.262ZM173.34 191.005C173.53 190.518 173.787 190.117 174.111 189.799C174.467 189.98 174.789 190.193 174.902 190.534C174.935 190.634 174.947 190.734 174.944 190.836C174.721 190.787 174.491 190.76 174.247 190.776C173.923 190.797 173.627 190.888 173.34 191.005ZM177.752 194.939C179.654 194.906 180.936 194.908 182.338 196.906C182.523 197.169 182.716 197.44 183.005 197.609C183.277 197.767 183.606 197.821 183.927 197.858C185.251 198.015 186.339 197.676 187.428 197.329C187.314 197.607 187.224 197.897 187.101 198.172C186.676 199.123 185.865 199.813 184.928 200.411V200.409C184.466 198.211 181.095 197.986 178.632 198.302C178.008 197.285 177.912 196.104 177.752 194.939ZM192.926 197.456C192.714 197.3 192.482 197.146 192.238 197C193.196 197.333 193.915 197.926 194.954 198.557C194.223 198.29 193.505 197.88 192.926 197.456Z" fill="white"/>
<path d="M103.508 254.859C102.454 254.117 101.06 253.909 99.7242 253.828C98.9502 252.892 99.6919 251.568 100.538 250.683C101.384 249.799 102.416 248.796 102.175 247.65C101.811 245.919 99.1559 245.742 97.2177 245.99C96.5639 244.926 96.6473 243.634 96.367 242.444C96.0857 241.254 95.1138 239.976 93.7649 240.064C92.4939 240.147 91.6533 241.396 90.4 241.605C88.9444 241.847 87.7613 240.649 86.6793 239.741C85.5973 238.833 83.6524 238.212 82.814 239.308C82.3125 239.965 82.5393 240.92 82.02 241.565C81.1193 242.683 79.1711 241.88 77.9812 241.007C76.7914 240.134 74.8654 239.307 73.9358 240.405C73.6511 240.742 73.5688 241.178 73.3931 241.57C72.7281 243.06 70.8655 243.735 69.3944 244.645C67.9232 245.555 66.6955 247.438 67.832 248.676C68.3924 249.287 69.421 249.569 69.6757 250.328C69.9926 251.276 68.8895 252.064 68.0177 252.668C66.5654 253.674 66.1406 256.853 67.9376 257.806C68.6916 258.206 69.8203 258.368 69.9682 259.144C70.1005 259.838 69.2976 260.338 68.755 260.845C67.2627 262.237 67.7197 264.88 69.6112 265.798C70.0438 266.008 70.5786 266.188 70.7199 266.611C70.8211 266.914 70.6754 267.233 70.5642 267.533C70.3529 268.101 70.2606 268.703 70.2906 269.301C70.3017 269.505 70.3362 269.728 70.5008 269.869C70.6509 269.997 70.8711 270.025 71.0768 270.042C73.7323 270.265 75.0622 269.474 76.5745 271.628C76.7202 271.835 76.8726 272.048 77.1005 272.181C77.314 272.306 77.5731 272.348 77.8267 272.378C79.6492 272.594 80.9002 271.619 82.5827 271.5C84.9168 271.336 85.3504 272.433 87.3476 273.386C90.489 274.885 92.0925 274.116 92.8031 272.173C92.9843 271.678 93.1066 271.107 93.1823 270.476C93.6082 266.94 97.3423 267.666 100.572 267.325C103.094 267.058 96.7751 261.084 101.919 259.471C102.874 259.171 103.914 258.831 104.436 258.051C105.127 257.022 104.561 255.6 103.508 254.859Z" fill="white"/>
</g>
<path d="M175.456 233.605L181.513 218.881L192.358 207.524L190.679 206.136L180.544 215.158L179.637 200.133L175.811 199.966C175.811 199.966 179.954 217.28 176.286 223.647C176.286 223.647 161.067 251.059 153.456 256.669C153.025 256.986 152.65 257.366 152.313 257.786C149.875 251.565 147.289 246.833 144.628 243.143C147.857 236.645 154.816 222.326 157.332 214.67C160.654 204.562 162.024 196.472 162.024 196.472L159.234 194.939C159.234 194.939 151.323 224.6 139.424 237.201C135.817 233.842 132.162 231.789 128.628 229.999C127.944 225.92 127.931 218.871 131.505 208.022L129.397 206.09C129.397 206.09 124.145 216.512 123.932 227.637C122.309 226.79 120.731 225.896 119.216 224.837C108.794 217.547 101.876 204.889 101.876 204.889L97.7859 204.711C97.7859 204.711 107.791 225.302 120.295 231.939C132.801 238.576 140.309 253.728 140.758 257.64C140.886 258.754 140.539 270.465 139.979 286.633C126.368 278.374 92.9176 258.04 91.1929 256.628L90.9905 260.374L139.644 296.09C138.297 333.654 136.194 386.325 135.856 394.779L155.728 395.646C156.578 383.993 161.239 315.918 156.977 278.412C157.241 277.292 157.519 276.01 157.813 274.52C160.556 260.555 176.285 239.947 179.386 236.665C182.486 233.382 191.524 222.998 191.524 222.998L189.902 220.561L175.456 233.605Z" fill="#263238"/>
<path opacity="0.6" d="M175.456 233.605L181.513 218.881L192.358 207.524L190.679 206.136L180.544 215.158L179.637 200.133L175.811 199.966C175.811 199.966 179.954 217.28 176.286 223.647C176.286 223.647 161.067 251.059 153.456 256.669C153.025 256.986 152.65 257.366 152.313 257.786C149.875 251.565 147.289 246.833 144.628 243.143C147.857 236.645 154.816 222.326 157.332 214.67C160.654 204.562 162.024 196.472 162.024 196.472L159.234 194.939C159.234 194.939 151.323 224.6 139.424 237.201C135.817 233.842 132.162 231.789 128.628 229.999C127.944 225.92 127.931 218.871 131.505 208.022L129.397 206.09C129.397 206.09 124.145 216.512 123.932 227.637C122.309 226.79 120.731 225.896 119.216 224.837C108.794 217.547 101.876 204.889 101.876 204.889L97.7859 204.711C97.7859 204.711 107.791 225.302 120.295 231.939C132.801 238.576 140.309 253.728 140.758 257.64C140.886 258.754 140.539 270.465 139.979 286.633C126.368 278.374 92.9176 258.04 91.1929 256.628L90.9905 260.374L139.644 296.09C138.297 333.654 136.194 386.325 135.856 394.779L155.728 395.646C156.578 383.993 161.239 315.918 156.977 278.412C157.241 277.292 157.519 276.01 157.813 274.52C160.556 260.555 176.285 239.947 179.386 236.665C182.486 233.382 191.524 222.998 191.524 222.998L189.902 220.561L175.456 233.605Z" fill="white"/>
<path d="M69.9248 398.683H162.272L157.281 387.848C157.281 387.848 155.892 383.663 151.049 383.668C146.205 383.672 145.029 390.677 145.029 390.677C145.029 390.677 142.407 385.307 137.735 384.864C133.062 384.421 135.966 391.174 135.966 391.174C135.966 391.174 125.865 385.989 122.683 388.508C119.5 391.027 121.644 394.121 121.644 394.121C121.644 394.121 112.538 393.225 107.916 395.954C107.916 395.954 107.069 392.306 104.243 391.74C101.418 391.174 99.157 393.598 99.157 393.598C99.157 393.598 100.004 388.084 96.049 385.659C92.0936 383.235 91.8112 393.598 91.8112 393.598C91.8112 393.598 89.2725 388.721 85.7385 388.985C82.2046 389.249 83.9004 395.363 83.9004 395.363C83.9004 395.363 76.2954 395.158 69.9248 398.683Z" fill="#263238"/>
<path opacity="0.4" d="M69.9248 398.683H162.272L157.281 387.848C157.281 387.848 155.892 383.663 151.049 383.668C146.205 383.672 145.029 390.677 145.029 390.677C145.029 390.677 142.407 385.307 137.735 384.864C133.062 384.421 135.966 391.174 135.966 391.174C135.966 391.174 125.865 385.989 122.683 388.508C119.5 391.027 121.644 394.121 121.644 394.121C121.644 394.121 112.538 393.225 107.916 395.954C107.916 395.954 107.069 392.306 104.243 391.74C101.418 391.174 99.157 393.598 99.157 393.598C99.157 393.598 100.004 388.084 96.049 385.659C92.0936 383.235 91.8112 393.598 91.8112 393.598C91.8112 393.598 89.2725 388.721 85.7385 388.985C82.2046 389.249 83.9004 395.363 83.9004 395.363C83.9004 395.363 76.2954 395.158 69.9248 398.683Z" fill="white"/>
<path d="M244.639 398.687C246.118 396.782 250.078 391.999 251.979 392.779C255.058 394.04 257.34 387.121 260.748 388.76C261.949 389.337 261.362 391.188 262.118 391.934C263.367 393.164 264.956 392.926 266.466 393.602C269.142 394.8 270.259 396.355 271.528 398.687H244.639Z" fill="#263238"/>
<path d="M247.109 397.317C247.109 397.317 248.939 387.77 247.676 386.37C246.413 384.97 246.191 391.579 246.191 391.579C246.191 391.579 241.946 377.783 239.228 377.711C236.511 377.638 242.454 389.678 242.454 389.678C242.454 389.678 230.841 372.612 227.465 374.201C224.089 375.79 239.62 390.918 239.62 390.918C239.62 390.918 231.126 384.346 229.254 386.201C227.383 388.056 238.684 393.732 238.684 393.732C238.684 393.732 233.701 392.724 233.707 394.216C233.712 395.71 242.12 398.164 247.109 397.317Z" fill="#263238"/>
<path opacity="0.4" d="M247.109 397.317C247.109 397.317 248.939 387.77 247.676 386.37C246.413 384.97 246.191 391.579 246.191 391.579C246.191 391.579 241.946 377.783 239.228 377.711C236.511 377.638 242.454 389.678 242.454 389.678C242.454 389.678 230.841 372.612 227.465 374.201C224.089 375.79 239.62 390.918 239.62 390.918C239.62 390.918 231.126 384.346 229.254 386.201C227.383 388.056 238.684 393.732 238.684 393.732C238.684 393.732 233.701 392.724 233.707 394.216C233.712 395.71 242.12 398.164 247.109 397.317Z" fill="white"/>
<path d="M248.782 395.954C248.782 395.954 257.509 394.53 258.357 393.257C259.204 391.984 253.457 393.696 253.457 393.696C253.457 393.696 264.121 386.847 263.416 384.938C262.711 383.028 254.035 390.561 254.035 390.561C254.035 390.561 265.432 377.665 263.113 375.767C260.792 373.868 252.169 388.941 252.169 388.941C252.169 388.941 255.422 381.178 253.298 380.4C251.174 379.622 249.485 389.085 249.485 389.085C249.485 389.085 248.945 385.335 247.662 385.76C246.381 386.183 246.645 392.724 248.782 395.954Z" fill="#263238"/>
<path opacity="0.4" d="M248.782 395.954C248.782 395.954 257.509 394.53 258.357 393.257C259.204 391.984 253.457 393.696 253.457 393.696C253.457 393.696 264.121 386.847 263.416 384.938C262.711 383.028 254.035 390.561 254.035 390.561C254.035 390.561 265.432 377.665 263.113 375.767C260.792 373.868 252.169 388.941 252.169 388.941C252.169 388.941 255.422 381.178 253.298 380.4C251.174 379.622 249.485 389.085 249.485 389.085C249.485 389.085 248.945 385.335 247.662 385.76C246.381 386.183 246.645 392.724 248.782 395.954Z" fill="white"/>
<path d="M249.437 394.91C249.437 394.91 257.865 387.317 257.715 385.326C257.565 383.335 252.676 389.19 252.676 389.19C252.676 389.19 258.618 374.267 256.21 372.643C253.803 371.019 250.641 385.326 250.641 385.326C250.641 385.326 252.235 363.216 248.052 362.718C243.868 362.22 247.196 384.823 247.196 384.823C247.196 384.823 244.17 374.001 241.159 374.608C238.149 375.214 244.353 386.834 244.353 386.834C244.353 386.834 240.557 383.064 239.504 384.417C238.451 385.771 244.32 392.816 249.437 394.91Z" fill="#263238"/>
<path opacity="0.5" d="M249.437 394.91C249.437 394.91 257.865 387.317 257.715 385.326C257.565 383.335 252.676 389.19 252.676 389.19C252.676 389.19 258.618 374.267 256.21 372.643C253.803 371.019 250.641 385.326 250.641 385.326C250.641 385.326 252.235 363.216 248.052 362.718C243.868 362.22 247.196 384.823 247.196 384.823C247.196 384.823 244.17 374.001 241.159 374.608C238.149 375.214 244.353 386.834 244.353 386.834C244.353 386.834 240.557 383.064 239.504 384.417C238.451 385.771 244.32 392.816 249.437 394.91Z" fill="white"/>
<path d="M237.76 398.687C239.607 397.028 241.673 395.48 242.607 395.863C245.06 396.868 246.88 391.355 249.595 392.66C250.552 393.12 250.084 394.595 250.687 395.189C251.682 396.17 252.949 395.979 254.152 396.518C255.28 397.023 255.941 397.787 256.454 398.687H237.76Z" fill="#263238"/>
<path opacity="0.2" d="M237.76 398.687C239.607 397.028 241.673 395.48 242.607 395.863C245.06 396.868 246.88 391.355 249.595 392.66C250.552 393.12 250.084 394.595 250.687 395.189C251.682 396.17 252.949 395.979 254.152 396.518C255.28 397.023 255.941 397.787 256.454 398.687H237.76Z" fill="white"/>
<path d="M473.494 391.605C473.494 391.605 477.716 377.687 481.148 373.28C484.581 368.873 479.078 383.241 479.078 383.241C479.078 383.241 483.881 374.08 485.389 374.37C486.896 374.659 480.426 384.552 480.426 384.552C480.426 384.552 485.357 376.634 487.515 377.927C489.674 379.22 481.224 387.361 481.224 387.361C481.224 387.361 488.808 382.248 489.561 383.673C490.314 385.098 482.217 389.638 482.217 389.638C482.217 389.638 489.928 388.234 490.737 390.677C491.545 393.12 483.065 392.752 483.065 392.752C483.065 392.752 486.986 392.594 487.733 395.144C488.48 397.693 477.441 396.764 473.494 391.605Z" fill="#263238"/>
<path opacity="0.4" d="M473.494 391.605C473.494 391.605 477.716 377.687 481.148 373.28C484.581 368.873 479.078 383.241 479.078 383.241C479.078 383.241 483.881 374.08 485.389 374.37C486.896 374.659 480.426 384.552 480.426 384.552C480.426 384.552 485.357 376.634 487.515 377.927C489.674 379.22 481.224 387.361 481.224 387.361C481.224 387.361 488.808 382.248 489.561 383.673C490.314 385.098 482.217 389.638 482.217 389.638C482.217 389.638 489.928 388.234 490.737 390.677C491.545 393.12 483.065 392.752 483.065 392.752C483.065 392.752 486.986 392.594 487.733 395.144C488.48 397.693 477.441 396.764 473.494 391.605Z" fill="white"/>
<path d="M471.339 395.63C471.339 395.63 477.062 385.721 475.905 383.984C474.746 382.247 472.298 387.858 472.298 387.858C472.298 387.858 476.714 375.159 475.121 373.764C473.526 372.369 470.602 384.697 470.602 384.697C470.602 384.697 472.153 370.249 470.602 369.479C469.05 368.709 468.302 382.555 468.302 382.555C468.302 382.555 467.246 367.907 465.301 368.126C463.356 368.345 465.301 381.144 465.301 381.144C465.301 381.144 460.951 371.404 459 371.795C457.05 372.186 462.135 381.877 462.135 381.877C462.135 381.877 456.982 376.027 455.491 377.399C453.998 378.771 460.101 385.178 460.101 385.178C460.101 385.178 454.869 382.246 453.519 383.71C452.168 385.173 459.001 388.327 459.001 388.327C459.001 388.327 453.427 389.629 453.815 390.877C454.203 392.125 459.001 391.956 459.001 391.956C459.001 391.956 461.079 400.832 471.339 395.63Z" fill="#263238"/>
<path opacity="0.5" d="M471.339 395.63C471.339 395.63 477.062 385.721 475.905 383.984C474.746 382.247 472.298 387.858 472.298 387.858C472.298 387.858 476.714 375.159 475.121 373.764C473.526 372.369 470.602 384.697 470.602 384.697C470.602 384.697 472.153 370.249 470.602 369.479C469.05 368.709 468.302 382.555 468.302 382.555C468.302 382.555 467.246 367.907 465.301 368.126C463.356 368.345 465.301 381.144 465.301 381.144C465.301 381.144 460.951 371.404 459 371.795C457.05 372.186 462.135 381.877 462.135 381.877C462.135 381.877 456.982 376.027 455.491 377.399C453.998 378.771 460.101 385.178 460.101 385.178C460.101 385.178 454.869 382.246 453.519 383.71C452.168 385.173 459.001 388.327 459.001 388.327C459.001 388.327 453.427 389.629 453.815 390.877C454.203 392.125 459.001 391.956 459.001 391.956C459.001 391.956 461.079 400.832 471.339 395.63Z" fill="white"/>
<path d="M482.78 372.726C483.26 372.726 483.649 372.376 483.649 371.945C483.649 371.514 483.26 371.164 482.78 371.164C482.301 371.164 481.912 371.514 481.912 371.945C481.912 372.376 482.301 372.726 482.78 372.726Z" fill="#263238"/>
<path d="M472.848 392.536C472.836 392.536 472.824 392.535 472.811 392.533C472.699 392.515 472.624 392.419 472.644 392.318C472.677 392.159 475.898 376.386 483.585 369.586C483.667 369.514 483.798 369.515 483.877 369.588C483.957 369.661 483.956 369.779 483.875 369.85C476.281 376.566 473.081 392.225 473.05 392.382C473.033 392.473 472.946 392.536 472.848 392.536Z" fill="#263238"/>
<path d="M484.748 369.719C484.748 370.224 484.292 370.634 483.73 370.634C483.168 370.634 482.713 370.224 482.713 369.719C482.713 369.214 483.167 368.804 483.73 368.804C484.293 368.804 484.748 369.214 484.748 369.719Z" fill="#263238"/>
<path d="M481.484 377.085C481.484 377.516 481.095 377.866 480.615 377.866C480.136 377.866 479.747 377.516 479.747 377.085C479.747 376.654 480.135 376.304 480.615 376.304C481.095 376.304 481.484 376.653 481.484 377.085Z" fill="#263238"/>
<path d="M477.632 374.819C477.632 375.25 477.243 375.6 476.763 375.6C476.284 375.6 475.895 375.25 475.895 374.819C475.895 374.388 476.283 374.038 476.763 374.038C477.243 374.038 477.632 374.387 477.632 374.819Z" fill="#263238"/>
<path d="M479.459 380.697C479.938 380.697 480.327 380.347 480.327 379.916C480.327 379.485 479.938 379.135 479.459 379.135C478.979 379.135 478.59 379.485 478.59 379.916C478.59 380.347 478.979 380.697 479.459 380.697Z" fill="#263238"/>
<path d="M476.361 378.797C476.361 379.228 475.972 379.578 475.492 379.578C475.013 379.578 474.624 379.228 474.624 378.797C474.624 378.366 475.013 378.016 475.492 378.016C475.972 378.017 476.361 378.366 476.361 378.797Z" fill="#263238"/>
<path d="M479.815 371.414C480.294 371.414 480.683 371.064 480.683 370.633C480.683 370.202 480.294 369.852 479.815 369.852C479.335 369.852 478.946 370.202 478.946 370.633C478.946 371.064 479.335 371.414 479.815 371.414Z" fill="#263238"/>
<path d="M479.609 374.647V370.633C479.609 370.53 479.701 370.448 479.815 370.448C479.929 370.448 480.022 370.531 480.022 370.633V374.173L483.681 373.358C483.79 373.334 483.903 373.394 483.931 373.494C483.959 373.593 483.891 373.694 483.781 373.719L479.609 374.647Z" fill="#263238"/>
<path d="M477.751 378.006L476.568 374.878C476.531 374.781 476.589 374.675 476.697 374.642C476.806 374.61 476.922 374.661 476.958 374.758L478.021 377.571L480.57 377.057C480.682 377.036 480.791 377.098 480.817 377.198C480.841 377.298 480.772 377.397 480.661 377.42L477.751 378.006Z" fill="#263238"/>
<path d="M476.272 381.279L475.298 378.861C475.259 378.765 475.314 378.658 475.421 378.624C475.528 378.59 475.647 378.638 475.686 378.735L476.514 380.791L479.381 379.745C479.485 379.706 479.607 379.752 479.65 379.847C479.692 379.942 479.642 380.05 479.537 380.089L476.272 381.279Z" fill="#263238"/>
<path d="M462.465 396.653C462.402 396.653 462.338 396.627 462.298 396.576C458.231 391.526 453.203 386.016 446.763 383.434C446.658 383.392 446.611 383.283 446.658 383.189C446.705 383.096 446.826 383.054 446.931 383.095C453.461 385.713 458.533 391.269 462.633 396.359C462.7 396.442 462.68 396.558 462.588 396.618C462.55 396.641 462.507 396.653 462.465 396.653Z" fill="#263238"/>
<path d="M445.893 383.585C446.09 384.058 446.676 384.298 447.202 384.121C447.728 383.944 447.995 383.417 447.798 382.944C447.601 382.471 447.015 382.231 446.489 382.408C445.963 382.585 445.696 383.112 445.893 383.585Z" fill="#263238"/>
<path d="M446.578 387.253C446.775 387.726 447.361 387.966 447.887 387.789C448.413 387.612 448.68 387.085 448.483 386.612C448.286 386.139 447.7 385.899 447.174 386.076C446.648 386.253 446.381 386.78 446.578 387.253Z" fill="#263238"/>
<path d="M451.821 389.454C451.989 389.858 452.489 390.063 452.939 389.911C453.388 389.76 453.616 389.31 453.447 388.906C453.279 388.502 452.779 388.297 452.329 388.448C451.88 388.601 451.653 389.051 451.821 389.454Z" fill="#263238"/>
<path d="M454.546 386.118C454.713 386.522 455.214 386.727 455.663 386.575C456.112 386.424 456.34 385.974 456.171 385.57C456.003 385.166 455.503 384.961 455.054 385.112C454.606 385.264 454.378 385.714 454.546 386.118Z" fill="#263238"/>
<path d="M454.007 391.741C454.175 392.145 454.676 392.35 455.125 392.199C455.574 392.048 455.802 391.598 455.634 391.194C455.466 390.79 454.966 390.585 454.517 390.736C454.067 390.888 453.839 391.338 454.007 391.741Z" fill="#263238"/>
<path d="M457.287 389.444C457.455 389.848 457.955 390.053 458.404 389.902C458.853 389.751 459.081 389.301 458.912 388.897C458.745 388.493 458.244 388.288 457.795 388.439C457.347 388.59 457.119 389.04 457.287 389.444Z" fill="#263238"/>
<path d="M450.056 383.16C450.224 383.564 450.725 383.769 451.174 383.617C451.623 383.466 451.851 383.016 451.682 382.612C451.514 382.208 451.014 382.003 450.565 382.155C450.116 382.306 449.889 382.756 450.056 383.16Z" fill="#263238"/>
<path d="M448.334 387.026C448.231 387.026 448.142 386.956 448.129 386.862C448.116 386.76 448.197 386.668 448.311 386.656L452.056 386.266L450.676 382.95C450.636 382.854 450.69 382.747 450.797 382.711C450.904 382.675 451.023 382.724 451.063 382.82L452.627 386.579L448.358 387.024C448.351 387.026 448.342 387.026 448.334 387.026Z" fill="#263238"/>
<path d="M452.694 389.511C452.593 389.511 452.504 389.444 452.491 389.351C452.475 389.25 452.554 389.156 452.666 389.142L455.254 388.82L455.154 385.851C455.151 385.748 455.239 385.663 455.354 385.66C455.46 385.664 455.563 385.738 455.566 385.84L455.678 389.142L452.724 389.51C452.713 389.51 452.703 389.511 452.694 389.511Z" fill="#263238"/>
<path d="M458.336 391.74L454.815 391.654C454.701 391.651 454.611 391.566 454.615 391.463C454.618 391.36 454.716 391.29 454.826 391.283L457.919 391.36L457.894 389.173C457.893 389.071 457.984 388.987 458.098 388.986H458.101C458.214 388.986 458.305 389.068 458.306 389.17L458.336 391.74Z" fill="#263238"/>
<path d="M445.879 398.687H492.248C492.248 398.687 480.522 395.245 480.227 394.272C479.933 393.299 479.944 392.62 478.515 391.77C477.086 390.921 475.126 390.4 474.58 389.471C474.034 388.542 472.353 387.042 471.77 386.603C471.187 386.164 464.23 389.312 464.149 389.384C464.068 389.457 462.134 392.869 461.473 393.632C460.813 394.395 456.264 393.464 455.175 394.271C454.087 395.078 450.438 397.164 450.438 397.164C450.438 397.164 448.642 396.941 445.879 398.687Z" fill="#263238"/>
<path opacity="0.1" d="M445.879 398.687H492.248C492.248 398.687 480.522 395.245 480.227 394.272C479.933 393.299 479.944 392.62 478.515 391.77C477.086 390.921 475.126 390.4 474.58 389.471C474.034 388.542 472.353 387.042 471.77 386.603C471.187 386.164 464.23 389.312 464.149 389.384C464.068 389.457 462.134 392.869 461.473 393.632C460.813 394.395 456.264 393.464 455.175 394.271C454.087 395.078 450.438 397.164 450.438 397.164C450.438 397.164 448.642 396.941 445.879 398.687Z" fill="white"/>
<path d="M159.156 396.049C159.156 396.049 151.756 388.682 153.254 387.391C154.751 386.1 157.917 390.271 157.917 390.271C157.917 390.271 152.206 380.83 154.268 379.793C156.329 378.756 160.11 387.921 160.11 387.921C160.11 387.921 158.105 377.18 160.11 376.608C162.115 376.036 163.084 386.329 163.084 386.329C163.084 386.329 164.449 375.439 166.965 375.602C169.48 375.765 166.965 385.28 166.965 385.28C166.965 385.28 172.588 378.039 175.11 378.33C177.632 378.621 171.057 385.825 171.057 385.825C171.057 385.825 177.719 381.476 179.648 382.496C181.577 383.516 173.687 388.279 173.687 388.279C173.687 388.279 180.451 386.1 182.197 387.188C183.944 388.276 175.109 390.62 175.109 390.62C175.109 390.62 182.316 391.588 181.814 392.516C181.313 393.444 175.109 393.318 175.109 393.318C175.109 393.318 172.422 399.917 159.156 396.049Z" fill="#263238"/>
<path opacity="0.5" d="M159.156 396.049C159.156 396.049 151.756 388.682 153.254 387.391C154.751 386.1 157.917 390.271 157.917 390.271C157.917 390.271 152.206 380.83 154.268 379.793C156.329 378.756 160.11 387.921 160.11 387.921C160.11 387.921 158.105 377.18 160.11 376.608C162.115 376.036 163.084 386.329 163.084 386.329C163.084 386.329 164.449 375.439 166.965 375.602C169.48 375.765 166.965 385.28 166.965 385.28C166.965 385.28 172.588 378.039 175.11 378.33C177.632 378.621 171.057 385.825 171.057 385.825C171.057 385.825 177.719 381.476 179.648 382.496C181.577 383.516 173.687 388.279 173.687 388.279C173.687 388.279 180.451 386.1 182.197 387.188C183.944 388.276 175.109 390.62 175.109 390.62C175.109 390.62 182.316 391.588 181.814 392.516C181.313 393.444 175.109 393.318 175.109 393.318C175.109 393.318 172.422 399.917 159.156 396.049Z" fill="white"/>
<path d="M152.986 372.726C153.465 372.726 153.854 372.376 153.854 371.945C153.854 371.514 153.465 371.164 152.986 371.164C152.506 371.164 152.117 371.514 152.117 371.945C152.117 372.376 152.506 372.726 152.986 372.726Z" fill="#263238"/>
<path d="M162.919 392.536C162.931 392.536 162.944 392.535 162.956 392.533C163.068 392.515 163.143 392.419 163.123 392.318C163.09 392.159 159.869 376.386 152.182 369.586C152.1 369.514 151.97 369.515 151.89 369.588C151.81 369.661 151.811 369.779 151.893 369.85C159.486 376.566 162.686 392.225 162.717 392.382C162.735 392.473 162.821 392.536 162.919 392.536Z" fill="#263238"/>
<path d="M151.02 369.719C151.02 370.224 151.476 370.634 152.037 370.634C152.599 370.634 153.055 370.224 153.055 369.719C153.055 369.214 152.599 368.804 152.037 368.804C151.474 368.804 151.02 369.214 151.02 369.719Z" fill="#263238"/>
<path d="M154.283 377.085C154.283 377.516 154.673 377.866 155.152 377.866C155.631 377.866 156.02 377.516 156.02 377.085C156.02 376.654 155.632 376.304 155.152 376.304C154.671 376.304 154.283 376.653 154.283 377.085Z" fill="#263238"/>
<path d="M158.135 374.819C158.135 375.25 158.524 375.6 159.004 375.6C159.483 375.6 159.872 375.25 159.872 374.819C159.872 374.388 159.483 374.038 159.004 374.038C158.523 374.038 158.135 374.387 158.135 374.819Z" fill="#263238"/>
<path d="M156.308 380.697C156.788 380.697 157.177 380.347 157.177 379.916C157.177 379.485 156.788 379.135 156.308 379.135C155.829 379.135 155.44 379.485 155.44 379.916C155.44 380.347 155.829 380.697 156.308 380.697Z" fill="#263238"/>
<path d="M159.406 378.797C159.406 379.228 159.796 379.578 160.275 379.578C160.754 379.578 161.143 379.228 161.143 378.797C161.143 378.366 160.754 378.016 160.275 378.016C159.796 378.017 159.406 378.366 159.406 378.797Z" fill="#263238"/>
<path d="M155.952 371.414C156.432 371.414 156.821 371.064 156.821 370.633C156.821 370.202 156.432 369.852 155.952 369.852C155.473 369.852 155.084 370.202 155.084 370.633C155.084 371.064 155.473 371.414 155.952 371.414Z" fill="#263238"/>
<path d="M156.158 374.647V370.633C156.158 370.53 156.066 370.448 155.952 370.448C155.839 370.448 155.746 370.531 155.746 370.633V374.173L152.086 373.358C151.977 373.334 151.864 373.394 151.836 373.494C151.808 373.593 151.876 373.694 151.986 373.719L156.158 374.647Z" fill="#263238"/>
<path d="M158.016 378.006L159.198 374.878C159.235 374.781 159.177 374.675 159.069 374.642C158.96 374.61 158.844 374.661 158.808 374.758L157.745 377.571L155.196 377.057C155.085 377.036 154.975 377.098 154.951 377.198C154.926 377.298 154.995 377.397 155.106 377.42L158.016 378.006Z" fill="#263238"/>
<path d="M159.494 381.279L160.468 378.861C160.507 378.765 160.452 378.658 160.345 378.624C160.238 378.59 160.119 378.638 160.08 378.735L159.252 380.791L156.385 379.745C156.28 379.706 156.159 379.752 156.116 379.847C156.074 379.942 156.124 380.05 156.229 380.088L159.494 381.279Z" fill="#263238"/>
<path d="M173.302 396.653C173.366 396.653 173.429 396.627 173.469 396.576C177.536 391.526 182.564 386.016 189.004 383.434C189.109 383.392 189.156 383.283 189.109 383.189C189.062 383.096 188.941 383.054 188.837 383.095C182.306 385.713 177.234 391.269 173.134 396.359C173.067 396.442 173.087 396.558 173.18 396.618C173.217 396.641 173.26 396.653 173.302 396.653Z" fill="#263238"/>
<path d="M189.874 383.585C189.677 384.058 189.091 384.298 188.565 384.121C188.039 383.944 187.772 383.417 187.969 382.944C188.166 382.471 188.752 382.231 189.278 382.408C189.804 382.585 190.071 383.112 189.874 383.585Z" fill="#263238"/>
<path d="M189.189 387.253C188.992 387.726 188.406 387.966 187.88 387.789C187.354 387.612 187.087 387.085 187.284 386.612C187.481 386.139 188.067 385.899 188.593 386.076C189.119 386.253 189.386 386.78 189.189 387.253Z" fill="#263238"/>
<path d="M183.946 389.454C183.778 389.858 183.278 390.063 182.828 389.911C182.379 389.76 182.151 389.31 182.319 388.906C182.487 388.502 182.987 388.297 183.437 388.448C183.886 388.601 184.114 389.051 183.946 389.454Z" fill="#263238"/>
<path d="M181.222 386.118C181.054 386.522 180.553 386.727 180.104 386.575C179.655 386.424 179.427 385.974 179.595 385.57C179.763 385.166 180.263 384.961 180.712 385.112C181.161 385.264 181.389 385.714 181.222 386.118Z" fill="#263238"/>
<path d="M181.759 391.741C181.591 392.145 181.09 392.35 180.641 392.199C180.192 392.048 179.964 391.598 180.132 391.194C180.3 390.79 180.8 390.585 181.249 390.736C181.699 390.888 181.927 391.338 181.759 391.741Z" fill="#263238"/>
<path d="M178.479 389.444C178.311 389.848 177.811 390.053 177.362 389.902C176.913 389.751 176.685 389.301 176.854 388.897C177.022 388.493 177.522 388.288 177.971 388.439C178.42 388.59 178.648 389.04 178.479 389.444Z" fill="#263238"/>
<path d="M185.711 383.16C185.543 383.564 185.042 383.769 184.593 383.617C184.144 383.465 183.916 383.016 184.084 382.612C184.252 382.208 184.752 382.003 185.201 382.155C185.651 382.306 185.879 382.756 185.711 383.16Z" fill="#263238"/>
<path d="M187.433 387.026C187.537 387.026 187.626 386.956 187.638 386.862C187.651 386.76 187.57 386.668 187.457 386.656L183.711 386.266L185.091 382.95C185.131 382.854 185.077 382.747 184.97 382.711C184.863 382.675 184.744 382.724 184.704 382.82L183.14 386.579L187.409 387.024C187.416 387.026 187.424 387.026 187.433 387.026Z" fill="#263238"/>
<path d="M183.073 389.511C183.174 389.511 183.263 389.444 183.277 389.351C183.292 389.25 183.213 389.156 183.101 389.142L180.513 388.82L180.613 385.851C180.617 385.748 180.528 385.663 180.413 385.66C180.307 385.664 180.204 385.738 180.201 385.84L180.09 389.142L183.043 389.51C183.054 389.51 183.064 389.511 183.073 389.511Z" fill="#263238"/>
<path d="M177.43 391.74L180.951 391.654C181.065 391.651 181.155 391.566 181.151 391.463C181.148 391.36 181.05 391.29 180.94 391.283L177.847 391.36L177.872 389.173C177.873 389.071 177.782 388.987 177.669 388.986H177.666C177.553 388.986 177.462 389.068 177.46 389.17L177.43 391.74Z" fill="#263238"/>
<path d="M189.888 398.687H143.519C143.519 398.687 155.245 395.245 155.54 394.272C155.835 393.299 155.823 392.62 157.252 391.77C158.681 390.921 160.641 390.4 161.187 389.471C161.733 388.542 163.414 387.042 163.997 386.603C164.58 386.164 171.536 389.312 171.618 389.384C171.699 389.457 173.633 392.869 174.294 393.632C174.954 394.395 179.503 393.464 180.591 394.271C181.679 395.078 185.328 397.164 185.328 397.164C185.328 397.164 187.125 396.941 189.888 398.687Z" fill="#263238"/>
<path opacity="0.1" d="M189.888 398.687H143.519C143.519 398.687 155.245 395.245 155.54 394.272C155.835 393.299 155.823 392.62 157.252 391.77C158.681 390.921 160.641 390.4 161.187 389.471C161.733 388.542 163.414 387.042 163.997 386.603C164.58 386.164 171.536 389.312 171.618 389.384C171.699 389.457 173.633 392.869 174.294 393.632C174.954 394.395 179.503 393.464 180.591 394.271C181.679 395.078 185.328 397.164 185.328 397.164C185.328 397.164 187.125 396.941 189.888 398.687Z" fill="white"/>
<path opacity="0.2" d="M242.885 233.277C242.635 232.834 243.402 232.033 244.597 231.489C245.792 230.945 246.963 230.863 247.212 231.307C247.462 231.75 246.695 232.551 245.501 233.095C244.306 233.639 243.135 233.72 242.885 233.277Z" fill="black"/>
<path d="M467.359 398.683H262.635C262.635 398.683 262.925 398.153 263.482 397.18C263.921 396.419 264.52 395.388 265.271 394.126L265.292 394.107C273.938 379.694 302.746 335.318 337.972 320.433H383.965C420.723 335.318 454.105 379.694 464.23 394.107C466.266 396.997 467.359 398.683 467.359 398.683Z" fill="#3CC22E"/>
<path opacity="0.1" d="M407.471 398.683H262.635C262.635 398.683 262.925 398.153 263.482 397.18C268.913 387.738 299.651 336.628 337.972 320.433H368.698C393.104 350.164 407.471 398.683 407.471 398.683Z" fill="white"/>
<path opacity="0.4" d="M467.359 398.683H262.635C262.635 398.683 262.925 398.153 263.482 397.18C263.921 396.419 264.52 395.388 265.271 394.126L265.292 394.107H464.23C466.266 396.997 467.359 398.683 467.359 398.683Z" fill="black"/>
<path d="M258.351 398.687C258.351 398.687 312.683 315.498 360.717 315.498C408.751 315.498 469.5 398.687 469.5 398.687" stroke="#263238" stroke-width="0.9634" stroke-miterlimit="10"/>
<path d="M358.469 315.498C381.544 315.498 410.728 398.687 410.728 398.687" stroke="#263238" stroke-width="0.9634" stroke-miterlimit="10"/>
<path d="M329.212 323.864C329.212 323.864 344.257 313.764 359.515 313.764C374.773 313.764 390.031 322.34 390.031 322.34C390.031 322.34 382.049 321.832 374.561 323.865C374.561 323.865 346.448 320.561 329.212 323.864Z" fill="#3CC22E"/>
<path opacity="0.2" d="M329.212 323.864C329.212 323.864 344.257 313.764 359.515 313.764C374.773 313.764 390.031 322.34 390.031 322.34C390.031 322.34 382.049 321.832 374.561 323.865C374.561 323.865 346.448 320.561 329.212 323.864Z" fill="white"/>
<path d="M323.985 330.47L321.866 328.184L316.497 332.376L317.91 334.155L323.985 330.47Z" fill="#3CC22E"/>
<path d="M303.783 346.987L300.957 344.954L295.871 350.036L298.414 352.704L303.783 346.987Z" fill="#3CC22E"/>
<path d="M283.862 368.585L280.613 366.679L277.364 371.125L280.613 373.539L283.862 368.585Z" fill="#3CC22E"/>
<path d="M270.301 387.896L265.355 385.863L261.824 391.326L266.817 394.121L270.301 387.896Z" fill="#3CC22E"/>
<path d="M375.975 331.169L379.365 330.089L382.332 334.155L379.153 335.425L375.975 331.169Z" fill="#3CC22E"/>
<path d="M398.813 330.414L401.533 328.297L405.943 331.112L403.497 333.336L398.813 330.414Z" fill="#3CC22E"/>
<path d="M421.442 347.795L424.574 346.203L428.279 349.744L425.393 351.491L421.442 347.795Z" fill="#3CC22E"/>
<path d="M439.015 365.212L442.36 364.022L445.489 367.988L442.365 369.362L439.015 365.212Z" fill="#3CC22E"/>
<path d="M457.517 386.769L460.862 385.58L463.991 389.546L460.865 390.919L457.517 386.769Z" fill="#3CC22E"/>
<path d="M387.117 348.08L390.638 347.417L392.974 351.802L389.636 352.68L387.117 348.08Z" fill="#3CC22E"/>
<path d="M396.505 367.058L400.078 366.679L401.971 371.233L398.559 371.841L396.505 367.058Z" fill="#3CC22E"/>
<path d="M404.738 388.628L408.31 388.249L410.203 392.804L406.792 393.411L404.738 388.628Z" fill="#3CC22E"/>
<path d="M366.364 398.683H297.423C297.423 398.683 313.89 351.002 338.156 349.991C339.002 349.952 339.848 349.972 340.706 350.049C366.364 352.447 366.364 398.683 366.364 398.683Z" fill="#263238"/>
<path opacity="0.4" d="M366.364 398.683H322.117C322.899 394.232 327.924 367.275 338.156 349.991C339.002 349.952 339.848 349.972 340.706 350.049C366.364 352.447 366.364 398.683 366.364 398.683Z" fill="black"/>
<path d="M109.746 416.238H82.3503L122.407 368.334H149.803L109.746 416.238Z" stroke="#263238" stroke-width="3" stroke-miterlimit="10" stroke-linecap="round" stroke-linejoin="round"/>
<path d="M122.407 416.238H149.803L109.746 368.334H82.3503L122.407 416.238Z" stroke="#263238" stroke-width="3" stroke-miterlimit="10" stroke-linecap="round" stroke-linejoin="round"/>
<path opacity="0.2" d="M131.861 392.286L151.136 369.235C151.69 368.573 151.542 367.632 150.806 367.134C150.07 366.637 149.025 366.769 148.471 367.432L129.775 389.79L111.079 367.432C110.526 366.769 109.48 366.637 108.744 367.134C108.007 367.632 107.86 368.572 108.413 369.235L127.688 392.286L108.413 415.337C107.86 415.999 108.007 416.94 108.744 417.438C109.044 417.641 109.395 417.739 109.744 417.739C110.25 417.739 110.751 417.533 111.079 417.14L129.775 394.782L148.471 417.14C148.798 417.533 149.299 417.739 149.805 417.739C150.154 417.739 150.506 417.641 150.806 417.438C151.542 416.94 151.69 415.999 151.136 415.337L131.861 392.286Z" fill="white"/>
<path d="M155.502 367.46V369.77C155.502 369.77 136.732 374.65 115.314 369.77H78.8074V367.46C78.8074 366.41 79.7526 365.55 80.9314 365.55H110.777C111.067 365.55 111.356 365.59 111.623 365.69C111.834 365.76 112.112 365.85 112.468 365.94C112.468 365.94 112.468 365.94 112.479 365.94C112.479 365.94 112.479 365.95 112.49 365.95C114.125 366.37 117.138 366.86 120.129 365.74C120.441 365.62 120.774 365.55 121.108 365.55H153.367C154.546 365.55 155.502 366.41 155.502 367.46Z" fill="#3CC22E"/>
<path opacity="0.2" d="M153.067 365.55C152.211 365.55 151.365 365.68 150.565 365.94C147.54 366.92 139.022 369.4 129.948 369.64C118.962 369.92 112.846 366.18 112.49 365.95C114.125 366.37 117.138 366.86 120.129 365.74C120.441 365.62 120.774 365.55 121.108 365.55H153.067Z" fill="white"/>
<path d="M258.695 261.671H253.883L247.07 267.798" stroke="#263238" stroke-width="2" stroke-miterlimit="10" stroke-linecap="round" stroke-linejoin="round"/>
<path d="M268.666 252.958H258.695V257.351H268.666V252.958Z" fill="#263238"/>
<path d="M264.748 239.902C264.748 238.144 263.164 236.718 261.208 236.718C259.253 236.718 257.667 238.143 257.667 239.902L255.174 252.147H266.465L264.748 239.902Z" fill="#263238"/>
<path d="M349.258 200.163C346.645 195.521 342.801 192.544 340.67 193.513L273.573 224.057C271.444 225.027 271.835 229.576 274.447 234.218C277.06 238.86 280.905 241.837 283.035 240.868L350.132 210.325C352.263 209.354 351.871 204.805 349.258 200.163Z" fill="#3CC22E"/>
<path opacity="0.5" d="M349.258 200.163C346.645 195.521 342.801 192.544 340.67 193.513L273.573 224.057C271.444 225.027 271.835 229.576 274.447 234.218C277.06 238.86 280.905 241.837 283.035 240.868L350.132 210.325C352.263 209.354 351.871 204.805 349.258 200.163Z" fill="white"/>
<path opacity="0.2" d="M283.035 240.867C280.905 241.837 277.06 238.859 274.447 234.217C271.834 229.575 271.443 225.026 273.573 224.056C275.703 223.086 279.548 226.064 282.161 230.706C284.774 235.348 285.166 239.898 283.035 240.867Z" fill="black"/>
<path d="M279.527 231.905C277.693 228.647 274.994 226.558 273.5 227.238L238.392 243.22C236.897 243.9 237.172 247.093 239.005 250.351C240.839 253.609 243.538 255.698 245.033 255.018L280.141 239.036C281.635 238.356 281.36 235.163 279.527 231.905Z" fill="#3CC22E"/>
<path opacity="0.2" d="M245.033 255.018C243.538 255.698 240.839 253.609 239.005 250.351C237.172 247.093 236.897 243.901 238.392 243.22C239.886 242.54 242.585 244.629 244.419 247.887C246.254 251.145 246.528 254.337 245.033 255.018Z" fill="black"/>
<path d="M242.867 248.593C241.276 245.766 238.935 243.953 237.638 244.544L233.649 246.36C232.352 246.95 232.59 249.721 234.182 252.548C235.773 255.375 238.115 257.188 239.411 256.597L243.4 254.781C244.698 254.19 244.459 251.42 242.867 248.593Z" fill="#3CC22E"/>
<path opacity="0.5" d="M242.867 248.593C241.276 245.766 238.935 243.953 237.638 244.544L233.649 246.36C232.352 246.95 232.59 249.721 234.182 252.548C235.773 255.375 238.115 257.188 239.411 256.597L243.4 254.781C244.698 254.19 244.459 251.42 242.867 248.593Z" fill="white"/>
<path opacity="0.2" d="M239.411 256.596C238.115 257.186 235.773 255.373 234.182 252.547C232.59 249.72 232.352 246.95 233.649 246.359C234.947 245.769 237.287 247.582 238.879 250.408C240.47 253.236 240.709 256.006 239.411 256.596Z" fill="black"/>
<path d="M249.293 241.017C250.488 240.473 251.254 239.672 251.004 239.229L247.213 232.494C246.964 232.051 245.792 232.132 244.598 232.676C243.402 233.22 242.636 234.02 242.885 234.464L246.676 241.199C246.926 241.642 248.097 241.561 249.293 241.017Z" fill="#3CC22E"/>
<path opacity="0.5" d="M249.293 241.017C250.488 240.473 251.254 239.672 251.004 239.229L247.213 232.494C246.964 232.051 245.792 232.132 244.598 232.676C243.402 233.22 242.636 234.02 242.885 234.464L246.676 241.199C246.926 241.642 248.097 241.561 249.293 241.017Z" fill="white"/>
<path d="M271.054 239.902C271.054 238.144 269.47 236.718 267.514 236.718C265.559 236.718 263.973 238.143 263.973 239.902L261.48 252.147H272.771L271.054 239.902Z" fill="#263238"/>
<path opacity="0.3" d="M271.054 239.902C271.054 238.144 269.47 236.718 267.514 236.718C265.559 236.718 263.973 238.143 263.973 239.902L261.48 252.147H272.771L271.054 239.902Z" fill="white"/>
<path d="M271.647 253.771H256.3C255.679 253.771 255.175 253.318 255.175 252.759V252.146H272.771V252.759C272.771 253.318 272.269 253.771 271.647 253.771Z" fill="#263238"/>
<path opacity="0.3" d="M271.647 253.771H256.3C255.679 253.771 255.175 253.318 255.175 252.759V252.146H272.771V252.759C272.771 253.318 272.269 253.771 271.647 253.771Z" fill="white"/>
<path d="M270.661 265.989H256.715C255.865 265.989 255.175 265.369 255.175 264.604V258.736C255.175 257.971 255.865 257.351 256.715 257.351H270.661C271.511 257.351 272.201 257.971 272.201 258.736V264.604C272.2 265.369 271.51 265.989 270.661 265.989Z" fill="#263238"/>
<path opacity="0.3" d="M270.661 265.989H256.715C255.865 265.989 255.175 265.369 255.175 264.604V258.736C255.175 257.971 255.865 257.351 256.715 257.351H270.661C271.511 257.351 272.201 257.971 272.201 258.736V264.604C272.2 265.369 271.51 265.989 270.661 265.989Z" fill="white"/>
<path d="M272.185 262.033C272.185 263.453 270.905 264.604 269.326 264.604C267.747 264.604 266.466 263.453 266.466 262.033C266.466 260.613 267.746 259.462 269.326 259.462C270.905 259.462 272.185 260.613 272.185 262.033Z" fill="#263238"/>
<path d="M281.498 313.339H245.256C243.926 313.339 242.839 312.361 242.839 311.165C242.839 309.969 243.926 308.991 245.256 308.991H281.498C282.828 308.991 283.916 309.969 283.916 311.165C283.916 312.36 282.828 313.339 281.498 313.339Z" fill="#263238"/>
<path d="M302.586 417.738H307.133L270.841 264.256C270.585 263.176 269.404 262.482 268.203 262.716C267.001 262.946 266.235 264.008 266.491 265.088L302.586 417.738Z" fill="#263238"/>
<path d="M265.911 417.738V264.672C265.911 263.567 264.915 262.672 263.687 262.672C262.459 262.672 261.463 263.567 261.463 264.672V417.738H265.911Z" fill="#263238"/>
<path d="M224.61 417.738L260.706 265.088C260.962 264.008 260.195 262.945 258.994 262.716C257.792 262.481 256.611 263.176 256.356 264.256L220.064 417.738H224.61Z" fill="#263238"/>
<g opacity="0.1">
<path d="M265.911 417.738V264.672C265.911 263.567 264.915 262.672 263.687 262.672C262.459 262.672 261.463 263.567 261.463 264.672V417.738H265.911Z" fill="white"/>
</g>
<path d="M232.488 265.355L240.641 262.671L237.843 269.577C237.843 269.577 232.744 270.288 230.733 267.888L232.488 265.355Z" fill="#FFB573"/>
<path d="M247.07 264.542L244.38 270.209L237.843 269.576L240.641 262.67L247.07 264.542Z" fill="#FFB573"/>
<path d="M234.234 265.322C230.115 265.056 225.936 264.817 221.934 264.454C219.946 264.272 217.948 264.038 216.246 263.695C215.894 263.62 215.568 263.538 215.279 263.452C215.184 263.245 215.087 263.03 214.991 262.784C213.656 259.544 212.429 255.913 211.18 252.389C209.966 248.834 208.734 245.241 207.465 241.708L198.066 244.254C199.236 247.935 200.528 251.534 201.947 255.138C202.652 256.939 203.35 258.746 204.145 260.541C204.927 262.343 205.723 264.134 206.713 266.003C206.94 266.455 207.238 266.967 207.529 267.465L207.638 267.652L207.693 267.745L207.841 267.98C208.163 268.473 208.529 268.842 208.854 269.117C209.52 269.672 210.099 269.959 210.573 270.167C211.539 270.577 212.275 270.742 212.981 270.881C213.675 271.011 214.312 271.089 214.93 271.15C217.375 271.382 219.576 271.326 221.776 271.231C226.159 271.006 230.367 270.475 234.612 269.682L234.234 265.322ZM214.567 263.169C214.567 263.169 214.655 263.186 214.827 263.301C214.663 263.236 214.547 263.18 214.567 263.169Z" fill="#3CC22E"/>
<path opacity="0.3" d="M234.234 265.322C230.115 265.056 225.936 264.817 221.934 264.454C219.946 264.272 217.948 264.038 216.246 263.695C215.894 263.62 215.568 263.538 215.279 263.452C215.184 263.245 215.087 263.03 214.991 262.784C213.656 259.544 212.429 255.913 211.18 252.389C209.966 248.834 208.734 245.241 207.465 241.708L198.066 244.254C199.236 247.935 200.528 251.534 201.947 255.138C202.652 256.939 203.35 258.746 204.145 260.541C204.927 262.343 205.723 264.134 206.713 266.003C206.94 266.455 207.238 266.967 207.529 267.465L207.638 267.652L207.693 267.745L207.841 267.98C208.163 268.473 208.529 268.842 208.854 269.117C209.52 269.672 210.099 269.959 210.573 270.167C211.539 270.577 212.275 270.742 212.981 270.881C213.675 271.011 214.312 271.089 214.93 271.15C217.375 271.382 219.576 271.326 221.776 271.231C226.159 271.006 230.367 270.475 234.612 269.682L234.234 265.322ZM214.567 263.169C214.567 263.169 214.655 263.186 214.827 263.301C214.663 263.236 214.547 263.18 214.567 263.169Z" fill="white"/>
<path d="M231.472 264.89L234.514 264.604L235.017 270.172L232.262 270.797L231.472 264.89Z" fill="#3CC22E"/>
<path opacity="0.5" d="M231.472 264.89L234.514 264.604L235.017 270.172L232.262 270.797L231.472 264.89Z" fill="white"/>
<path d="M246.953 230.245C246.953 230.245 245.752 228.82 244.062 228.965" stroke="#263238" stroke-width="0.4835" stroke-miterlimit="10" stroke-linecap="round" stroke-linejoin="round"/>
<path d="M242.714 232.292C242.714 232.292 242.09 234.072 242.073 235.437C242.073 235.437 240.973 235.654 240.21 234.753L242.714 232.292Z" fill="#D58745"/>
<path d="M244.941 231.855C244.54 232.227 243.992 232.334 243.715 232.094C243.439 231.854 243.54 231.357 243.942 230.984C244.343 230.612 244.891 230.504 245.168 230.745C245.443 230.986 245.342 231.482 244.941 231.855Z" fill="#263238"/>
<path d="M245.033 230.663L246.276 231.13C246.276 231.13 245.093 231.421 245.033 230.663Z" fill="#263238"/>
<path d="M224.959 229.118C224.959 229.202 224.965 229.292 224.984 229.371C225.121 230.537 225.386 231.791 226.067 232.915C227.966 236.065 230.118 237.537 232.58 237.658C232.586 237.664 232.586 237.664 232.586 237.664C236.165 237.73 240.066 235.36 244.06 231.779C245.897 230.141 247.337 228.556 248.175 227.036C248.183 227.019 248.231 226.981 248.238 226.965C248.268 226.899 248.324 226.823 248.354 226.758C249.482 224.588 249.498 222.457 248.133 220.159C247.659 219.366 247.022 218.544 246.21 217.693C239.031 210.223 224.09 219.714 224.959 229.118Z" fill="#EBB376"/>
<path opacity="0.2" d="M224.984 229.372C225.121 230.538 225.501 231.701 226.183 232.824C228.081 235.974 230.33 237.371 232.812 237.476C231.235 236.442 229.419 234.807 228.631 232.441C228.129 230.952 226.696 229.994 224.984 229.372Z" fill="black"/>
<path d="M248.234 226.997C248.234 226.997 242.862 231.987 235.555 229.036C235.555 229.036 227.486 231.684 224.349 228.642C220.073 224.494 223.113 215.433 231.385 211.478C242.114 206.35 254.682 217.847 248.234 226.997Z" fill="#263238"/>
<path d="M239.658 230.211C240.557 229.495 241.43 227.643 239.99 226.547C238.498 225.413 234.219 227.526 236.564 231.36C236.899 231.912 237.783 231.706 239.658 230.211Z" fill="#EBB376"/>
<path d="M245.495 213.088C245.495 213.088 251.749 216.934 252.222 221.429C252.774 226.678 251.289 230.014 243.422 229.525C243.422 229.525 238.257 218.832 234.91 216.572C231.563 214.312 228.726 213.047 228.726 213.047C234.261 207.618 244.03 209.332 245.495 213.088Z" fill="#263238"/>
<path d="M229.379 235.82C229.379 235.82 224.107 234.402 222.761 241.054L211.653 235.29C211.653 235.29 219.984 233.423 223.603 227.763C223.603 227.763 227.239 227.038 229.379 235.82Z" fill="#EBB376"/>
<path d="M235.555 229.036C235.555 229.036 234.32 233.874 236.205 236.503C236.205 236.503 224.068 235.004 219.395 231.185C214.723 227.365 220.129 215.609 228.725 210.656C237.322 205.703 244.762 208.912 249.18 216.258C249.18 216.258 237.132 221.824 235.686 225.088C234.243 228.351 235.555 229.036 235.555 229.036Z" fill="#263238"/>
<path d="M232.164 410.695L237.264 409.444C235.395 386.312 230.349 358.399 226.058 337.47C225.385 334.188 224.736 331.088 224.111 328.198C223.811 326.824 223.529 325.505 223.251 324.234C221.887 317.961 220.74 313.006 220.026 309.942C219.503 307.708 219.206 306.481 219.206 306.481L200.867 311.264L202.394 315.42L207.434 329.14L208.006 330.71L211.344 339.767L217.01 355.191C217.797 378.782 232.164 410.695 232.164 410.695Z" fill="#EBB376"/>
<path d="M187.682 409.576L192.951 409.121C195.702 384.034 195.812 352.8 195.436 331.097C195.374 327.735 195.305 324.592 195.233 321.746C195.229 321.599 195.218 321.463 195.218 321.325C195.066 315.675 194.902 311.183 194.787 308.339C194.685 306.113 194.631 304.893 194.631 304.893L175.65 306.801L176.83 313.902L178.559 324.337L178.901 326.382L180.084 333.492L183.256 352.559C179.565 375.924 187.682 409.576 187.682 409.576Z" fill="#EBB376"/>
<path opacity="0.2" d="M178.558 324.336L195.233 321.746C195.229 321.599 195.218 321.463 195.218 321.325C195.066 315.675 194.902 311.183 194.787 308.339L176.83 313.901L178.558 324.336Z" fill="black"/>
<path opacity="0.2" d="M221.867 317.964L204.318 320.643L202.397 315.418L220.026 309.944C220.481 311.893 221.115 314.617 221.867 317.964Z" fill="black"/>
<path d="M176.397 261.74C176.397 261.74 165.014 285.653 175.649 320.326L196.383 318.194V309.944L199.598 317.465L221.656 313.789C215.264 285.654 209.502 272.89 209.502 272.89L207.955 258.731L176.397 261.74Z" fill="#263238"/>
<path d="M185.182 408.611C185.198 408.016 193.331 408.482 193.331 408.482C193.331 408.482 198.335 413.058 203.195 414.087C208.055 415.116 205.339 417.738 199.906 417.738C194.474 417.738 190.329 417.738 186.469 417.738C182.609 417.738 185.022 414.781 185.182 408.611Z" fill="#263238"/>
<path d="M197.61 410.354C196.474 410.354 194.668 409.61 194.24 409.427C194.211 409.415 194.186 409.398 194.167 409.377C194.156 409.365 194.146 409.351 194.139 409.337C194.115 409.292 194.111 409.239 194.131 409.189C194.16 409.116 194.842 407.409 195.946 406.997C196.296 406.866 196.649 406.876 196.999 407.023C197.369 407.181 197.549 407.388 197.532 407.638C197.508 408.022 196.929 408.408 196.267 408.725C196.955 408.664 197.659 408.681 198.091 408.904C198.32 409.022 198.466 409.189 198.525 409.399C198.648 409.832 198.486 410.062 198.329 410.179C198.158 410.303 197.907 410.354 197.61 410.354ZM194.984 409.305C196.181 409.761 197.671 410.165 198.055 409.881C198.088 409.856 198.19 409.781 198.108 409.494C198.078 409.387 198.003 409.304 197.876 409.238C197.29 408.936 195.895 409.122 194.984 409.305ZM196.438 407.29C196.329 407.29 196.219 407.311 196.109 407.352C195.508 407.577 194.995 408.372 194.713 408.925C195.919 408.513 197.082 407.944 197.103 407.615C197.11 407.513 196.924 407.418 196.813 407.371C196.687 407.318 196.563 407.29 196.438 407.29Z" fill="#3CC22E"/>
<path d="M230.713 408.611C230.729 408.016 238.862 408.482 238.862 408.482C238.862 408.482 243.865 413.058 248.725 414.087C253.586 415.116 250.869 417.738 245.437 417.738C240.005 417.738 235.86 417.738 232 417.738C228.14 417.738 230.552 414.781 230.713 408.611Z" fill="#263238"/>
<path d="M243.141 410.354C242.005 410.354 240.198 409.61 239.771 409.427C239.742 409.415 239.717 409.398 239.698 409.377C239.687 409.365 239.677 409.351 239.669 409.337C239.646 409.292 239.642 409.239 239.662 409.189C239.69 409.116 240.373 407.409 241.476 406.997C241.827 406.866 242.18 406.876 242.528 407.023C242.899 407.181 243.079 407.388 243.063 407.638C243.039 408.022 242.459 408.408 241.798 408.725C242.486 408.664 243.19 408.681 243.621 408.904C243.85 409.022 243.997 409.189 244.056 409.399C244.179 409.832 244.017 410.062 243.859 410.179C243.689 410.303 243.438 410.354 243.141 410.354ZM240.514 409.305C241.712 409.761 243.202 410.165 243.586 409.881C243.619 409.856 243.72 409.781 243.639 409.494C243.609 409.387 243.534 409.304 243.407 409.238C242.821 408.936 241.426 409.122 240.514 409.305ZM241.969 407.29C241.86 407.29 241.751 407.311 241.64 407.352C241.039 407.577 240.526 408.372 240.244 408.925C241.449 408.513 242.613 407.944 242.634 407.615C242.641 407.513 242.455 407.418 242.344 407.371C242.218 407.318 242.094 407.29 241.969 407.29Z" fill="#3CC22E"/>
<path opacity="0.2" d="M196.387 309.941V314.821C174.722 306.679 180.087 287.214 180.087 287.214C181.48 294.689 190.992 297.458 190.992 297.458L196.387 309.941Z" fill="black"/>
<path opacity="0.2" d="M185.622 275.166H194.641L195.593 283.246L190.607 286.735L185.622 283.963V275.166Z" fill="black"/>
<path opacity="0.2" d="M176.896 273.844L176.398 283.248L173.196 287.214C173.196 287.214 172.16 286.391 171.276 285.56C171.53 281.091 172.099 277.162 172.769 273.845H176.896V273.844Z" fill="black"/>
<path d="M198.15 316.337C198.15 316.337 198.575 319.018 199.284 318.508C199.993 317.998 222.541 314.82 222.541 314.82V312.131L198.15 316.337Z" fill="#3CC22E"/>
<path opacity="0.7" d="M198.15 316.337C198.15 316.337 198.575 319.018 199.284 318.508C199.993 317.998 222.541 314.82 222.541 314.82V312.131L198.15 316.337Z" fill="white"/>
<path d="M174.963 319.842C174.963 319.842 175.345 322.535 175.981 322.046C176.617 321.556 196.841 319.026 196.841 319.026V316.337L174.963 319.842Z" fill="#3CC22E"/>
<path opacity="0.7" d="M174.963 319.842C174.963 319.842 175.345 322.535 175.981 322.046C176.617 321.556 196.841 319.026 196.841 319.026V316.337L174.963 319.842Z" fill="white"/>
<path d="M171.109 273.182L213.364 279.293L211.653 265.954L234.423 249.694C234.423 249.694 232.773 238.96 220.515 233.423C208.258 227.886 200.867 230.923 200.867 230.923C200.867 230.923 179.269 240.62 171.109 273.182Z" fill="#3CC22E"/>
<path opacity="0.5" d="M171.109 273.182L213.364 279.293L211.653 265.954L234.423 249.694C234.423 249.694 232.773 238.96 220.515 233.423C208.258 227.886 200.867 230.923 200.867 230.923C200.867 230.923 179.269 240.62 171.109 273.182Z" fill="white"/>
<path d="M227.239 237.736C227.239 237.736 222.51 228.461 207.62 225.017C192.73 221.574 192.63 235.921 195.233 239.747C197.836 243.573 220.516 236.495 220.516 236.495L227.239 237.736Z" fill="#3CC22E"/>
<path opacity="0.3" d="M227.239 237.736C227.239 237.736 222.51 228.461 207.62 225.017C192.73 221.574 192.63 235.921 195.233 239.747C197.836 243.573 220.516 236.495 220.516 236.495L227.239 237.736Z" fill="white"/>
<path d="M246.907 243.759L250.114 236.503L253.976 242.98C253.976 242.98 251.167 246.873 247.838 246.623L246.907 243.759Z" fill="#FFB573"/>
<path d="M255.949 233.439L258.857 239.019L253.976 242.98L250.114 236.503L255.949 233.439Z" fill="#FFB573"/>
<path d="M251.021 246.111C250.218 245.926 249.426 245.709 248.645 245.46C247.883 245.218 247.102 244.956 246.294 244.872L243.127 255.049C242.559 256.824 241.975 258.585 241.351 260.284C240.392 258.866 239.456 257.38 238.517 255.879C237.445 254.145 232.814 245.047 232.814 245.047C228.048 244.769 224.985 255.146 224.985 255.146C227.001 258.971 235.534 267.428 236.439 268.348C236.905 268.814 237.365 269.274 237.997 269.786C238.147 269.911 238.293 270.033 238.494 270.175L238.776 270.377L238.919 270.477L238.99 270.526L239.173 270.645C239.922 271.149 241.344 271.624 242.722 271.43C243.963 271.268 244.831 270.74 245.246 270.43C246.177 269.716 246.445 269.25 246.755 268.828C247.013 268.432 247.214 268.068 247.37 267.747C247.689 267.091 247.906 266.509 248.105 265.941C248.495 264.81 248.788 263.744 249.055 262.684C249.572 260.568 249.954 258.494 250.29 256.421C250.841 253.011 251.201 249.619 251.437 246.201C251.298 246.17 251.157 246.142 251.021 246.111Z" fill="#3CC22E"/>
<path opacity="0.3" d="M251.021 246.111C250.218 245.926 249.426 245.709 248.645 245.46C247.883 245.218 247.102 244.956 246.294 244.872L243.127 255.049C242.559 256.824 241.975 258.585 241.351 260.284C240.392 258.866 239.456 257.38 238.517 255.879C237.445 254.145 232.814 245.047 232.814 245.047C228.048 244.769 224.985 255.146 224.985 255.146C227.001 258.971 235.534 267.428 236.439 268.348C236.905 268.814 237.365 269.274 237.997 269.786C238.147 269.911 238.293 270.033 238.494 270.175L238.776 270.377L238.919 270.477L238.99 270.526L239.173 270.645C239.922 271.149 241.344 271.624 242.722 271.43C243.963 271.268 244.831 270.74 245.246 270.43C246.177 269.716 246.445 269.25 246.755 268.828C247.013 268.432 247.214 268.068 247.37 267.747C247.689 267.091 247.906 266.509 248.105 265.941C248.495 264.81 248.788 263.744 249.055 262.684C249.572 260.568 249.954 258.494 250.29 256.421C250.841 253.011 251.201 249.619 251.437 246.201C251.298 246.17 251.157 246.142 251.021 246.111Z" fill="white"/>
<path d="M245.863 245.032L247.07 242.504L252.721 244.823L251.985 247.29L245.863 245.032Z" fill="#3CC22E"/>
<path opacity="0.5" d="M245.863 245.032L247.07 242.504L252.721 244.823L251.985 247.29L245.863 245.032Z" fill="white"/>
<path d="M268.307 43.163L345.548 21.351" stroke="white" stroke-miterlimit="10"/>
<path d="M334.019 73.154L345.548 21.351" stroke="white" stroke-miterlimit="10"/>
<path d="M386.384 43.163L334.019 73.154" stroke="white" stroke-miterlimit="10"/>
<path d="M405.538 75.88L360.201 58.158" stroke="white" stroke-miterlimit="10"/>
<path d="M347.899 21.351C347.899 22.649 346.847 23.702 345.548 23.702C344.249 23.702 343.197 22.65 343.197 21.351C343.197 20.052 344.249 19 345.548 19C346.847 19 347.899 20.053 347.899 21.351Z" fill="white"/>
<path d="M270.615 43.163C270.615 44.437 269.582 45.471 268.307 45.471C267.033 45.471 266 44.438 266 43.163C266 41.889 267.033 40.856 268.307 40.856C269.582 40.855 270.615 41.889 270.615 43.163Z" fill="white"/>
<path d="M336.493 73.154C336.493 74.52 335.386 75.628 334.019 75.628C332.653 75.628 331.545 74.521 331.545 73.154C331.545 71.788 332.652 70.68 334.019 70.68C335.385 70.68 336.493 71.788 336.493 73.154Z" fill="white"/>
<path d="M362.099 58.158C362.099 59.206 361.249 60.055 360.201 60.055C359.153 60.055 358.304 59.205 358.304 58.158C358.304 57.11 359.153 56.261 360.201 56.261C361.249 56.261 362.099 57.11 362.099 58.158Z" fill="white"/>
<path d="M386.384 44.711C387.239 44.711 387.932 44.0179 387.932 43.163C387.932 42.3081 387.239 41.615 386.384 41.615C385.529 41.615 384.836 42.3081 384.836 43.163C384.836 44.0179 385.529 44.711 386.384 44.711Z" fill="white"/>
<path d="M407.957 75.88C407.957 77.216 406.874 78.299 405.538 78.299C404.202 78.299 403.119 77.216 403.119 75.88C403.119 74.544 404.202 73.461 405.538 73.461C406.874 73.462 407.957 74.544 407.957 75.88Z" fill="white"/>
<path d="M11.417 52.7194L58.6034 63.0397" stroke="white" stroke-miterlimit="10"/>
<path d="M103.823 21.9914L58.6034 63.0397" stroke="white" stroke-miterlimit="10"/>
<path d="M122.698 33.9542L103.823 21.9914" stroke="white" stroke-miterlimit="10"/>
<path d="M60.0973 63.0397C60.0973 64.0238 59.4283 64.822 58.6029 64.822C57.7774 64.822 57.1084 64.0238 57.1084 63.0397C57.1084 62.0549 57.7774 61.2567 58.6029 61.2567C59.4283 61.2573 60.0973 62.0555 60.0973 63.0397Z" fill="white"/>
<path d="M103.823 23.9828C104.745 23.9828 105.493 23.0912 105.493 21.9914C105.493 20.8916 104.745 20 103.823 20C102.902 20 102.154 20.8916 102.154 21.9914C102.154 23.0912 102.902 23.9828 103.823 23.9828Z" fill="white"/>
<path d="M124 33.9542C124 34.8123 123.417 35.5082 122.698 35.5082C121.978 35.5082 121.395 34.8123 121.395 33.9542C121.395 33.0961 121.978 32.4003 122.698 32.4003C123.417 32.4003 124 33.0961 124 33.9542Z" fill="white"/>
<path d="M12.8341 52.7194C12.8341 53.653 12.1996 54.41 11.417 54.41C10.6345 54.41 10 53.653 10 52.7194C10 51.7858 10.6345 51.0288 11.417 51.0288C12.1996 51.0282 12.8341 51.7852 12.8341 52.7194Z" fill="white"/>
<path d="M186.64 120.083L219.854 99.2379" stroke="white" stroke-miterlimit="10"/>
<path d="M217.804 146.746L186.64 120.083" stroke="white" stroke-miterlimit="10"/>
<path d="M277.262 120.083L217.804 146.746" stroke="white" stroke-miterlimit="10"/>
<path d="M219.854 99.2379L277.262 120.083" stroke="white" stroke-miterlimit="10"/>
<path d="M186.64 120.083L137.023 106.025" stroke="white" stroke-miterlimit="10"/>
<path d="M157.115 78.8766L137.023 106.025" stroke="white" stroke-miterlimit="10"/>
<path d="M186.64 122.684C187.855 122.684 188.84 121.52 188.84 120.083C188.84 118.647 187.855 117.483 186.64 117.483C185.425 117.483 184.44 118.647 184.44 120.083C184.44 121.52 185.425 122.684 186.64 122.684Z" fill="white"/>
<path d="M221.452 99.2379C221.452 100.281 220.737 101.127 219.854 101.127C218.972 101.127 218.256 100.281 218.256 99.2379C218.256 98.1951 218.971 97.349 219.854 97.349C220.737 97.349 221.452 98.1944 221.452 99.2379Z" fill="white"/>
<path d="M278.975 120.083C278.975 121.202 278.208 122.108 277.262 122.108C276.316 122.108 275.549 121.202 275.549 120.083C275.549 118.965 276.316 118.058 277.262 118.058C278.208 118.058 278.975 118.964 278.975 120.083Z" fill="white"/>
<path d="M217.804 149.17C218.936 149.17 219.855 148.085 219.855 146.746C219.855 145.407 218.936 144.322 217.804 144.322C216.672 144.322 215.754 145.407 215.754 146.746C215.754 148.085 216.672 149.17 217.804 149.17Z" fill="white"/>
<path d="M158.703 78.8766C158.703 79.913 157.992 80.7533 157.115 80.7533C156.239 80.7533 155.528 79.913 155.528 78.8766C155.528 77.8403 156.239 77 157.115 77C157.992 77 158.703 77.8403 158.703 78.8766Z" fill="white"/>
<path d="M139.045 106.025C139.045 107.345 138.139 108.416 137.022 108.416C135.905 108.416 135 107.345 135 106.025C135 104.704 135.906 103.634 137.022 103.634C138.139 103.634 139.045 104.704 139.045 106.025Z" fill="white"/>
<path d="M423.994 195.877L438.582 227.501" stroke="white" stroke-miterlimit="10"/>
<path d="M501.798 264.647L438.582 227.501" stroke="white" stroke-miterlimit="10"/>
<path d="M558.328 263.643L501.798 264.647" stroke="white" stroke-miterlimit="10"/>
<path d="M473.838 179.814L459.598 239.849" stroke="white" stroke-miterlimit="10"/>
<path d="M459.598 241.675C460.819 241.675 461.809 240.858 461.809 239.849C461.809 238.841 460.819 238.024 459.598 238.024C458.377 238.024 457.387 238.841 457.387 239.849C457.387 240.858 458.377 241.675 459.598 241.675Z" fill="white"/>
<path d="M473.838 181.627C475.05 181.627 476.034 180.815 476.034 179.814C476.034 178.812 475.05 178 473.838 178C472.625 178 471.641 178.812 471.641 179.814C471.641 180.815 472.625 181.627 473.838 181.627Z" fill="white"/>
<path d="M423.994 197.523C425.095 197.523 425.988 196.786 425.988 195.877C425.988 194.967 425.095 194.23 423.994 194.23C422.893 194.23 422 194.967 422 195.877C422 196.786 422.893 197.523 423.994 197.523Z" fill="white"/>
<path d="M503.965 264.647C503.965 265.634 502.995 266.435 501.799 266.435C500.603 266.435 499.634 265.634 499.634 264.647C499.634 263.659 500.603 262.858 501.799 262.858C502.994 262.858 503.965 263.659 503.965 264.647Z" fill="white"/>
<path d="M561 263.643C561 264.861 559.804 265.849 558.329 265.849C556.854 265.849 555.658 264.861 555.658 263.643C555.658 262.425 556.854 261.437 558.329 261.437C559.804 261.437 561 262.424 561 263.643Z" fill="white"/>
<path d="M62.044 141.015V122" stroke="white" stroke-miterlimit="10" stroke-linecap="round"/>
<path d="M55 131.508H69.088" stroke="white" stroke-miterlimit="10" stroke-linecap="round"/>
<path d="M58.594 134.958L65.494 128.058" stroke="white" stroke-miterlimit="10" stroke-linecap="round"/>
<path d="M58.594 128.058L65.494 134.958" stroke="white" stroke-miterlimit="10" stroke-linecap="round"/>
<path d="M502.365 115.778V77" stroke="white" stroke-miterlimit="10" stroke-linecap="round"/>
<path d="M488 96.389H516.73" stroke="white" stroke-miterlimit="10" stroke-linecap="round"/>
<path d="M495.33 103.424L509.4 89.354" stroke="white" stroke-miterlimit="10" stroke-linecap="round"/>
<path d="M495.33 89.354L509.4 103.424" stroke="white" stroke-miterlimit="10" stroke-linecap="round"/>
<path d="M218.008 67.004C218.008 68.111 217.111 69.008 216.004 69.008C214.897 69.008 214 68.111 214 67.004C214 65.897 214.897 65 216.004 65C217.111 65 218.008 65.897 218.008 67.004Z" fill="white"/>
<path d="M297.004 178.008C298.111 178.008 299.008 177.111 299.008 176.004C299.008 174.897 298.111 174 297.004 174C295.897 174 295 174.897 295 176.004C295 177.111 295.897 178.008 297.004 178.008Z" fill="white"/>
<path d="M488.004 48.008C489.111 48.008 490.008 47.1108 490.008 46.004C490.008 44.8972 489.111 44 488.004 44C486.897 44 486 44.8972 486 46.004C486 47.1108 486.897 48.008 488.004 48.008Z" fill="white"/>
<path d="M181.338 52.905V25" stroke="white" stroke-miterlimit="10" stroke-linecap="round"/>
<path d="M171 38.952H191.675" stroke="white" stroke-miterlimit="10" stroke-linecap="round"/>
<path d="M176.275 44.015L186.4 33.89" stroke="white" stroke-miterlimit="10" stroke-linecap="round"/>
<path d="M176.275 33.89L186.4 44.015" stroke="white" stroke-miterlimit="10" stroke-linecap="round"/>
<path d="M517.911 208.055V184" stroke="white" stroke-miterlimit="10" stroke-linecap="round"/>
<path d="M509 196.028H526.822" stroke="white" stroke-miterlimit="10" stroke-linecap="round"/>
<path d="M513.547 200.391L522.275 191.664" stroke="white" stroke-miterlimit="10" stroke-linecap="round"/>
<path d="M513.547 191.664L522.275 200.391" stroke="white" stroke-miterlimit="10" stroke-linecap="round"/>
<path d="M21.91 116.055V92" stroke="white" stroke-miterlimit="10" stroke-linecap="round"/>
<path d="M13 104.027H30.821" stroke="white" stroke-miterlimit="10" stroke-linecap="round"/>
<path d="M17.546 108.391L26.274 99.663" stroke="white" stroke-miterlimit="10" stroke-linecap="round"/>
<path d="M17.546 99.663L26.274 108.391" stroke="white" stroke-miterlimit="10" stroke-linecap="round"/>
<path d="M28.337 245.905V218" stroke="white" stroke-miterlimit="10" stroke-linecap="round"/>
<path d="M18 231.953H38.675" stroke="white" stroke-miterlimit="10" stroke-linecap="round"/>
<path d="M23.275 237.015L33.4 226.89" stroke="white" stroke-miterlimit="10" stroke-linecap="round"/>
<path d="M23.275 226.89L33.4 237.015" stroke="white" stroke-miterlimit="10" stroke-linecap="round"/>
<path d="M37.008 184.005C37.008 185.112 36.111 186.009 35.004 186.009C33.897 186.009 33 185.112 33 184.005C33 182.898 33.897 182 35.004 182C36.11 182.001 37.008 182.898 37.008 184.005Z" fill="white"/>
<path d="M400.044 220.015V201" stroke="white" stroke-miterlimit="10" stroke-linecap="round"/>
<path d="M393 210.507H407.088" stroke="white" stroke-miterlimit="10" stroke-linecap="round"/>
<path d="M396.594 213.957L403.494 207.057" stroke="white" stroke-miterlimit="10" stroke-linecap="round"/>
<path d="M396.594 207.057L403.494 213.957" stroke="white" stroke-miterlimit="10" stroke-linecap="round"/>
<path d="M415.911 34.055V10" stroke="white" stroke-miterlimit="10" stroke-linecap="round"/>
<path d="M407 22.028H424.822" stroke="white" stroke-miterlimit="10" stroke-linecap="round"/>
<path d="M411.547 26.391L420.275 17.664" stroke="white" stroke-miterlimit="10" stroke-linecap="round"/>
<path d="M411.547 17.664L420.275 26.391" stroke="white" stroke-miterlimit="10" stroke-linecap="round"/>
<path d="M494.008 293.004C494.008 294.111 493.111 295.008 492.004 295.008C490.897 295.008 490 294.111 490 293.004C490 291.897 490.897 291 492.004 291C493.11 291 494.008 291.897 494.008 293.004Z" fill="white"/>
<path d="M256.008 24.004C256.008 25.111 255.111 26.009 254.004 26.009C252.897 26.009 252 25.112 252 24.004C252 22.897 252.897 22 254.004 22C255.11 22 256.008 22.898 256.008 24.004Z" fill="white"/>
<path d="M54.008 27.005C54.008 28.112 53.111 29.009 52.004 29.009C50.897 29.009 50 28.112 50 27.005C50 25.898 50.897 25 52.004 25C53.111 25 54.008 25.898 54.008 27.005Z" fill="white"/>
<path d="M105.009 118.005C105.009 119.112 104.112 120.009 103.005 120.009C101.898 120.009 101 119.112 101 118.005C101 116.898 101.898 116 103.005 116C104.112 116 105.009 116.898 105.009 118.005Z" fill="white"/>
</g>
<defs>
<clipPath id="clip0_1_248">
<rect width="556" height="500" fill="white"/>
</clipPath>
</defs>
</svg>
